<?xml version="1.0" encoding="UTF-8"?>
<svg version="1.1" xmlns="http://www.w3.org/2000/svg" width="2000" height="2000">
<path d="M0 0 C249.48 0 498.96 0 756 0 C756.33 2.31 756.66 4.62 757 7 C760.36732158 12.20404244 764.18104971 14.90392651 770 17 C771.53733303 17.29443836 773.07936732 17.56530285 774.625 17.8125 C779.19291136 18.6792319 780.76024633 20.63142703 783.46875 24.2578125 C786.0595781 27.20554039 789.45147351 28.47287945 793 30 C797.05763628 31.83559737 798.64527235 33.85465889 800.9375 37.5625 C803.12968155 41.26975216 803.12968155 41.26975216 807 42.9375 C811.44332467 44.51117749 812.64135989 47.7057836 814.8984375 51.6875 C816 54 816 54 816 56 C816.721875 56.20625 817.44375 56.4125 818.1875 56.625 C821.84658291 58.41388498 824.048443 60.47914974 826 64 C827.62559371 68.90268699 829 73.81513698 829 79 C830.093125 79.103125 831.18625 79.20625 832.3125 79.3125 C836 80 836 80 837.9375 81.4375 C839 83 839 83 839 85 C841.31 85 843.62 85 846 85 C846 337.78 846 590.56 846 851 C843.69 851 841.38 851 839 851 C838.79375 851.61875 838.5875 852.2375 838.375 852.875 C836.43691574 855.87022113 834.3795295 856.15511762 831 857 C830.34 857 829.68 857 829 857 C828.87882812 857.73605469 828.75765625 858.47210937 828.6328125 859.23046875 C828.46523437 860.20628906 828.29765625 861.18210937 828.125 862.1875 C827.96257813 863.15042969 827.80015625 864.11335938 827.6328125 865.10546875 C826.34133802 871.01276868 824.12377416 874.67985564 820 879 C819.278125 879.165 818.55625 879.33 817.8125 879.5 C817.214375 879.665 816.61625 879.83 816 880 C815.29094062 881.98536627 814.63305821 883.98910922 814 886 C812.59739531 888.5902508 811.06665439 890.89338268 809 893 C808.05125 893.268125 807.1025 893.53625 806.125 893.8125 C802.33730305 895.25182484 801.80879504 896.50934252 799.6875 899.875 C796.65497723 904.5616261 794.24581005 906.27608891 789.0703125 908.14453125 C786.00014265 909.4131486 784.19567476 911.56036138 782 914 C778.04933496 917.95066504 774.74196145 918.54214255 769.43359375 919.44921875 C764.83403777 920.49020975 761.94689577 923.05310423 758.6875 926.3125 C756.44810243 929.47448917 756.44810243 929.47448917 756 936 C506.52 936 257.04 936 0 936 C-0.33 933.69 -0.66 931.38 -1 929 C-4.36732158 923.79595756 -8.18104971 921.09607349 -14 919 C-15.53733303 918.70556164 -17.07936732 918.43469715 -18.625 918.1875 C-23.19291136 917.3207681 -24.76024633 915.36857297 -27.46875 911.7421875 C-30.0595781 908.79445961 -33.45147351 907.52712055 -37 906 C-41.05763628 904.16440263 -42.64527235 902.14534111 -44.9375 898.4375 C-47.12968155 894.73024784 -47.12968155 894.73024784 -51 893.0625 C-55.44332467 891.48882251 -56.64135989 888.2942164 -58.8984375 884.3125 C-60 882 -60 882 -60 880 C-60.721875 879.79375 -61.44375 879.5875 -62.1875 879.375 C-65.84658291 877.58611502 -68.048443 875.52085026 -70 872 C-71.62559371 867.09731301 -73 862.18486302 -73 857 C-74.093125 856.896875 -75.18625 856.79375 -76.3125 856.6875 C-80 856 -80 856 -81.9375 854.5625 C-83 853 -83 853 -83 851 C-85.31 851 -87.62 851 -90 851 C-90 598.22 -90 345.44 -90 85 C-87.69 85 -85.38 85 -83 85 C-82.79375 84.38125 -82.5875 83.7625 -82.375 83.125 C-80.43691574 80.12977887 -78.3795295 79.84488238 -75 79 C-74.34 79 -73.68 79 -73 79 C-72.87882813 78.26394531 -72.75765625 77.52789063 -72.6328125 76.76953125 C-72.46523438 75.79371094 -72.29765625 74.81789063 -72.125 73.8125 C-71.96257813 72.84957031 -71.80015625 71.88664063 -71.6328125 70.89453125 C-70.34133802 64.98723132 -68.12377416 61.32014436 -64 57 C-62.9171875 56.7525 -62.9171875 56.7525 -61.8125 56.5 C-60.9153125 56.2525 -60.9153125 56.2525 -60 56 C-59.29094062 54.01463373 -58.63305821 52.01089078 -58 50 C-56.59739531 47.4097492 -55.06665439 45.10661732 -53 43 C-52.05125 42.731875 -51.1025 42.46375 -50.125 42.1875 C-46.33730305 40.74817516 -45.80879504 39.49065748 -43.6875 36.125 C-40.65497723 31.4383739 -38.24581005 29.72391109 -33.0703125 27.85546875 C-30.00014265 26.5868514 -28.19567476 24.43963862 -26 22 C-22.04933496 18.04933496 -18.74196145 17.45785745 -13.43359375 16.55078125 C-8.83403777 15.50979025 -5.94689577 12.94689577 -2.6875 9.6875 C-0.44810243 6.52551083 -0.44810243 6.52551083 0 0 Z M22.5 72.25 C19.98292332 74.88621848 19.98292332 74.88621848 18.1875 77.6875 C15.34691927 80.69039963 13.13917979 80.72298073 9.18359375 81.41796875 C5.76015709 82.33047691 4.15290909 84.27720321 2 87 C1.525625 87.845625 1.05125 88.69125 0.5625 89.5625 C-1.43388073 92.67685394 -3.94322349 93.962149 -7 96 C-9.60954053 99.16872778 -10.25122009 102.0465585 -10.9375 106 C-11.72342038 110.33544604 -12.71109334 112.89903087 -16 116 C-16.85713982 116.30526674 -17.71427964 116.61053349 -18.59739339 116.92505074 C-21.16612125 118.72246577 -21.16612125 118.72246577 -21.46338208 121.15099502 C-21.64815116 124.19769775 -21.6613631 127.20937084 -21.6292057 130.26168823 C-21.63647291 131.44273581 -21.64374011 132.62378338 -21.65122753 133.84062028 C-21.66640476 137.13950271 -21.65899658 140.43697473 -21.64233777 143.73576108 C-21.62970797 147.31656481 -21.64593229 150.8972531 -21.65855443 154.4780407 C-21.67665913 160.76052172 -21.67603699 167.04278816 -21.66331863 173.32527924 C-21.64445765 182.66729204 -21.65404793 192.00912278 -21.66936017 201.35113424 C-21.69573351 218.03290213 -21.69338923 234.71457447 -21.67896561 251.39635152 C-21.66640497 265.99453025 -21.6630963 280.5926739 -21.66907883 295.19085693 C-21.66946075 296.15788539 -21.66984268 297.12491385 -21.67023618 298.1212462 C-21.67179278 302.04638778 -21.67338477 305.97152933 -21.675035 309.89667087 C-21.69034193 346.74358913 -21.6764438 383.5904464 -21.64955051 420.43735525 C-21.62582115 453.19850388 -21.62794423 485.95955535 -21.65185547 518.72070312 C-21.67860854 555.49873153 -21.68925652 592.27670603 -21.67379415 629.05474281 C-21.67219048 632.97287622 -21.67062628 636.89100964 -21.66907883 640.80914307 C-21.66868344 641.77394033 -21.66828805 642.7387376 -21.66788069 643.73277114 C-21.662185 658.324446 -21.66886014 672.91608199 -21.68147659 687.50775146 C-21.69574529 704.09339244 -21.69225793 720.67892263 -21.66507287 737.26454973 C-21.65034809 746.55552093 -21.64949499 755.84625243 -21.66830375 765.1372176 C-21.67946888 771.33406014 -21.67262345 777.53070947 -21.6507799 783.72752324 C-21.63882249 787.2644859 -21.6349483 790.80097048 -21.65280981 794.337919 C-21.67180712 798.13830878 -21.65259014 801.93793282 -21.6292057 805.73831177 C-21.64091153 806.8494063 -21.65261737 807.96050084 -21.66467792 809.1052649 C-21.63075957 811.83252802 -21.57682405 814.33455863 -21 817 C-18.72315866 819.23234836 -18.72315866 819.23234836 -16 820 C-12.11557878 823.6937132 -10.77033989 827.37282803 -10.0625 832.625 C-9.52020473 836.400408 -9.14214261 838.50723301 -6.125 840.9375 C-5.09375 841.618125 -4.0625 842.29875 -3 843 C-0.66671534 845.13328883 0.94165613 846.90198229 2.5625 849.625 C3.92617739 852.25743604 3.92617739 852.25743604 7 854 C8.39073339 854.22218817 9.78780418 854.40642772 11.1875 854.5625 C16.62233058 855.62815305 19.03491501 858.79155935 22.37109375 863.00390625 C24.35060578 865.42963922 25.30790456 865.9098911 28.39622736 866.31198215 C35.63339076 866.90230491 42.80333015 867.14193562 50.06286621 867.12584114 C51.22121129 867.12729458 52.37955637 867.12874802 53.57300282 867.13024551 C56.76582825 867.13324953 59.95861494 867.13182502 63.15143883 867.12846755 C66.63354099 867.12591752 70.11563866 867.12919603 73.59774017 867.13171089 C79.69324521 867.1353142 85.78874139 867.13521816 91.88424683 867.13266373 C100.94860542 867.1288755 110.01295655 867.13081798 119.07731509 867.13387203 C135.26786137 867.13913419 151.45840369 867.13868281 167.64895034 867.13579312 C181.81764375 867.13327674 195.98633571 867.13262125 210.1550293 867.13381577 C211.09517873 867.13389215 212.03532817 867.13396854 213.00396699 867.13404724 C216.82042049 867.13435858 220.636874 867.13467698 224.45332751 867.135007 C260.24844523 867.13806542 296.04356043 867.13529345 331.83867776 867.1299101 C363.63464069 867.12516456 395.43059961 867.12558919 427.2265625 867.13037109 C462.95656648 867.1357267 498.68656824 867.13784851 534.41657257 867.13475883 C538.22603861 867.13443812 542.03550466 867.13412528 545.8449707 867.13381577 C546.78294595 867.13373669 547.7209212 867.13365761 548.68731993 867.13357614 C562.84647887 867.13243907 577.00563621 867.13376819 591.16479492 867.13629532 C607.26573161 867.1391547 623.36666374 867.13843947 639.46759987 867.13301457 C648.47670129 867.1300792 657.48579283 867.12988532 666.494894 867.13366075 C672.51499987 867.13590518 678.53509782 867.13450384 684.55520251 867.13015598 C687.98356383 867.1277806 691.41190553 867.12695682 694.84026623 867.13056196 C698.5392409 867.13360361 702.23816191 867.13048245 705.93713379 867.12584114 C706.99313436 867.12818231 708.04913492 867.13052347 709.13713551 867.13293558 C721.99461379 867.8869658 721.99461379 867.8869658 733.5 863.75 C736.01707668 861.11378152 736.01707668 861.11378152 737.8125 858.3125 C740.65308073 855.30960037 742.86082021 855.27701927 746.81640625 854.58203125 C750.23984291 853.66952309 751.84709091 851.72279679 754 849 C754.474375 848.154375 754.94875 847.30875 755.4375 846.4375 C757.43388073 843.32314606 759.94322349 842.037851 763 840 C765.60954053 836.83127222 766.25122009 833.9534415 766.9375 830 C767.72342038 825.66455396 768.71109334 823.10096913 772 820 C772.85713982 819.69473326 773.71427964 819.38946651 774.59739339 819.07494926 C777.16612125 817.27753423 777.16612125 817.27753423 777.46338208 814.84900498 C777.64815116 811.80230225 777.6613631 808.79062916 777.6292057 805.73831177 C777.63647291 804.55726419 777.64374011 803.37621662 777.65122753 802.15937972 C777.66640476 798.86049729 777.65899658 795.56302527 777.64233777 792.26423892 C777.62970797 788.68343519 777.64593229 785.1027469 777.65855443 781.5219593 C777.67665913 775.23947828 777.67603699 768.95721184 777.66331863 762.67472076 C777.64445765 753.33270796 777.65404793 743.99087722 777.66936017 734.64886576 C777.69573351 717.96709787 777.69338923 701.28542553 777.67896561 684.60364848 C777.66640497 670.00546975 777.6630963 655.4073261 777.66907883 640.80914307 C777.66946075 639.84211461 777.66984268 638.87508615 777.67023618 637.8787538 C777.67179278 633.95361222 777.67338477 630.02847067 777.675035 626.10332913 C777.69034193 589.25641087 777.6764438 552.4095536 777.64955051 515.56264475 C777.62582115 482.80149612 777.62794423 450.04044465 777.65185547 417.27929688 C777.67860854 380.50126847 777.68925652 343.72329397 777.67379415 306.94525719 C777.67219048 303.02712378 777.67062628 299.10899036 777.66907883 295.19085693 C777.66848575 293.74366104 777.66848575 293.74366104 777.66788069 292.26722886 C777.662185 277.675554 777.66886014 263.08391801 777.68147659 248.49224854 C777.69574529 231.90660756 777.69225793 215.32107737 777.66507287 198.73545027 C777.65034809 189.44447907 777.64949499 180.15374757 777.66830375 170.8627824 C777.67946888 164.66593986 777.67262345 158.46929053 777.6507799 152.27247676 C777.63882249 148.7355141 777.6349483 145.19902952 777.65280981 141.662081 C777.67180712 137.86169122 777.65259014 134.06206718 777.6292057 130.26168823 C777.64091153 129.1505937 777.65261737 128.03949916 777.66467792 126.8947351 C777.63075957 124.16747198 777.57682405 121.66544137 777 119 C774.72315866 116.76765164 774.72315866 116.76765164 772 116 C768.11557878 112.3062868 766.77033989 108.62717197 766.0625 103.375 C765.52020473 99.599592 765.14214261 97.49276699 762.125 95.0625 C761.09375 94.381875 760.0625 93.70125 759 93 C756.66671534 90.86671117 755.05834387 89.09801771 753.4375 86.375 C752.07382261 83.74256396 752.07382261 83.74256396 749 82 C747.60926661 81.77781183 746.21219582 81.59357228 744.8125 81.4375 C739.37766942 80.37184695 736.96508499 77.20844065 733.62890625 72.99609375 C731.64939422 70.57036078 730.69209544 70.0901089 727.60377264 69.68801785 C720.36660924 69.09769509 713.19666985 68.85806438 705.93713379 68.87415886 C704.77878871 68.87270542 703.62044363 68.87125198 702.42699718 68.86975449 C699.23417175 68.86675047 696.04138506 68.86817498 692.84856117 68.87153245 C689.36645901 68.87408248 685.88436134 68.87080397 682.40225983 68.86828911 C676.30675479 68.8646858 670.21125861 68.86478184 664.11575317 68.86733627 C655.05139458 68.8711245 645.98704345 68.86918202 636.92268491 68.86612797 C620.73213863 68.86086581 604.54159631 68.86131719 588.35104966 68.86420688 C574.18235625 68.86672326 560.01366429 68.86737875 545.8449707 68.86618423 C544.43474655 68.86606966 544.43474655 68.86606966 542.99603301 68.86595276 C539.17957951 68.86564142 535.363126 68.86532302 531.54667249 68.864993 C495.75155477 68.86193458 459.95643957 68.86470655 424.16132224 68.8700899 C392.36535931 68.87483544 360.56940039 68.87441081 328.7734375 68.86962891 C293.04343352 68.8642733 257.31343176 68.86215149 221.58342743 68.86524117 C217.77396139 68.86556188 213.96449534 68.86587472 210.1550293 68.86618423 C209.21705405 68.86626331 208.2790788 68.86634239 207.31268007 68.86642386 C193.15352113 68.86756093 178.99436379 68.86623181 164.83520508 68.86370468 C148.73426839 68.8608453 132.63333626 68.86156053 116.53240013 68.86698543 C107.52329871 68.8699208 98.51420717 68.87011468 89.505106 68.86633925 C83.48500013 68.86409482 77.46490218 68.86549616 71.44479749 68.86984402 C68.01643617 68.8722194 64.58809447 68.87304318 61.15973377 68.86943804 C57.4607591 68.86639639 53.76183809 68.86951755 50.06286621 68.87415886 C49.00686564 68.87181769 47.95086508 68.86947653 46.86286449 68.86706442 C34.00538621 68.1130342 34.00538621 68.1130342 22.5 72.25 Z " fill="#030000" transform="translate(622,532)"/>
<path d="M0 0 C0.80759766 -0.01224609 1.61519531 -0.02449219 2.44726562 -0.03710938 C9.31938439 -0.05372207 16.2683975 0.28555324 21.5625 5.1875 C22.42875 5.9609375 22.42875 5.9609375 23.3125 6.75 C24.5625 8.1875 24.5625 8.1875 24.5625 10.1875 C25.2225 10.1875 25.8825 10.1875 26.5625 10.1875 C26.975 11.074375 27.3875 11.96125 27.8125 12.875 C29.46369561 16.00047741 31.35569169 18.44801382 33.5625 21.1875 C33.5625 21.8475 33.5625 22.5075 33.5625 23.1875 C34.2225 23.1875 34.8825 23.1875 35.5625 23.1875 C36.56734204 25.14335325 37.56623805 27.10226237 38.5625 29.0625 C39.119375 30.15304687 39.67625 31.24359375 40.25 32.3671875 C41.5625 35.1875 41.5625 35.1875 41.5625 37.1875 C42.614375 37.290625 43.66625 37.39375 44.75 37.5 C46.69921875 38.03515625 46.69921875 38.03515625 48.5625 39.1875 C50.06106484 41.8550333 51.11924773 44.58124839 52.2421875 47.42578125 C53.89173714 50.87617059 55.85526613 52.6635009 58.9140625 54.87109375 C62.50979047 57.74256372 63.82277559 60.57302631 64.75 65 C66.1724131 70.17516256 68.47886247 72.20009308 72.64453125 75.39453125 C75.35416296 77.92756782 76.29605052 80.67958369 77.3828125 84.171875 C78.46723051 86.47630019 78.46723051 86.47630019 81.3984375 87.4375 C85.80337134 89.87380909 86.98576896 92.98736206 89.0625 97.4375 C91.61919822 102.8037567 94.22372004 107.18829609 98.22412109 111.60205078 C100.59570807 114.41144257 101.78773949 117.69329263 103.19140625 121.05078125 C104.40882602 123.40536912 104.40882602 123.40536912 107.0390625 124.16796875 C110.36626504 125.51224098 110.90449919 126.9757395 112.375 130.1875 C113.00341797 131.5178125 113.00341797 131.5178125 113.64453125 132.875 C114.5625 135.1875 114.5625 135.1875 114.5625 137.1875 C115.14773438 137.26871094 115.73296875 137.34992188 116.3359375 137.43359375 C120.75865041 138.93110882 123.18942032 143.35313462 125.5625 147.1875 C126.31640625 149.38671875 126.31640625 149.38671875 126.75 151.4375 C127.62718342 155.48603887 128.66186305 157.28686305 131.5625 160.1875 C132.22765625 160.45949219 132.8928125 160.73148438 133.578125 161.01171875 C136.29125931 162.61930423 136.52175661 164.15537499 137.4375 167.125 C138.87291359 171.33791399 138.87291359 171.33791399 142.5 173.8125 C143.510625 174.26625 144.52125 174.72 145.5625 175.1875 C148.54195682 178.83669063 150.53463056 183.08642009 152.5625 187.3125 C154.07134119 190.43881894 155.8708629 192.76322062 158.21484375 195.34375 C160.69882582 198.74212547 162.19426682 202.72085429 163.83984375 206.578125 C166.03769054 209.90728974 167.84414228 210.03318816 171.5625 211.1875 C173.0234375 213.24609375 173.0234375 213.24609375 173.9375 215.625 C174.41316406 216.79869141 174.41316406 216.79869141 174.8984375 217.99609375 C175.5625 220.1875 175.5625 220.1875 175.5625 223.1875 C176.14902344 223.28160156 176.73554687 223.37570312 177.33984375 223.47265625 C181.62495596 224.85082063 184.12554717 228.55282339 186.5625 232.1875 C187.55221052 234.74393374 188.26335582 237.21705325 188.859375 239.890625 C189.66574764 242.52477562 190.73710672 244.1361917 192.5625 246.1875 C193.3875 246.55875 194.2125 246.93 195.0625 247.3125 C199.0074936 250.2712452 199.48736154 254.52856667 200.5625 259.1875 C201.449375 259.1875 202.33625 259.1875 203.25 259.1875 C207.51559197 260.47522588 208.29965433 262.11192626 210.41796875 265.87109375 C211.53643789 268.13475314 212.52879453 270.41990622 213.5 272.75 C215.1392856 276.62347324 217.20550987 279.22181223 220.03515625 282.2890625 C222.97469041 285.94280573 226.5625 291.38188582 226.5625 296.1875 C227.449375 296.14625 228.33625 296.105 229.25 296.0625 C233.29584468 297.43656046 233.57402035 298.41405916 235.4375 302.125 C237.5625 306.76926101 237.5625 306.76926101 237.5625 309.1875 C238.26375 309.3525 238.965 309.5175 239.6875 309.6875 C245.35933632 312.64671895 248.36321296 317.96102795 250.25 323.9375 C250.47558594 324.68644531 250.70117188 325.43539063 250.93359375 326.20703125 C251.75217905 328.7848123 252.53111244 330.37376111 254.5625 332.1875 C258.15317962 333.47592537 258.15317962 333.47592537 261.5625 334.1875 C262.78279563 340.91880815 262.78265564 347.61060258 262.8125 354.4375 C262.833125 355.60152344 262.85375 356.76554687 262.875 357.96484375 C262.9526644 375.30342117 262.9526644 375.30342117 257.60522461 381.42993164 C249.9043964 388.05575479 234.24149388 387.60118915 224.45068359 387.07373047 C217.44365926 386.49188388 210.73321338 385.71768897 204.5625 382.1875 C202.49683248 379.62897146 201.01091598 376.84980922 199.5 373.9375 C196.69700807 368.69732259 193.86524279 364.19827791 189.88549805 359.77294922 C187.53343296 356.95429067 186.33561323 353.67776718 184.93359375 350.32421875 C183.18103631 347.59302525 181.57230402 347.22271922 178.5625 346.1875 C175.74230265 342.53168862 174.69328536 338.62365796 173.5625 334.1875 C172.86125 334.1875 172.16 334.1875 171.4375 334.1875 C166.90866826 332.61225418 164.91024258 329.24827568 162.5625 325.1875 C161.67874867 322.89050839 160.96414363 320.59052602 160.26953125 318.23046875 C158.9942944 314.54566834 156.84358269 311.98817668 153.5625 309.9375 C150.79369204 307.51479303 150.04693879 304.68761272 148.8828125 301.24609375 C147.67459388 298.8763393 147.67459388 298.8763393 144.62109375 298.2734375 C141.5625 297.1875 141.5625 297.1875 139.83984375 294.54296875 C139.17662109 292.97482422 139.17662109 292.97482422 138.5 291.375 C136.36201036 286.69814765 134.42178752 283.65096316 130.5625 280.1875 C126.66405259 275.56026271 124.4920221 270.87711645 122.5625 265.1875 C121.75670215 262.8159995 121.75670215 262.8159995 120.5625 261.1875 C119.61310547 261.04248047 119.61310547 261.04248047 118.64453125 260.89453125 C116.5625 260.1875 116.5625 260.1875 115.2890625 258.0078125 C114.74378906 256.67363281 114.74378906 256.67363281 114.1875 255.3125 C111.98691067 250.53330599 110.36282087 249.38764707 105.5625 247.1875 C102.8716751 243.82965372 100.97411491 240.0855689 99.1875 236.1875 C97.69687978 233.43558574 96.30569393 231.75058105 94.1875 229.5 C91.2719313 226.33435114 89.66621624 223.42554933 88.0625 219.4375 C86.53497278 215.75227756 85.68433045 213.77551746 82 212.125 C77.4873811 209.58152389 77.19456552 207.16417314 75.5859375 202.44140625 C74.09405751 199.15585374 71.77245467 198.62870414 68.5625 197.1875 C65.55060376 193.59183736 63.63066122 189.62194083 62.1875 185.1875 C60.75980569 181.02609557 58.30918749 178.43988233 55.32421875 175.2734375 C53.47236714 173.08077949 52.28075664 170.93651329 51 168.375 C49.16081606 164.76097387 49.16081606 164.76097387 45.5625 162.8125 C41.27637268 160.4908477 40.56878482 157.2375949 38.93359375 152.78125 C37.27135815 149.63673593 35.64832754 148.84799196 32.5625 147.1875 C28.61592173 143.15739626 26.91164623 138.58071859 25.30859375 133.2734375 C24.26587492 130.35819219 22.73871171 128.36371171 20.5625 126.1875 C19.5725 125.8575 18.5825 125.5275 17.5625 125.1875 C16.421875 122.7890625 16.421875 122.7890625 15.3125 119.8125 C12.95688101 114.23753506 11.08329843 113.53895118 5.5625 111.1875 C4.05289913 107.95642446 3.25006715 104.67772181 2.5625 101.1875 C-0.81096335 101.04793273 -0.81096335 101.04793273 -4.4375 102.1875 C-7.16205546 105.58284267 -8.27597478 109.61206641 -9.4375 113.75 C-10.64430924 117.89840675 -11.93723692 120.64546063 -14.4375 124.1875 C-15.8915625 124.55875 -15.8915625 124.55875 -17.375 124.9375 C-20.61291508 125.87787824 -20.61291508 125.87787824 -21.7578125 128.671875 C-22.57214239 130.64880165 -23.34360453 132.64405473 -24.06640625 134.65625 C-25.79046209 137.83912232 -27.14904849 137.93451303 -30.4375 139.1875 C-31.99943962 141.3839833 -31.99943962 141.3839833 -33.0625 144 C-33.48015625 144.90234375 -33.8978125 145.8046875 -34.328125 146.734375 C-34.69421875 147.54390625 -35.0603125 148.3534375 -35.4375 149.1875 C-37.2516872 152.56848524 -39.40856768 155.40116993 -41.8125 158.375 C-45.00368066 162.37909194 -47.17957104 166.42816688 -49.19921875 171.12109375 C-50.67474535 173.58340785 -51.75349978 174.24835652 -54.4375 175.1875 C-55.4275 175.1875 -56.4175 175.1875 -57.4375 175.1875 C-57.72625 176.074375 -58.015 176.96125 -58.3125 177.875 C-58.68375 178.968125 -59.055 180.06125 -59.4375 181.1875 C-59.705625 182.115625 -59.97375 183.04375 -60.25 184 C-60.641875 184.721875 -61.03375 185.44375 -61.4375 186.1875 C-63.09571773 186.56059899 -64.76327014 186.89450977 -66.4375 187.1875 C-68.29806169 190.24772888 -69.43980343 193.67542956 -70.75 197 C-72.82687405 201.99671462 -74.88896503 206.09303658 -78.4375 210.1875 C-79.45650391 210.38859375 -79.45650391 210.38859375 -80.49609375 210.59375 C-81.13675781 210.7896875 -81.77742188 210.985625 -82.4375 211.1875 C-83.43265262 213.13994131 -83.43265262 213.13994131 -83.9375 215.5 C-85.07674004 219.37341614 -86.06789581 221.73687877 -89.4375 224.1875 C-90.41976562 224.34025391 -90.41976562 224.34025391 -91.421875 224.49609375 C-93.62217123 225.0127625 -93.62217123 225.0127625 -94.67578125 227.19140625 C-95.03027344 228.03574219 -95.38476562 228.88007812 -95.75 229.75 C-97.45855189 233.46768235 -99.1722961 236.23291195 -102 239.1875 C-105.3568695 242.77687994 -106.8809878 246.27196021 -108.55078125 250.8515625 C-109.77015852 254.0638427 -111.21167454 256.56888181 -113.4375 259.1875 C-114.9534375 259.5896875 -114.9534375 259.5896875 -116.5 260 C-119.55546768 260.84835343 -119.55546768 260.84835343 -120.3828125 263.1953125 C-120.86757025 264.78225629 -121.30866045 266.38338023 -121.69921875 267.99609375 C-122.54552144 270.50813506 -123.29846393 271.62956038 -125.4375 273.1875 C-126.7575 273.1875 -128.0775 273.1875 -129.4375 273.1875 C-129.71722656 273.90421875 -129.99695313 274.6209375 -130.28515625 275.359375 C-131.40171372 278.09967198 -132.59345512 280.77060909 -133.875 283.4375 C-134.28621094 284.30890625 -134.69742187 285.1803125 -135.12109375 286.078125 C-136.4375 288.1875 -136.4375 288.1875 -139.4375 289.1875 C-140.16654086 290.82784193 -140.82405243 292.50051918 -141.4375 294.1875 C-142.41684924 295.86638441 -143.42093919 297.53088239 -144.4375 299.1875 C-144.7984375 299.91710938 -145.159375 300.64671875 -145.53125 301.3984375 C-148.80596318 307.88488861 -148.80596318 307.88488861 -152.4375 309.625 C-156.59830928 311.79208817 -157.29021463 314.67898109 -159.15625 318.84765625 C-160.4375 321.1875 -160.4375 321.1875 -163.4375 323.0625 C-166.93366338 325.53894906 -167.29617328 326.87567714 -168.75 330.8125 C-170.95402268 336.68989381 -173.95019039 340.26897697 -178.28515625 344.7265625 C-181.08389772 347.92657543 -182.75750894 351.28873889 -184.46484375 355.15625 C-185.4375 357.1875 -185.4375 357.1875 -187.4375 359.1875 C-190.0625 359.3125 -190.0625 359.3125 -192.4375 359.1875 C-192.59605469 359.77917969 -192.75460937 360.37085938 -192.91796875 360.98046875 C-194.53065429 366.44221591 -196.21461775 369.25254154 -200.4375 373.1875 C-201.44090316 374.89383669 -202.44054986 376.60238503 -203.4375 378.3125 C-206.37426649 382.59979684 -208.57332317 384.03687331 -213.625 385.25 C-215.8892886 385.60684367 -218.1608397 385.92074514 -220.4375 386.1875 C-221.82582031 386.42919922 -221.82582031 386.42919922 -223.2421875 386.67578125 C-229.95877403 387.61762554 -236.33206918 386.87962368 -243 385.9375 C-243.88179932 385.81616699 -244.76359863 385.69483398 -245.67211914 385.56982422 C-246.50348389 385.43850098 -247.33484863 385.30717773 -248.19140625 385.171875 C-249.31011108 384.99736816 -249.31011108 384.99736816 -250.45141602 384.81933594 C-252.82690889 384.06361675 -253.87534182 383.10692036 -255.4375 381.1875 C-256.01525327 379.16943224 -256.31067922 377.19982526 -256.6171875 375.125 C-257.29095659 372.8990546 -257.29095659 372.8990546 -259.9765625 372.15234375 C-262.4375 370.1875 -262.4375 370.1875 -262.89404297 367.86376953 C-263.04045378 364.81206795 -263.01968789 361.80402718 -262.9375 358.75 C-262.94007813 357.70005859 -262.94265625 356.65011719 -262.9453125 355.56835938 C-262.83905712 347.23262468 -262.83905712 347.23262468 -259.4375 343.1875 C-258.76768527 341.14830981 -258.76768527 341.14830981 -258.4375 339 C-255.94853118 326.73727557 -255.94853118 326.73727557 -252 322.6875 C-249.4375 321.1875 -249.4375 321.1875 -247.42578125 320.9296875 C-245.17936061 320.34163483 -245.17936061 320.34163483 -244.1640625 317.7890625 C-243.80054688 316.80679687 -243.43703125 315.82453125 -243.0625 314.8125 C-240.79108639 309.35692681 -240.79108639 309.35692681 -237.4375 307.75 C-232.98821019 305.43266156 -232.55039061 301.87193545 -230.8515625 297.3125 C-229.01112989 293.24524561 -226.44368398 290.60095781 -223.3671875 287.42578125 C-220.69657165 284.32808311 -219.10723246 280.96707706 -217.4453125 277.25390625 C-216.4375 275.1875 -216.4375 275.1875 -214.4375 273.1875 C-212.44928687 272.78985737 -210.44805661 272.44974651 -208.4375 272.1875 C-207.96708071 267.22489108 -207.96708071 267.22489108 -210.125 262.9375 C-212.38481172 261.12819277 -212.38481172 261.12819277 -214.9375 259.875 C-218.45690146 257.49940401 -219.57165788 254.98828949 -221.4375 251.1875 C-221.4375 250.5275 -221.4375 249.8675 -221.4375 249.1875 C-222.36433594 249.13464844 -223.29117187 249.08179688 -224.24609375 249.02734375 C-227.4375 248.1875 -227.4375 248.1875 -229.16015625 245.75390625 C-229.60230469 244.76261719 -230.04445313 243.77132813 -230.5 242.75 C-232.27100395 238.48244475 -232.27100395 238.48244475 -235.96484375 236.078125 C-236.78082031 235.78421875 -237.59679687 235.4903125 -238.4375 235.1875 C-239.84375 233.41796875 -239.84375 233.41796875 -240.9375 231.375 C-243.05182546 227.71584232 -245.39950129 225.15484757 -248.4375 222.1875 C-253.0822999 216.73323289 -257.25508657 211.082413 -261.13671875 205.06640625 C-262.42836038 203.06050027 -262.42836038 203.06050027 -264.5 201.25 C-266.66791513 198.94221938 -267.49141172 196.89311852 -268.75 194 C-269.91138582 191.356792 -269.91138582 191.356792 -271.4375 189.1875 C-275.09792692 187.88607084 -275.09792692 187.88607084 -278.4375 188.1875 C-278.705625 188.88875 -278.97375 189.59 -279.25 190.3125 C-282.67731337 198.61020607 -282.67731337 198.61020607 -285.82421875 201 C-288.77366201 203.46889122 -290.13130348 205.74690132 -291.9375 209.125 C-294.37772868 213.48671026 -296.6806733 216.83681673 -300.4375 220.1875 C-302.49833381 222.59180611 -304.33944562 225.03677373 -306.06640625 227.69140625 C-306.66324219 228.59761719 -307.26007813 229.50382812 -307.875 230.4375 C-308.43058594 231.30890625 -308.98617187 232.1803125 -309.55859375 233.078125 C-311.82011306 235.61704481 -313.1578586 235.71274326 -316.4375 236.1875 C-317.66522827 238.42009665 -317.66522827 238.42009665 -318.4375 241.1875 C-320.35300037 246.12747464 -322.01831865 247.64018608 -326.7265625 249.984375 C-329.42081552 251.87896388 -330.37162699 254.40508962 -331.61328125 257.3828125 C-332.4375 259.1875 -332.4375 259.1875 -334.4375 261.1875 C-335.7575 261.1875 -337.0775 261.1875 -338.4375 261.1875 C-338.71722656 261.76113281 -338.99695313 262.33476563 -339.28515625 262.92578125 C-340.40842441 265.13043299 -341.5985909 267.2556042 -342.875 269.375 C-343.49181641 270.41720703 -343.49181641 270.41720703 -344.12109375 271.48046875 C-345.4375 273.1875 -345.4375 273.1875 -348.4375 274.1875 C-349.46401373 275.90269747 -349.46401373 275.90269747 -350.4375 278.1875 C-353.30716023 283.81203405 -356.94017122 288.36819406 -360.99609375 293.19921875 C-364.28311977 297.2225386 -367.28743547 301.42074251 -370.296875 305.65625 C-372.4375 308.1875 -372.4375 308.1875 -375.046875 309.75 C-377.85295492 311.43731603 -378.57006228 312.75727632 -379.9375 315.6875 C-381.9175709 319.53556232 -383.44496024 321.29629696 -387.4375 323.1875 C-389.88328692 325.29100122 -391.0230661 327.22941278 -392.25 330.1875 C-393.75287667 333.35960228 -394.0886455 334.01678397 -397.375 335.625 C-401.37970613 337.66821741 -402.12989808 340.01219199 -404.08984375 343.92578125 C-405.48976911 346.2752212 -406.78725568 347.52953624 -408.9375 349.1875 C-411.71027114 351.35465518 -413.17454393 353.22965485 -414.75 356.375 C-417.35517033 361.49936144 -421.0132525 365.2564593 -424.94921875 369.40234375 C-427.31214548 372.04718952 -429.20636033 374.71209266 -431.125 377.6875 C-434.68785302 382.97728884 -437.61031461 384.298954 -443.78881836 385.73339844 C-448.8181129 386.59564268 -453.90965877 386.41455762 -459 386.4375 C-460.67545898 386.4684375 -460.67545898 386.4684375 -462.38476562 386.5 C-471.08114633 386.54033104 -480.12960232 386.03071247 -487.5625 381.125 C-492.51819533 373.36107732 -491.71777592 363.38207351 -491.625 354.5 C-491.62435547 353.31599609 -491.62371094 352.13199219 -491.62304688 350.91210938 C-491.54430163 335.29430163 -491.54430163 335.29430163 -489.4375 333.1875 C-487.7978125 333.0946875 -487.7978125 333.0946875 -486.125 333 C-482.25769016 332.54714395 -482.25769016 332.54714395 -480.1875 329.4375 C-479.61 328.365 -479.0325 327.2925 -478.4375 326.1875 C-476.4510599 322.64150521 -474.30012684 319.81486445 -471.5 316.875 C-468.3781373 313.44606884 -466.32672943 310.3118355 -464.43359375 306.11328125 C-462.15161976 301.70146487 -459.19182002 297.77227334 -454.4375 296.1875 C-452.78499947 293.67357287 -452.78499947 293.67357287 -451.3125 290.6875 C-448.49097594 285.24097594 -448.49097594 285.24097594 -447.4375 284.1875 C-445.77132885 284.14686168 -444.10361905 284.144779 -442.4375 284.1875 C-442.169375 283.506875 -441.90125 282.82625 -441.625 282.125 C-441.233125 281.155625 -440.84125 280.18625 -440.4375 279.1875 C-440.025 277.99125 -439.6125 276.795 -439.1875 275.5625 C-437.4375 272.1875 -437.4375 272.1875 -434.625 270.875 C-430.39861004 268.63749944 -429.21461684 265.83955675 -426.94140625 261.73828125 C-425.57646318 259.42319599 -424.18217418 257.59856362 -422.375 255.625 C-420.12833028 253.14551477 -418.54890749 250.71620845 -417 247.75 C-414.50299864 243.04691006 -411.47785817 238.7012712 -407.4375 235.1875 C-406.4475 235.1875 -405.4575 235.1875 -404.4375 235.1875 C-404.19 234.32125 -403.9425 233.455 -403.6875 232.5625 C-402.33902038 228.92160504 -400.85450923 226.22602589 -398.4375 223.1875 C-397.63054687 222.91550781 -396.82359375 222.64351562 -395.9921875 222.36328125 C-392.56307986 220.78505281 -391.95391834 218.99834363 -390.375 215.625 C-388.96484375 212.62109375 -388.96484375 212.62109375 -387.4375 210.1875 C-385.37890625 209.51171875 -385.37890625 209.51171875 -383.4375 209.1875 C-381.16268059 206.20179953 -379.40000153 203.11767526 -377.625 199.8125 C-376.0111865 196.9114781 -374.10364479 194.5830641 -371.875 192.125 C-369.02861009 188.98311622 -367.275738 186.02382278 -365.4375 182.1875 C-360.48544619 174.6603782 -360.48544619 174.6603782 -357.39453125 173.265625 C-354.66884907 171.76405159 -354.2269506 170.02842912 -353.0625 167.1875 C-351.78515625 164.43359375 -351.78515625 164.43359375 -350.4375 162.1875 C-349.468125 161.878125 -348.49875 161.56875 -347.5 161.25 C-342.85235334 159.63755116 -342.04954523 156.0445598 -339.9375 151.79296875 C-338.02196475 148.46572392 -335.6320005 147.25061491 -332.4375 145.1875 C-330.78853371 142.76558076 -329.37525354 140.26370593 -327.9453125 137.70703125 C-326.56024573 135.39260621 -325.12664085 133.54529214 -323.3125 131.5625 C-320.16826863 128.0955712 -318.37519043 124.43551364 -316.4375 120.1875 C-315.7775 120.1875 -315.1175 120.1875 -314.4375 120.1875 C-314.169375 119.424375 -313.90125 118.66125 -313.625 117.875 C-312.47954753 115.28266021 -311.67334819 113.88674463 -309.4375 112.1875 C-308.4475 112.1875 -307.4575 112.1875 -306.4375 112.1875 C-306.19 111.506875 -305.9425 110.82625 -305.6875 110.125 C-301.68657063 100.72281599 -301.68657063 100.72281599 -296.9375 98.6875 C-296.24785156 98.48382812 -295.55820312 98.28015625 -294.84765625 98.0703125 C-290.72659995 96.560817 -287.15496807 94.05874814 -283.46484375 91.7109375 C-279.41308108 89.67198596 -275.91648865 88.43100534 -271.41821289 89.80371094 C-269.22315835 90.73894848 -267.11730572 91.77537318 -265 92.875 C-264.28779297 93.22755859 -263.57558594 93.58011719 -262.84179688 93.94335938 C-261.41040239 94.65450632 -259.98467355 95.37717502 -258.56494141 96.11132812 C-257.14120761 96.83152764 -255.69983964 97.51782999 -254.24365234 98.16992188 C-249.77954513 100.20326263 -247.33667983 101.84735977 -244.9375 106.3125 C-244.4528125 107.18132812 -243.968125 108.05015625 -243.46875 108.9453125 C-242.4375 111.1875 -242.4375 111.1875 -242.4375 113.1875 C-241.83808594 113.455625 -241.23867188 113.72375 -240.62109375 114 C-235.33854694 116.87279827 -232.44150204 121.92527681 -230 127.25 C-227.98014179 131.56989031 -225.82773186 133.82023766 -222.0859375 136.6796875 C-219.25391574 139.27011499 -217.7333969 142.61372222 -216.4375 146.1875 C-216.4375 146.8475 -216.4375 147.5075 -216.4375 148.1875 C-215.550625 148.14625 -214.66375 148.105 -213.75 148.0625 C-209.70415532 149.43656046 -209.42597965 150.41405916 -207.5625 154.125 C-205.4375 158.76926101 -205.4375 158.76926101 -205.4375 161.1875 C-204.52097656 161.23390625 -203.60445312 161.2803125 -202.66015625 161.328125 C-199.4375 162.1875 -199.4375 162.1875 -197.49609375 164.734375 C-196.69365234 166.31992188 -196.69365234 166.31992188 -195.875 167.9375 C-193.46018088 172.42747138 -191.26548706 175.76245895 -187.4375 179.1875 C-183.92120515 183.04684801 -181.55510281 186.58739104 -179.4296875 191.35546875 C-178.50202897 193.27703165 -178.50202897 193.27703165 -176.8203125 194.80078125 C-175.4375 196.1875 -175.4375 196.1875 -175.4375 198.1875 C-174.81875 198.373125 -174.2 198.55875 -173.5625 198.75 C-170.38147134 200.90187233 -170.24298053 203.56283763 -169.4375 207.1875 C-167.4575 207.1875 -165.4775 207.1875 -163.4375 207.1875 C-160.62832565 202.71362974 -158.81759126 198.45362311 -157.125 193.4375 C-154.90199792 187.41145435 -154.90199792 187.41145435 -150.9375 185.5 C-149.205 184.8503125 -149.205 184.8503125 -147.4375 184.1875 C-145.94831434 181.81189431 -144.88143016 179.3718934 -143.7578125 176.8046875 C-142.39312115 174.09953008 -140.90202363 172.3019514 -138.8125 170.125 C-135.62851145 166.72142604 -134.42983665 163.80073528 -133.171875 159.3671875 C-131.98755547 155.85202634 -130.12511688 152.75424522 -127.4375 150.1875 C-126.60992188 149.90777344 -125.78234375 149.62804688 -124.9296875 149.33984375 C-121.54264505 147.77373478 -121.20534374 146.12879014 -119.9375 142.6875 C-118.84375 139.71875 -118.84375 139.71875 -117.4375 137.1875 C-114.9140625 136.04296875 -114.9140625 136.04296875 -112.4375 135.1875 C-110.16268704 131.77528055 -108.63264429 128.70463236 -107.1875 124.875 C-105.43842003 120.56957237 -102.38424148 117.359582 -99.43359375 113.82421875 C-96.91372273 110.49562199 -95.2134991 107.03021274 -93.54296875 103.21875 C-92.4375 101.1875 -92.4375 101.1875 -89.4375 99.1875 C-88.1175 99.1875 -86.7975 99.1875 -85.4375 99.1875 C-85.30214844 98.630625 -85.16679688 98.07375 -85.02734375 97.5 C-83.41674244 91.79056303 -81.12050172 88.32058586 -77.078125 84.0234375 C-74.08953737 80.67906563 -72.68376452 76.81435514 -71.0625 72.6875 C-69.11737972 68.49801016 -66.85389442 64.20395654 -62.39453125 62.328125 C-59.69233521 60.75319238 -59.47003056 59.19299196 -58.5625 56.25 C-56.79913289 51.38338448 -56.79913289 51.38338448 -53.4375 49.5625 C-51.9525 48.881875 -51.9525 48.881875 -50.4375 48.1875 C-48.22957685 44.9473011 -46.8509364 41.37059256 -45.5625 37.68359375 C-44.30313273 34.88937262 -42.84145209 33.29147507 -40.6875 31.125 C-36.59387011 26.73580116 -34.32626503 22.21514913 -32.0546875 16.69140625 C-29.9540801 13.43901653 -28.08751706 13.17171869 -24.4375 12.1875 C-24.1075 11.5275 -23.7775 10.8675 -23.4375 10.1875 C-22.7775 10.1875 -22.1175 10.1875 -21.4375 10.1875 C-21.169375 9.445 -20.90125 8.7025 -20.625 7.9375 C-19.42775754 5.16493852 -18.61096242 3.28601544 -16.4375 1.1875 C-10.96291648 0.10531489 -5.55660993 0.00441351 0 0 Z " fill="#040000" transform="translate(1114.4375,942.8125)"/>
<path d="M0 0 C0.495 1.485 0.495 1.485 1 3 C3.16621868 4.1025173 3.16621868 4.1025173 6 5 C7.7634375 5.7425 7.7634375 5.7425 9.5625 6.5 C13.07967266 7.87223024 16.31416917 8.25953774 20.0625 8.625 C23.62158302 9.14236044 25.42846006 9.43513173 28.0078125 11.984375 C29.13040143 13.58210623 30.22306975 15.20127021 31.28515625 16.83984375 C33.26795424 19.33753689 34.64271328 19.92381634 37.625 20.9375 C40.64560678 22.0275672 41.73304389 22.55234658 43.40234375 25.3515625 C44.16858902 27.14204808 44.92912436 28.93498932 45.68359375 30.73046875 C47.24311556 33.41913988 48.21427169 33.9294095 51.125 34.875 C51.78757812 35.01679687 52.45015625 35.15859375 53.1328125 35.3046875 C55.8144775 36.30329915 56.5284766 37.54779355 58 40 C58.60009766 43.26806641 58.60009766 43.26806641 58.9140625 47.1015625 C58.97403412 47.77923676 59.03400574 48.45691101 59.09579468 49.15512085 C59.28453018 51.3109045 59.45556729 53.46762099 59.625 55.625 C59.80470265 57.78911967 59.98810028 59.95284704 60.17562866 62.11630249 C60.34381105 64.07384046 60.50150548 66.03227102 60.65869141 67.99072266 C60.81626307 70.91883115 60.81626307 70.91883115 62 73 C62.09602313 74.64362612 62.13074561 76.29107266 62.1328125 77.9375 C62.13410156 78.91460938 62.13539063 79.89171875 62.13671875 80.8984375 C62.13285156 81.92195312 62.12898437 82.94546875 62.125 84 C62.12886719 85.02351562 62.13273438 86.04703125 62.13671875 87.1015625 C62.13478516 88.56722656 62.13478516 88.56722656 62.1328125 90.0625 C62.13168457 90.96097656 62.13055664 91.85945312 62.12939453 92.78515625 C62 95 62 95 61 97 C60.34 97 59.68 97 59 97 C59.02356567 97.86951294 59.02356567 97.86951294 59.04760742 98.7565918 C59.11022791 101.40012739 59.14907518 104.04350655 59.1875 106.6875 C59.21263672 107.59951172 59.23777344 108.51152344 59.26367188 109.45117188 C59.35984281 118.26684132 59.35984281 118.26684132 56 122 C52.8125 122.3125 52.8125 122.3125 50 122 C49.731875 122.70125 49.46375 123.4025 49.1875 124.125 C48.795625 125.07375 48.40375 126.0225 48 127 C47.649375 127.928125 47.29875 128.85625 46.9375 129.8125 C44.55408423 133.73360337 41.61725096 136.17677964 38.125 139.109375 C35.84367038 140.98797271 35.84367038 140.98797271 34.0625 143.8125 C31.23319603 146.81327694 28.32031175 147.23188575 24.40234375 148.26171875 C20.02434646 149.60715206 17.65266958 152.17456495 14.875 155.6875 C13 158 13 158 10 159 C8.29340751 159.10246101 6.58315357 159.14844166 4.87353516 159.16113281 C3.82880035 159.17074036 2.78406555 159.1803479 1.70767212 159.19024658 C0.57953094 159.19449646 -0.54861023 159.19874634 -1.7109375 159.203125 C-2.87122467 159.20882507 -4.03151184 159.21452515 -5.22695923 159.22039795 C-7.68319791 159.22984923 -10.13944928 159.23638243 -12.59570312 159.24023438 C-16.35308941 159.24994338 -20.10992955 159.28096781 -23.8671875 159.3125 C-26.25260092 159.31902973 -28.63801825 159.32428032 -31.0234375 159.328125 C-32.70957657 159.3466452 -32.70957657 159.3466452 -34.42977905 159.36553955 C-35.48081818 159.36253845 -36.5318573 159.35953735 -37.61474609 159.35644531 C-38.53613373 159.36009094 -39.45752136 159.36373657 -40.40682983 159.36749268 C-43.57199186 158.91893983 -45.42273826 157.86660468 -48 156 C-48.66 155.05125 -49.32 154.1025 -50 153.125 C-52.57998017 149.75944895 -55.5487863 148.91071819 -59.5 147.5625 C-64.69212792 145.74817216 -67.21892952 144.44552993 -69.8984375 139.6796875 C-71.19786084 137.69829731 -72.49371617 136.86291981 -74.5 135.625 C-78.84789507 132.78031591 -80.99310944 128.70740688 -83 124 C-83 123.34 -83 122.68 -83 122 C-84.7015625 121.814375 -84.7015625 121.814375 -86.4375 121.625 C-87.613125 121.41875 -88.78875 121.2125 -90 121 C-91.23060421 118.53879159 -91.2057723 116.74223134 -91.31640625 113.9921875 C-91.35830078 113.00605469 -91.40019531 112.01992188 -91.44335938 111.00390625 C-91.48267578 109.97136719 -91.52199219 108.93882812 -91.5625 107.875 C-91.62727539 106.31458984 -91.62727539 106.31458984 -91.69335938 104.72265625 C-91.7996288 102.14857472 -91.90166583 99.57439492 -92 97 C-92.66 97 -93.32 97 -94 97 C-96.05799719 85.88017646 -94.94497414 75.38330468 -93.13769531 64.34228516 C-92.34434776 59.46926449 -91.76951021 54.68719759 -91.5 49.75 C-91.1606326 44.57963785 -90.36148585 40.63550926 -88 36 C-85.13768699 33.71014959 -82.5871199 33.80071556 -79 34 C-78.80664062 33.38511719 -78.61328125 32.77023437 -78.4140625 32.13671875 C-78.15367187 31.32847656 -77.89328125 30.52023437 -77.625 29.6875 C-77.24214844 28.48673828 -77.24214844 28.48673828 -76.8515625 27.26171875 C-76 25 -76 25 -74 22 C-72.08203125 21.3671875 -72.08203125 21.3671875 -69.8125 20.875 C-64.58460274 19.32349501 -62.41886193 16.35663517 -59.41015625 11.9609375 C-58 10 -58 10 -56 9 C-53.96120557 8.70833111 -51.91886577 8.44120492 -49.875 8.1875 C-42.6031895 7.0971293 -37.36941919 5.19956694 -31.875 0.3125 C-24.50194702 -5.61799914 -8.04849369 -4.85306195 0 0 Z " fill="#040000" transform="translate(764,713)"/>
</svg>
