<svg xmlns="http://www.w3.org/2000/svg" version="1.1" viewBox="214.63039999999998 120.4224 602.112 786.432" style="max-height: 500px" width="602.112" height="786.432">
<path transform="translate(244.24778366088867,128.86857223510742)" fill="#000000" d="M0 0 C1.10245918 -0.00307895 1.10245918 -0.00307895 2.22719026 -0.0062201 C4.70338345 -0.011899 7.17952118 -0.01043176 9.65571976 -0.00901413 C11.44363445 -0.01159725 13.23154856 -0.01461026 15.01946187 -0.01801753 C19.94326549 -0.02609695 24.86705453 -0.02787763 29.79086399 -0.028615 C35.09706705 -0.03046391 40.40326253 -0.0380104 45.70946121 -0.04475021 C57.3168283 -0.05834056 68.92419194 -0.0643593 80.53156567 -0.06876087 C87.77678056 -0.071522 95.02199411 -0.07575911 102.2672081 -0.08026505 C122.320126 -0.09245843 142.37304283 -0.10275774 162.42596436 -0.10614014 C163.70975466 -0.1063597 164.99354496 -0.10657927 166.316238 -0.10680549 C167.60312935 -0.10702377 168.89002071 -0.10724204 170.21590877 -0.10746694 C172.82371442 -0.1079104 175.43152007 -0.10835697 178.03932571 -0.10880661 C179.33289204 -0.10902804 180.62645836 -0.10924947 181.95922366 -0.10947761 C202.92452619 -0.1134265 223.88979397 -0.130883 244.85508308 -0.15416613 C266.37068584 -0.17786792 287.88627115 -0.19034145 309.40188718 -0.19150805 C321.48581283 -0.19242545 333.56969322 -0.19819414 345.65360641 -0.21632767 C355.94240342 -0.23171279 366.23114118 -0.23685849 376.5199475 -0.22858956 C381.77050191 -0.22467749 387.02093695 -0.22563988 392.27147675 -0.23964691 C397.07797083 -0.25235223 401.88425542 -0.25121796 406.69074908 -0.2390562 C408.4296587 -0.23709336 410.168583 -0.24020464 411.90747198 -0.24890056 C414.27225797 -0.25997786 416.63630257 -0.25251545 419.00106812 -0.24050903 C420.31425105 -0.24110612 421.62743398 -0.24170321 422.98041034 -0.24231839 C430.24399658 0.47742633 435.12157401 2.87514821 440.29442215 8.05217361 C441.0437233 8.79189154 441.0437233 8.79189154 441.80816185 9.54655325 C443.46285589 11.1861043 445.09922494 12.84275688 446.73610306 14.50008011 C447.92509274 15.68556549 449.11516011 16.86997081 450.30621719 18.05337906 C453.52601737 21.25896942 456.73000534 24.47994209 459.93092489 27.70437193 C463.28645004 31.08004451 466.65500025 34.44267486 470.02177811 37.80711746 C475.67072326 43.45611613 481.30974815 49.11486748 486.94264603 54.77986526 C493.45412919 61.32827426 499.97959361 67.86248285 506.51304615 74.38896787 C512.80250812 80.67212514 519.08340462 86.96377279 525.3599472 93.25983429 C528.02962602 95.93768529 530.70201587 98.61278685 533.37657166 101.2857666 C536.52399329 104.43230937 539.66376282 107.58629593 542.79777336 110.74619484 C543.94892552 111.90450862 545.10262766 113.06029459 546.25904655 114.2133503 C547.83705541 115.78764413 549.40552834 117.37086606 550.97191238 118.95671463 C551.85197386 119.84050482 552.73203533 120.72429501 553.63876534 121.63486671 C558.33598803 127.1835656 558.03835155 132.56076217 558.00948524 139.51641178 C558.01299132 140.57839453 558.01649739 141.64037728 558.02010971 142.73454133 C558.02946354 146.31714964 558.02449009 149.89959682 558.01964188 153.48221207 C558.02337612 156.06707698 558.02797673 158.65194077 558.03337252 161.23680276 C558.04368735 166.86926794 558.04651375 172.50169874 558.0444603 178.13417244 C558.04141416 186.50990098 558.04972567 194.88559138 558.06020955 203.26131251 C558.07956806 219.0898069 558.08517846 234.91828836 558.08632366 250.74679319 C558.08724216 262.9686724 558.09135573 275.19054653 558.09772491 287.41242409 C558.09951996 290.92833954 558.10129958 294.44425499 558.10307467 297.96017045 C558.10373781 299.27120827 558.10373781 299.27120827 558.10441436 300.6087317 C558.1167256 325.19899825 558.12461519 349.78926304 558.1237278 374.37953281 C558.12369664 375.30695437 558.12366548 376.23437592 558.12363338 377.18990116 C558.12346716 381.89063973 558.12326908 386.59137829 558.12306397 391.29211686 C558.12300413 392.6925347 558.12300413 392.6925347 558.12294309 394.12124381 C558.12286221 396.00923511 558.12277862 397.89722642 558.1226923 399.78521773 C558.12146663 429.1632548 558.13648185 458.54124571 558.16383743 487.91926956 C558.19454639 520.91232095 558.21177065 553.90534201 558.20991099 586.89840859 C558.20976172 590.41526711 558.20966431 593.93212563 558.20960236 597.44898415 C558.20956739 598.74792934 558.20956739 598.74792934 558.20953172 600.07311586 C558.20947013 614.01970522 558.22225173 627.96625456 558.23946689 641.91283202 C558.25640556 655.92505332 558.25841107 669.93721597 558.24524824 683.94944183 C558.23784731 692.2773227 558.24155102 700.60502561 558.26113292 708.9328877 C558.2745102 715.1462125 558.26705319 721.35934659 558.25138648 727.57266238 C558.24829882 730.09013638 558.2520148 732.60762952 558.26310663 735.12508098 C558.27715988 738.54001337 558.26669363 741.95402005 558.24999428 745.36892033 C558.25993064 746.35239957 558.269867 747.33587882 558.28010446 748.34916046 C558.2175248 754.37850209 557.31389761 759.14813434 553.75221634 764.13142776 C549.22375529 767.81080237 545.48199174 769.25475446 539.7304489 769.25907826 C538.93344043 769.26209423 538.13643195 769.2651102 537.31527171 769.26821756 C536.44378635 769.26644809 535.572301 769.26467862 534.67440701 769.26285553 C533.27518885 769.26593448 533.27518885 769.26593448 531.84770367 769.26907563 C528.69852648 769.27476379 525.54939278 769.27328615 522.40021133 769.27186966 C520.12898245 769.27445225 517.85775401 769.27746511 515.58652622 769.28087306 C509.32680847 769.28895868 503.06710219 769.2907335 496.80737984 769.29147053 C490.75557413 769.29312873 484.70377436 769.29944485 478.65197194 769.30554894 C462.43649077 769.32161405 446.22101053 769.32751259 430.00552283 769.33229769 C422.33651764 769.33463291 414.6675132 769.33823545 406.99850859 769.34199307 C380.75298629 769.35482839 354.50746442 769.3655481 328.26193905 769.36899567 C326.61420937 769.3692173 324.96647969 769.36943908 323.31875001 769.36966102 C321.66701696 769.36988166 320.0152839 769.37010214 318.36355084 769.37032247 C315.04982801 769.37076502 311.73610518 769.37121214 308.42238235 769.37166214 C307.60077089 769.37177153 306.77915942 769.37188092 305.93265064 769.37199363 C279.28380176 769.37562535 252.63498007 769.39154983 225.98614161 769.4148525 C197.81919716 769.43943769 169.65226825 769.45316787 141.48531276 769.45436358 C138.39450474 769.45453504 135.30369673 769.45475047 132.21288872 769.45499802 C131.07130179 769.45508167 131.07130179 769.45508167 129.9066525 769.45516701 C117.64932237 769.45631854 105.3920201 769.46734903 93.13469938 769.48188507 C80.81949575 769.49623746 68.50432792 769.49949416 56.18911823 769.49144509 C49.51494339 769.48737638 42.84084254 769.48851833 36.16667366 769.50250244 C30.06063303 769.51517953 23.95475751 769.51409851 17.84871731 769.50191173 C15.63607399 769.49994397 13.42341922 769.50308254 11.21079203 769.51175609 C8.20950882 769.52277925 5.20881544 769.51540947 2.2075491 769.50336456 C1.34308724 769.51095976 0.47862539 769.51855495 -0.41203228 769.5263803 C-7.12551061 769.46798314 -11.8067124 768.19277683 -17.06028366 763.75642776 C-20.50809217 759.61905755 -21.49741894 756.09109866 -21.50078332 750.75550288 C-21.50906256 749.14417941 -21.50906256 749.14417941 -21.51750904 747.50030395 C-21.51339841 746.32369714 -21.50928777 745.14709032 -21.50505257 743.93482876 C-21.50855864 742.67699466 -21.51206472 741.41916056 -21.51567703 740.12321028 C-21.52515218 736.61873294 -21.52212887 733.1143593 -21.51712149 729.60987679 C-21.51386072 725.80217922 -21.52213251 721.99450411 -21.52893984 718.18681365 C-21.53925934 711.50891359 -21.54208026 704.83104254 -21.54002762 698.1531353 C-21.5369827 688.22286355 -21.54529029 678.29262399 -21.55577687 668.36235848 C-21.5751397 649.59657501 -21.58074594 630.83080244 -21.58189099 612.06501015 C-21.58280932 597.57577775 -21.58692206 583.08654965 -21.59329224 568.59731865 C-21.59508726 564.4298332 -21.59686689 560.26234774 -21.59864199 556.09486228 C-21.59908409 555.05887652 -21.59952618 554.02289075 -21.59998168 552.95551148 C-21.61229364 523.80692707 -21.62018244 494.65834416 -21.61929512 465.50975704 C-21.61926396 464.4103237 -21.61923281 463.31089035 -21.6192007 462.17814084 C-21.61903448 456.60548256 -21.6188364 451.03282428 -21.61863129 445.460166 C-21.6185914 444.35337311 -21.61855151 443.24658021 -21.61851041 442.10624814 C-21.61842953 439.86804245 -21.61834594 437.62983676 -21.61825963 435.39163107 C-21.61703389 400.5624483 -21.63204995 365.73330447 -21.65940475 330.90413284 C-21.6901094 291.79350755 -21.70733824 252.68290784 -21.70547831 213.57226974 C-21.70532904 209.40384122 -21.70523163 205.2354127 -21.70516968 201.06698418 C-21.70514637 200.04057526 -21.70512306 199.01416633 -21.70509905 197.95665411 C-21.70503744 181.42141204 -21.71782254 164.88620369 -21.73503421 148.35097164 C-21.75196753 131.73987186 -21.7539826 115.12882155 -21.74081556 98.51771792 C-21.73341108 88.643485 -21.73712897 78.76940214 -21.75670025 68.89518504 C-21.76866427 62.30326377 -21.76614919 55.71145166 -21.75175925 49.11953549 C-21.74396587 45.36109797 -21.74253117 41.60295167 -21.75867395 37.84453424 C-21.7759025 33.79797607 -21.76227937 29.75211021 -21.7455616 25.70555019 C-21.75549796 24.53596688 -21.76543432 23.36638356 -21.77567178 22.16135833 C-21.7159193 15.35875029 -20.94345792 10.90095465 -17.24778366 5.13142776 C-11.49600756 0.45810969 -7.25115892 0.00688634 0 0 Z M11.75221634 33.13142776 C11.75221634 265.12142776 11.75221634 497.11142776 11.75221634 736.13142776 C181.04221634 736.13142776 350.33221634 736.13142776 524.75221634 736.13142776 C524.75221634 542.75142776 524.75221634 349.37142776 524.75221634 150.13142776 C490.76221634 149.80142776 456.77221634 149.47142776 421.75221634 149.13142776 C413.75221634 145.13142776 413.75221634 145.13142776 409.75221634 139.13142776 C409.25721634 86.66142776 409.25721634 86.66142776 408.75221634 33.13142776 C277.74221634 33.13142776 146.73221634 33.13142776 11.75221634 33.13142776 Z M441.75221634 58.13142776 C441.75221634 77.60142776 441.75221634 97.07142776 441.75221634 117.13142776 C461.22221634 117.13142776 480.69221634 117.13142776 500.75221634 117.13142776 C496.98849582 112.74042049 493.37197783 108.62535299 489.31349564 104.56331253 C488.8070401 104.05510468 488.30058456 103.54689682 487.77878189 103.02328873 C486.13047877 101.37063982 484.47861195 99.72160958 482.82643509 98.07283401 C481.6714073 96.91713172 480.51652791 95.76128109 479.3617897 94.60528946 C476.95538449 92.1974177 474.54719895 89.79134494 472.13771439 87.38655472 C469.04278874 84.2973644 465.95242602 81.20365421 462.86334896 78.10861683 C460.48636174 75.72802853 458.10701351 73.34981158 455.7269268 70.97232246 C454.58545125 69.83151545 453.44472209 68.68996113 452.30474281 67.54765892 C450.72021557 65.96060846 449.13254715 64.37677084 447.54396439 62.79378128 C446.64050781 61.8911203 445.73705124 60.98845932 444.80621719 60.05844498 C443.10007399 58.01739376 443.10007399 58.01739376 441.75221634 58.13142776 Z"/>
<path transform="translate(320.6699409484863,516.8685722351074)" fill="#000000" d="M0 0 C1.00875444 -0.00307895 1.00875444 -0.00307895 2.03788775 -0.0062201 C4.30157659 -0.01189494 6.56520467 -0.01043226 8.82889938 -0.00901413 C10.46419652 -0.01159749 12.09949303 -0.01461056 13.73478866 -0.01801753 C18.23673432 -0.02609421 22.73866404 -0.02787747 27.24061608 -0.028615 C32.09282755 -0.03046438 36.94503072 -0.03801113 41.7972374 -0.04475021 C52.41083443 -0.05833866 63.02442768 -0.06435901 73.63803196 -0.06876087 C80.26346098 -0.07152235 86.88888853 -0.07575952 93.51431656 -0.08026505 C111.85327818 -0.09245822 130.19223863 -0.10275754 148.53120422 -0.10614014 C149.70519291 -0.1063597 150.8791816 -0.10657927 152.0887457 -0.10680549 C153.26556398 -0.10702377 154.44238225 -0.10724204 155.65486169 -0.10746694 C158.03959545 -0.1079104 160.4243292 -0.10835697 162.80906296 -0.10880661 C163.99197653 -0.10902804 165.17489011 -0.10924947 166.39364955 -0.10947761 C185.56449249 -0.11342629 204.73529743 -0.13088224 223.90612569 -0.15416613 C243.58206839 -0.1778709 263.25799202 -0.19034158 282.93394923 -0.19150805 C293.98388662 -0.19242529 305.03377451 -0.19818986 316.08369827 -0.21632767 C325.4923197 -0.23171681 334.90087632 -0.23685611 344.30950794 -0.22858956 C349.11045738 -0.22467891 353.91127627 -0.22563297 358.7122097 -0.23964691 C363.10791641 -0.25236074 367.50339412 -0.25121048 371.89910039 -0.2390562 C373.48861685 -0.23709484 375.07814938 -0.24019789 376.66764322 -0.24890056 C394.55831616 -0.34064612 394.55831616 -0.34064612 399.86885095 4.547961 C404.0959079 9.33337991 404.69302764 13.41928275 404.60349655 19.56111526 C404.04252963 24.83420429 401.81362155 27.91856815 397.68359756 31.29499435 C391.53481647 34.60895373 384.03187534 33.68020051 377.23594284 33.63936234 C375.5725902 33.64397271 373.90924164 33.65032655 372.24590158 33.65827131 C367.68028603 33.67496901 363.11500493 33.66671627 358.54938817 33.65432644 C353.62360954 33.64528009 348.69788862 33.65924362 343.77212143 33.67024612 C334.12458358 33.68804034 324.47717014 33.68418732 314.82962739 33.67259556 C306.98945429 33.66356508 299.14931607 33.66233558 291.30913925 33.66669083 C290.19363816 33.66730376 289.07813707 33.66791669 287.92883292 33.6685482 C285.66277276 33.66982709 283.39671262 33.67112394 281.13065249 33.67243856 C259.87764596 33.68384701 238.62470843 33.67072649 217.37171322 33.6492371 C199.13237077 33.63136589 180.89313014 33.63446992 162.65378952 33.65291214 C141.47726499 33.67431416 120.30080094 33.68274835 99.1242671 33.67046309 C96.86650436 33.66918888 94.60874161 33.66793139 92.35097885 33.66669083 C91.24009231 33.66607372 90.12920577 33.66545662 88.98465601 33.66482082 C81.15314575 33.66136592 73.32167384 33.66719929 65.49016953 33.67660904 C55.94724759 33.68782296 46.40445729 33.6848017 36.86155045 33.66348606 C31.99182015 33.65296753 27.12230936 33.64886756 22.25258064 33.66208267 C17.79528783 33.67399568 13.33841816 33.66746205 8.88116378 33.64617246 C7.26820821 33.64170177 5.65521695 33.64398317 4.04228431 33.65367562 C-11.03601893 33.73733853 -11.03601893 33.73733853 -16.66994095 29.13142776 C-20.39193928 24.35963504 -21.32789294 20.5958415 -21.05275345 14.56111526 C-20.2179205 9.26248167 -17.90492494 6.10912342 -13.66994095 2.75642776 C-8.97183153 0.2116185 -5.33449012 0.00554056 0 0 Z"/>
<path transform="translate(318.6149492263794,615.8685722351074)" fill="#000000" d="M0 0 C1.0180527 -0.00307895 1.0180527 -0.00307895 2.05667213 -0.0062201 C4.3474495 -0.01190723 6.63816709 -0.01043075 8.92895031 -0.00901413 C10.58130897 -0.01159678 12.23366701 -0.01460966 13.88602418 -0.01801753 C18.43969667 -0.02610247 22.99335342 -0.02787793 27.54703224 -0.028615 C32.45307488 -0.03046295 37.3591093 -0.03800895 42.26514721 -0.04475021 C52.99850007 -0.05834441 63.73184921 -0.06435987 74.46520925 -0.06876087 C81.16381901 -0.07152132 87.86242732 -0.07575829 94.56103611 -0.08026505 C113.09812136 -0.09245886 131.63520544 -0.10275813 150.17229462 -0.10614014 C151.35919199 -0.1063597 152.54608937 -0.10657927 153.76895333 -0.10680549 C154.95873042 -0.10702377 156.14850751 -0.10724204 157.37433845 -0.10746694 C159.78537993 -0.10791041 162.19642141 -0.10835697 164.60746288 -0.10880661 C166.40141212 -0.10913875 166.40141212 -0.10913875 168.23160275 -0.10947761 C187.61725557 -0.11342692 207.00287083 -0.13088452 226.38850913 -0.15416613 C246.27911286 -0.17786191 266.16969772 -0.19034117 286.06031579 -0.19150805 C297.23316504 -0.19242579 308.40596536 -0.19820278 319.57880116 -0.21632767 C329.09144156 -0.23170469 338.60401791 -0.2368633 348.11666838 -0.22858956 C352.9720447 -0.22467462 357.82729192 -0.22565376 362.68265247 -0.23964691 C367.1257879 -0.25233519 371.56869654 -0.25123317 376.01183143 -0.2390562 C377.6208575 -0.23709038 379.22989937 -0.24021826 380.83890323 -0.24890056 C383.02373816 -0.25994547 385.20776595 -0.25253921 387.39257812 -0.24050903 C388.6068164 -0.24110612 389.82105468 -0.24170321 391.07208806 -0.24231839 C395.42503762 0.24875208 398.81101055 1.6620743 402.02958202 4.66658401 C406.59346562 10.63473948 407.14601829 14.65914953 406.38505077 22.13142776 C404.19978736 26.58289028 401.44559867 29.32027922 397.38505077 32.13142776 C393.97239046 33.2689812 391.37025224 33.25915825 387.77010155 33.26285553 C387.09139975 33.26490816 386.41269794 33.2669608 385.71342942 33.26907563 C383.42265204 33.27476276 381.13193446 33.27328628 378.84115124 33.27186966 C377.18879257 33.27445231 375.53643454 33.27746519 373.88407737 33.28087306 C369.33040488 33.288958 364.77674813 33.29073346 360.22306931 33.29147053 C355.31702667 33.29331848 350.41099224 33.30086448 345.50495434 33.30760574 C334.77160148 33.32119994 324.03825234 33.3272154 313.3048923 33.3316164 C306.60628254 33.33437685 299.90767422 33.33861382 293.20906544 33.34312057 C274.67198019 33.35531439 256.1348961 33.36561366 237.59780693 33.36899567 C236.41090955 33.36921523 235.22401218 33.3694348 234.00114821 33.36966102 C232.81137113 33.3698793 231.62159404 33.37009757 230.3957631 33.37032247 C227.98472162 33.37076594 225.57368014 33.3712125 223.16263866 33.37166214 C221.96667251 33.37188357 220.77070635 33.372105 219.5384988 33.37233314 C200.15284598 33.37628245 180.76723072 33.39374005 161.38159242 33.41702166 C141.49098869 33.44071744 121.60040383 33.4531967 101.70978576 33.45436358 C90.53693651 33.45528132 79.36413619 33.46105831 68.19130039 33.4791832 C58.67865998 33.49456022 49.16608364 33.49971883 39.65343317 33.49144509 C34.79805684 33.48753015 29.94280963 33.48850929 25.08744907 33.50250244 C20.64431365 33.51519072 16.20140501 33.5140887 11.75827012 33.50191173 C10.14924404 33.49994591 8.54020218 33.50307379 6.93119832 33.51175609 C4.74636339 33.522801 2.5623356 33.51539474 0.37752342 33.50336456 C-0.83671486 33.50396165 -2.05095314 33.50455874 -3.30198652 33.50517392 C-7.64697182 33.01500192 -11.01540231 31.59039693 -14.25948048 28.63142776 C-18.53830556 23.13621428 -19.24339353 18.91629869 -18.61494923 12.13142776 C-16.78960331 6.85820624 -14.0077572 4.33451691 -9.61494923 1.13142776 C-6.20228891 -0.00612567 -3.60015069 0.00369728 0 0 Z"/>
<path transform="translate(318.63056659698486,418.86577892303467)" fill="#000000" d="M0 0 C0.68039018 -0.00235223 1.36078035 -0.00470446 2.06178841 -0.00712797 C4.35830706 -0.01382352 6.6547692 -0.01335958 8.95129681 -0.01294994 C10.60778044 -0.01624821 12.26426327 -0.0199737 13.92074507 -0.02409142 C18.48581723 -0.03412355 23.05087624 -0.03783015 27.61595786 -0.04048073 C32.53427194 -0.04438012 37.45257557 -0.05395862 42.37088299 -0.0626936 C54.25407741 -0.08246696 66.1372727 -0.09252471 78.02047947 -0.10142139 C83.6128538 -0.10580231 89.20522717 -0.11116958 94.79760075 -0.11641026 C113.38100806 -0.13342238 131.96441477 -0.14791785 150.54782867 -0.155159 C155.37158299 -0.15706897 160.19533731 -0.15898929 165.01909161 -0.16094494 C166.21804838 -0.16142868 167.41700515 -0.16191242 168.65229394 -0.16241082 C188.08645779 -0.17071598 207.52056018 -0.19606117 226.95469717 -0.22852562 C246.89502118 -0.26156488 266.83531392 -0.27960486 286.77566546 -0.28280324 C297.97647835 -0.28497109 309.17720159 -0.29376014 320.37798786 -0.31926441 C329.91442871 -0.34092853 339.45075814 -0.34904296 348.9872208 -0.33929763 C353.85478756 -0.33474064 358.72212422 -0.33672017 363.58965969 -0.35605907 C368.04395379 -0.37360374 372.49784843 -0.3727642 376.95214625 -0.35716178 C378.56521266 -0.35477244 380.17830611 -0.35917753 381.79133103 -0.37099043 C383.98182309 -0.38604125 386.17088719 -0.37648612 388.36134338 -0.36076355 C390.18725745 -0.36222876 390.18725745 -0.36222876 392.05005866 -0.36372358 C397.21658349 0.41131498 400.28716907 2.90570481 403.6819334 6.75922108 C407.0130301 11.44743124 406.83797356 15.50306251 406.3694334 21.13422108 C404.57589505 26.41519512 401.75944138 28.93317359 397.3694334 32.13422108 C393.96186355 33.2700777 391.36746969 33.26194637 387.77289486 33.26564884 C386.75782411 33.26872779 386.75782411 33.26872779 385.72224689 33.27186894 C383.43822217 33.27755598 381.15425744 33.2760796 378.87022686 33.27466297 C377.22270569 33.27724563 375.57518514 33.28025851 373.92766547 33.28366637 C369.38732516 33.29175128 364.84700064 33.29352677 360.30665398 33.29426384 C355.41490725 33.29611181 350.52316878 33.30365785 345.63142681 33.31039906 C334.92899756 33.32399352 324.22657204 33.33000884 313.52413559 33.33440971 C306.84427911 33.33717027 300.16442409 33.34140729 293.4845686 33.34591389 C274.99809771 33.35810804 256.51162798 33.36840705 238.02515316 33.37178898 C236.84147496 33.37200854 235.65779675 33.37222811 234.43824951 33.37245433 C233.25170283 33.37267261 232.06515615 33.37289089 230.84265351 33.37311578 C228.43816868 33.37355925 226.03368386 33.37400581 223.62919903 33.37445545 C222.4364858 33.37467688 221.24377257 33.37489831 220.01491651 33.37512645 C200.68490468 33.37907519 181.35493052 33.39653089 162.02493325 33.41981497 C142.1896953 33.44351523 122.35447627 33.45599023 102.51922393 33.4571569 C91.37820081 33.45807441 80.23722678 33.46384583 69.09621716 33.48197651 C59.6099557 33.49735961 50.12375851 33.50250855 40.63748696 33.49423841 C35.79616346 33.49032554 30.95496943 33.49129249 26.11366177 33.50529575 C21.68219321 33.51799652 17.25095192 33.5168709 12.81948385 33.50470504 C11.21582351 33.50274139 9.61214729 33.50585719 8.00850931 33.5145494 C5.8285091 33.52561811 3.64931437 33.51817084 1.46933651 33.50615788 C0.25851571 33.50675496 -0.95230508 33.50735205 -2.19981742 33.50796723 C-6.79485818 33.00738304 -10.80121296 31.70926995 -14.3727541 28.63422108 C-18.5395775 23.11677216 -19.2552306 18.87827877 -18.6305666 12.13422108 C-16.80522068 6.86099955 -14.02337457 4.33731022 -9.6305666 1.13422108 C-6.21428248 -0.0045403 -3.60414707 0.00529777 0 0 Z"/>
<path transform="translate(316.92072105407715,714.6168899536133)" fill="#000000" d="M0 0 C0.68746339 -0.00495952 1.37492678 -0.00991903 2.08322239 -0.01502883 C4.39194021 -0.02800517 6.7000816 -0.01959411 9.00881386 -0.01129913 C10.67868861 -0.01618709 12.34855998 -0.02237644 14.01842558 -0.02975702 C18.61130261 -0.04619188 23.20400838 -0.04383141 27.79690456 -0.03838205 C32.74862029 -0.03571622 37.7002899 -0.05023525 42.65198708 -0.06247711 C52.35458365 -0.08355221 62.05712049 -0.08807077 71.75973724 -0.08628923 C79.64476831 -0.08498264 87.52978072 -0.08878043 95.41480827 -0.09621429 C97.68433082 -0.09831344 99.95385337 -0.10041104 102.22337592 -0.10250711 C103.91767768 -0.10407241 103.91767768 -0.10407241 105.64620776 -0.10566932 C127.01841174 -0.12458008 148.3905814 -0.12351893 169.76279028 -0.11669999 C189.32227309 -0.1111239 208.88162495 -0.13195132 228.44107716 -0.16506046 C248.51595085 -0.19877882 268.59076177 -0.21396811 288.66566432 -0.20934343 C299.93970664 -0.20709687 311.21362793 -0.21236925 322.4876461 -0.23723602 C332.08552424 -0.25822518 341.68321497 -0.26186483 351.28110074 -0.24293643 C356.17922272 -0.23376389 361.07699506 -0.23268199 365.97509003 -0.25329208 C370.45843537 -0.27194857 374.94114339 -0.26755871 379.42446406 -0.24474627 C381.04690576 -0.240547 382.66939582 -0.24480499 384.29178648 -0.25834221 C397.92573417 -0.36436213 397.92573417 -0.36436213 402.46965408 2.75398254 C406.69215661 7.00804131 408.22872198 10.3794352 408.51677895 16.32061005 C408.33855332 21.4736554 407.19985907 24.27708357 404.07927895 28.38311005 C399.63134867 31.93671773 396.69630552 32.88375851 391.03551006 32.88926792 C390.34689283 32.89538128 389.6582756 32.90149464 388.94879118 32.90779325 C386.64200819 32.92339016 384.33627707 32.91052934 382.02948952 32.89777374 C380.35874964 32.90309907 378.68801456 32.91016468 377.01728863 32.9188208 C372.42661884 32.9374769 367.83627101 32.93113295 363.24558771 32.92066777 C358.29456403 32.91368418 353.34360706 32.9296673 348.39260292 32.9426651 C338.69346509 32.96432446 328.9944445 32.96417323 319.29529042 32.95603956 C311.41313954 32.94974361 303.53102289 32.95087287 295.64887238 32.95731163 C293.96709142 32.95866411 293.96709142 32.95866411 292.2513351 32.96004392 C289.97375941 32.96189509 287.69618373 32.96375765 285.41860806 32.96563148 C264.05306265 32.98221671 242.68758325 32.9734846 221.3220418 32.9566459 C201.76908513 32.94194851 182.21628211 32.95657664 162.66334523 32.98541606 C142.59295444 33.01479856 122.5226346 33.02578567 102.45222324 33.01623386 C100.18264927 33.01521129 97.91307528 33.01421669 95.64350128 33.01325035 C94.52679153 33.01277396 93.41008179 33.01229757 92.25953235 33.01180675 C84.3864431 33.00964109 76.5134209 33.01945477 68.64034653 33.03402138 C59.04614444 33.05152452 49.45213828 33.05145634 39.85794396 33.02866972 C34.96184578 33.01750918 30.06609307 33.01440606 25.17000961 33.03297043 C20.68854533 33.04974419 16.20772864 33.04346645 11.72630655 33.01875364 C10.10457144 33.01385972 8.48278441 33.01741498 6.86109263 33.03024108 C-6.76667958 33.13025168 -6.76667958 33.13025168 -11.31067562 30.01181698 C-15.49787926 25.79467536 -17.0689335 22.39829661 -17.42072105 16.50811005 C-17.25267276 11.20258533 -15.54870513 7.26191771 -11.92072105 3.38311005 C-7.86899067 0.4246993 -4.97451453 0.00638246 0 0 Z"/>
</svg>