<?xml version="1.0" encoding="UTF-8"?>
<svg version="1.1" xmlns="http://www.w3.org/2000/svg" width="2000" height="2000">
<path d="M0 0 C1.88961205 -0.01073296 1.88961205 -0.01073296 3.81739807 -0.02168274 C5.20112585 -0.02452261 6.5848539 -0.02723438 7.96858215 -0.02983093 C9.43615884 -0.03610268 10.90373395 -0.0427501 12.37130737 -0.04974365 C17.18212289 -0.0707199 21.99293846 -0.08114707 26.80378723 -0.09111023 C28.46816333 -0.09516162 30.13253928 -0.09927865 31.79691505 -0.10346031 C39.6271017 -0.12250596 47.45727901 -0.13673254 55.28748435 -0.14507228 C64.28029648 -0.15481166 73.27286031 -0.18104693 82.26558512 -0.22157317 C89.24344196 -0.25192212 96.22122845 -0.26655919 103.19914991 -0.26985329 C107.3530652 -0.27218446 111.50671515 -0.28088717 115.6605587 -0.30631447 C150.89613971 -0.51070949 180.97787083 5.1169584 208.63581848 28.14717102 C209.50851379 28.85486633 210.38120911 29.56256165 211.28034973 30.29170227 C234.04254291 49.61268199 248.05907552 79.68487362 250.63581848 109.14717102 C251.03658896 116.95914825 251.00832861 124.78787492 251.04988098 132.60810852 C251.06862475 134.85255113 251.08820046 137.09698693 251.10856628 139.34141541 C251.15955474 145.20364845 251.19935713 151.06590425 251.23670959 156.92823792 C251.27695969 162.92835466 251.32795544 168.92837944 251.37800598 174.92842102 C251.47437036 186.66793944 251.5588996 198.40751019 251.63581848 210.14717102 C252.57755417 210.51577744 253.51928986 210.88438385 254.48956299 211.26416016 C258.03628083 212.65302614 261.58191685 214.04463644 265.1272583 215.43701172 C266.6519351 216.03537836 268.17689119 216.63303393 269.70214844 217.22991943 C280.81643381 221.58007832 291.81244969 226.10844378 302.63581848 231.14717102 C307.34766476 227.21904513 311.78542076 223.12463932 316.08332825 218.74971008 C316.68609085 218.14066833 317.28885345 217.53162659 317.90988159 216.90412903 C319.20782575 215.59242881 320.50468632 214.27965564 321.80055428 212.96590424 C323.86391669 210.87562542 325.93186059 208.78998359 328.00128174 206.70570374 C333.88162663 200.78290372 339.75942331 194.85766324 345.62043762 188.91572571 C349.21823703 185.26892816 352.82613374 181.63237774 356.4404583 178.00196075 C357.80306649 176.62956571 359.1620427 175.25355316 360.51701546 173.87361908 C371.44116544 162.75282304 382.84081012 153.12686945 396.76081848 145.89717102 C397.54795227 145.48660461 398.33508606 145.07603821 399.14607239 144.6530304 C407.94070391 140.24443279 417.09873011 137.45592318 426.63581848 135.14717102 C427.70316223 134.88162415 428.77050598 134.61607727 429.87019348 134.34248352 C461.48155685 128.10564696 493.9598603 136.04250909 520.72175598 153.11592102 C535.67751932 163.5720994 548.27366583 177.5926476 561.14363098 190.41670227 C562.12283964 191.39185024 563.10207652 192.36696987 564.08134079 193.342062 C568.68104864 197.92281745 573.27840595 202.50591583 577.87284577 207.09195501 C583.12847844 212.3378105 588.39230455 217.57526208 593.66318619 222.80579454 C597.77259365 226.88484555 601.87410762 230.97173023 605.97001159 235.06433982 C608.40103101 237.49303398 610.83508769 239.91846349 613.277668 242.33553505 C625.76077479 254.70606734 637.35747227 266.80131566 645.44831848 282.58467102 C645.8152179 283.2914801 646.18211731 283.99828918 646.56013489 284.72651672 C652.21331228 295.93151973 655.42677564 307.81978508 657.63581848 320.14717102 C657.83497864 321.25705383 657.83497864 321.25705383 658.03816223 322.38935852 C662.36297653 352.8407907 653.85571301 385.12890799 635.80915833 409.88105774 C630.01013988 417.50415049 623.34567234 424.33139354 616.63581848 431.14717102 C616.17318604 431.61733643 615.71055359 432.08750183 615.23390198 432.57191467 C611.56672727 436.29582845 607.88621367 440.00628343 604.19831848 443.70967102 C603.68412354 444.22672607 603.16992859 444.74378113 602.64015198 445.27650452 C597.30232365 450.63522454 591.93859599 455.91809465 586.17463684 460.82270813 C584.94795485 461.87851486 583.78025645 463.00273305 582.63581848 464.14717102 C583.85978333 464.84713196 583.85978333 464.84713196 585.10847473 465.56123352 C588.29806107 468.82476699 588.20718242 470.39710695 588.17756653 474.80000305 C588.12596375 476.1474762 588.12596375 476.1474762 588.07331848 477.52217102 C588.05374084 478.46302551 588.03416321 479.40388 588.01399231 480.37324524 C587.92678216 483.6338047 587.78681375 486.88894785 587.63581848 490.14717102 C587.57974426 491.43558899 587.52367004 492.72400696 587.46589661 494.0514679 C587.31232946 497.45348823 587.1345406 500.85356958 586.93907166 504.25343323 C586.8246216 506.24944455 586.71833192 508.24591833 586.61213684 510.24238586 C586.53100647 511.47166809 586.4498761 512.70095032 586.36628723 513.96748352 C586.29820862 515.06334778 586.23013 516.15921204 586.1599884 517.2882843 C585.58434496 520.42791391 584.92424108 521.9340233 582.63581848 524.14717102 C578.94831848 524.39717102 578.94831848 524.39717102 575.63581848 524.14717102 C575.99675598 525.1345929 576.35769348 526.12201477 576.72956848 527.13935852 C577.1984853 528.43356893 577.66722618 529.72784309 578.13581848 531.02217102 C578.49353333 531.99863586 578.49353333 531.99863586 578.85847473 532.99482727 C580.63581848 537.92060852 580.63581848 537.92060852 580.63581848 540.14717102 C581.91938232 540.13828857 583.20294617 540.12940613 584.52540588 540.12025452 C596.704094 540.03867764 608.88272568 539.97897203 621.06162643 539.93992233 C627.32084921 539.9191707 633.57984899 539.89108351 639.83894348 539.84541321 C645.89497781 539.80150809 651.95079952 539.77794088 658.0069809 539.76766205 C660.30150442 539.76035 662.59601814 539.74607512 664.89044952 539.72425079 C682.74610172 539.56137989 700.33085403 540.67663336 716.94831848 547.83467102 C718.17820496 548.34840271 718.17820496 548.34840271 719.43293762 548.87251282 C732.80235349 554.62718009 743.92903159 562.35647285 754.63581848 572.14717102 C755.43503723 572.86388977 756.23425598 573.58060852 757.05769348 574.31904602 C768.38480258 585.00348226 776.35608491 598.019624 782.63581848 612.14717102 C783.11792786 613.21322571 783.60003723 614.2792804 784.09675598 615.37763977 C792.34028988 635.08717991 792.24146773 655.18317949 792.1731205 676.14117813 C792.16284253 680.29089079 792.17242648 684.44057183 792.17866516 688.59028625 C792.18589925 695.55299839 792.17646638 702.51553964 792.15730286 709.47822571 C792.1355423 717.47577966 792.1425967 725.47292539 792.16460848 733.47046947 C792.18288454 740.39342024 792.18526179 747.31624965 792.1748538 754.2392168 C792.16868528 758.34929891 792.16759619 762.45919053 792.18099976 766.56925964 C792.29185764 805.96842078 784.14657821 837.75589303 756.38581848 866.83467102 C745.51984724 877.31532413 733.39536904 885.03101289 719.63581848 891.14717102 C718.56976379 891.6292804 717.50370911 892.11138977 716.40534973 892.60810852 C710.16652561 895.21750264 703.84872979 896.95067328 697.26081848 898.39717102 C696.53080627 898.56055969 695.80079407 898.72394836 695.04866028 898.89228821 C680.67228275 901.8203182 665.64815144 901.33812752 651.04597473 901.46357727 C649.00474681 901.48419973 646.96352265 901.50519736 644.92230225 901.52655029 C639.60094791 901.58122552 634.27955862 901.6308707 628.95814514 901.67939758 C623.50757306 901.73001609 618.05705051 901.78548953 612.60652161 901.8405304 C601.94966307 901.94744265 591.29276116 902.04903055 580.63581848 902.14717102 C580.27497665 903.12970856 580.27497665 903.12970856 579.90684509 904.13209534 C575.03881365 917.35027479 569.99844828 930.3227776 564.01863098 943.08076477 C563.55972473 944.08752258 563.10081848 945.0942804 562.62800598 946.13154602 C562.21921204 947.00520813 561.81041809 947.87887024 561.38923645 948.77900696 C560.51690078 951.52095642 560.68302342 952.47528518 561.63581848 955.14717102 C562.94743148 956.89633214 562.94743148 956.89633214 564.65168762 958.51948547 C565.60386925 959.47616875 565.60386925 959.47616875 566.57528687 960.45217896 C567.61265236 961.47102425 567.61265236 961.47102425 568.67097473 962.51045227 C569.38305588 963.22066025 570.09513702 963.93086823 570.82879639 964.66259766 C572.33934734 966.16642391 573.85349287 967.66664682 575.3709259 969.16352844 C577.67197941 971.4336856 579.96243777 973.71409116 582.25105286 975.9967804 C583.72374479 977.4602905 585.19703383 978.92320005 586.67097473 980.38545227 C587.34838211 981.05860977 588.02578949 981.73176727 588.72372437 982.42532349 C592.6304743 986.27493084 596.64412947 989.94389841 600.79281616 993.53076172 C604.89700526 997.13034994 608.71336666 1001.03878696 612.5716095 1004.8976593 C614.06223464 1006.38610339 615.56068865 1007.86634379 617.05964661 1009.34638977 C642.65974704 1034.79319145 658.4407399 1065.34757856 658.94831848 1101.89717102 C658.75836647 1147.25673821 634.26869787 1176.6554976 603.74204564 1207.2411325 C602.28194473 1208.70419826 600.82241828 1210.16783487 599.36305046 1211.63163185 C594.77241409 1216.23587131 590.1798333 1220.83815774 585.58433729 1225.43754691 C580.32310515 1230.70326466 575.06849584 1235.97547574 569.81949717 1241.25338763 C565.72851446 1245.36610399 561.63167099 1249.47292342 557.5304727 1253.57545263 C555.09533677 1256.01162676 552.66259141 1258.45006853 550.23599434 1260.8947506 C530.81850324 1280.43553415 530.81850324 1280.43553415 520.63581848 1287.14717102 C519.98078842 1287.57960114 519.32575836 1288.01203125 518.65087891 1288.45756531 C506.30203531 1296.24090858 492.81244466 1301.74608885 478.63581848 1305.14717102 C477.69351379 1305.37404602 476.75120911 1305.60092102 475.78034973 1305.83467102 C458.73185715 1309.1477384 439.42746541 1308.59488592 422.63581848 1304.14717102 C421.92586731 1303.95912903 421.21591614 1303.77108704 420.48445129 1303.5773468 C411.53566383 1301.09858395 403.14903073 1297.6867185 394.88581848 1293.45967102 C394.16668274 1293.09865295 393.447547 1292.73763489 392.70661926 1292.36567688 C378.28328119 1284.64038841 366.77715349 1272.70861648 355.39363098 1261.19795227 C353.88972635 1259.68843643 352.38514615 1258.17959337 350.87992859 1256.67138672 C346.96399079 1252.74412014 343.05715555 1248.80792378 339.15229797 1244.86964417 C335.1484733 1240.83485734 331.13589655 1236.80879405 327.12409973 1232.78193665 C319.28619727 1224.91208185 311.45790584 1217.03274296 303.63581848 1209.14717102 C298.24515491 1211.28947847 292.86438393 1213.4432569 287.53425598 1215.73310852 C286.46562317 1216.18943665 285.39699036 1216.64576477 284.29597473 1217.11592102 C282.12850405 1218.04373249 279.96181874 1218.97338112 277.79597473 1219.90498352 C271.64691851 1222.52661707 265.46938043 1224.99582143 259.20466614 1227.32539368 C258.10666435 1227.73535332 258.10666435 1227.73535332 256.98648071 1228.15359497 C255.20332746 1228.81919512 253.41962987 1229.48333669 251.63581848 1230.14717102 C251.62995224 1231.37253571 251.624086 1232.59790039 251.61804199 1233.86039734 C251.56051062 1245.48066948 251.48759381 1257.10075992 251.40010357 1268.72084618 C251.35561896 1274.69301852 251.31631612 1280.66512607 251.28938293 1286.6374054 C251.26312944 1292.41473969 251.22257587 1298.19182164 251.17263222 1303.96899796 C251.15611112 1306.15904699 251.14450599 1308.34913951 251.13820457 1310.53924179 C251.0850663 1327.33002817 250.11615114 1343.64005203 244.57331848 1359.64717102 C244.2773175 1360.51390442 243.98131653 1361.38063782 243.67634583 1362.27363586 C238.72756994 1376.10146865 231.43074019 1388.23796465 221.63581848 1399.14717102 C221.02609192 1399.89869446 220.41636536 1400.6502179 219.78816223 1401.42451477 C201.88350518 1423.05455694 173.08477431 1436.45781505 145.63581848 1440.14717102 C140.6693619 1440.43073196 135.70838199 1440.44179508 130.73542786 1440.43769836 C129.26711185 1440.44369657 127.79879897 1440.45050504 126.33049011 1440.45805359 C122.37129718 1440.47559544 118.41219092 1440.48040411 114.45296288 1440.48168516 C111.96874487 1440.48311475 109.48454833 1440.48739963 107.00033569 1440.4926796 C98.30296959 1440.51114513 89.60566447 1440.51935512 80.90827942 1440.51777649 C72.85184351 1440.51657801 64.79567675 1440.53763152 56.73930883 1440.56926382 C49.78257179 1440.59558695 42.82592173 1440.60613703 35.86913538 1440.60486567 C31.73207769 1440.60436046 27.59525921 1440.60979474 23.45825195 1440.63122177 C-11.71027696 1440.8006275 -41.76304876 1435.13007503 -69.36418152 1412.14717102 C-70.23687683 1411.43947571 -71.10957214 1410.7317804 -72.00871277 1410.00263977 C-94.77090595 1390.68166005 -108.78743856 1360.60946842 -111.36418152 1331.14717102 C-111.764952 1323.33519379 -111.73669164 1315.50646712 -111.77824402 1307.68623352 C-111.79698779 1305.44179091 -111.8165635 1303.19735511 -111.83692932 1300.95292664 C-111.88791778 1295.09069359 -111.92772017 1289.22843779 -111.96507263 1283.36610413 C-112.00532272 1277.36598738 -112.05631847 1271.3659626 -112.10636902 1265.36592102 C-112.2027334 1253.6264026 -112.28726263 1241.88683185 -112.36418152 1230.14717102 C-113.30591721 1229.77856461 -114.24765289 1229.40995819 -115.21792603 1229.03018188 C-118.76464386 1227.6413159 -122.31027988 1226.2497056 -125.85562134 1224.85733032 C-127.38029814 1224.25896368 -128.90525423 1223.66130812 -130.43051147 1223.06442261 C-141.54479685 1218.71426372 -152.54081272 1214.18589826 -163.36418152 1209.14717102 C-168.0760278 1213.07529691 -172.51378379 1217.16970272 -176.81169128 1221.54463196 C-177.71583519 1222.45819458 -177.71583519 1222.45819458 -178.63824463 1223.39021301 C-179.93618879 1224.70191323 -181.23304936 1226.0146864 -182.52891731 1227.32843781 C-184.59227973 1229.41871662 -186.66022362 1231.50435845 -188.72964478 1233.58863831 C-194.60998967 1239.51143832 -200.48778635 1245.4366788 -206.34880066 1251.37861633 C-209.94660006 1255.02541388 -213.55449677 1258.6619643 -217.16882133 1262.29238129 C-218.53142953 1263.66477633 -219.89040573 1265.04078888 -221.24537849 1266.42072296 C-232.16952847 1277.541519 -243.56917316 1287.16747259 -257.48918152 1294.39717102 C-258.27631531 1294.80773743 -259.0634491 1295.21830383 -259.87443542 1295.64131165 C-268.66906695 1300.04990925 -277.82709315 1302.83841886 -287.36418152 1305.14717102 C-288.43152527 1305.4127179 -289.49886902 1305.67826477 -290.59855652 1305.95185852 C-322.20991989 1312.18869508 -354.68822334 1304.25183295 -381.45011902 1287.17842102 C-396.40588236 1276.72224264 -409.00202886 1262.70169444 -421.87199402 1249.87763977 C-422.85120268 1248.9024918 -423.83043956 1247.92737217 -424.80970383 1246.95228004 C-429.40941167 1242.37152459 -434.00676899 1237.78842621 -438.60120881 1233.20238703 C-443.85684147 1227.95653154 -449.12066759 1222.71907996 -454.39154923 1217.4885475 C-458.50095669 1213.40949649 -462.60247066 1209.32261181 -466.69837463 1205.23000222 C-469.12939405 1202.80130806 -471.56345072 1200.37587855 -474.00603104 1197.95880699 C-486.48913782 1185.5882747 -498.08583531 1173.49302638 -506.17668152 1157.70967102 C-506.72703064 1156.6494574 -506.72703064 1156.6494574 -507.28849792 1155.56782532 C-512.94167532 1144.36282231 -516.15513868 1132.47455696 -518.36418152 1120.14717102 C-518.49695496 1119.40724915 -518.62972839 1118.66732727 -518.76652527 1117.90498352 C-523.09133957 1087.45355135 -514.58407605 1055.16543405 -496.53752136 1030.4132843 C-490.73850292 1022.79019155 -484.07403538 1015.9629485 -477.36418152 1009.14717102 C-476.90154907 1008.67700562 -476.43891663 1008.20684021 -475.96226501 1007.72242737 C-472.2950903 1003.99851359 -468.61457671 1000.28805861 -464.92668152 996.58467102 C-464.1553891 995.80908844 -464.1553891 995.80908844 -463.36851501 995.01783752 C-458.22921674 989.85842457 -453.05905499 984.80189894 -447.52848816 980.05805969 C-443.02935154 976.08572553 -438.73434485 971.89771608 -434.451828 967.69477844 C-433.34255798 966.61242368 -432.22618784 965.53730267 -431.10319519 964.4691925 C-429.46351859 962.90833053 -427.84774657 961.325907 -426.23527527 959.73701477 C-425.73023972 959.26497116 -425.22520416 958.79292755 -424.7048645 958.30657959 C-423.11581569 956.78470404 -423.11581569 956.78470404 -421.36418152 954.14717102 C-421.45743693 950.20563852 -422.63207911 947.1118332 -424.33293152 943.59248352 C-424.74027527 942.72752258 -425.14761902 941.86256165 -425.56730652 940.97138977 C-426.39858286 939.24123329 -427.23174581 937.51198123 -428.06730652 935.78388977 C-433.20470513 924.85898965 -437.20316247 913.47036043 -441.36418152 902.14717102 C-442.47013168 902.13908417 -443.57608185 902.13099731 -444.71554565 902.12266541 C-455.23114173 902.04456643 -465.74661845 901.95667753 -476.2620573 901.85964394 C-481.66578384 901.81008257 -487.06949452 901.76375552 -492.47331238 901.72529602 C-497.70597207 901.68792771 -502.93848416 901.64144251 -508.17101479 901.58910751 C-510.14925817 901.5708329 -512.12753284 901.5556303 -514.10582542 901.54382706 C-524.32194666 901.48079836 -534.45954487 901.19506961 -544.6368866 900.25801086 C-545.47084552 900.18269449 -546.30480444 900.10737812 -547.16403484 900.02977943 C-577.64676316 896.94049844 -606.15023908 880.96770675 -625.74015808 857.49873352 C-633.05428706 848.40030079 -638.63072688 838.79604684 -643.36418152 828.14717102 C-644.08734558 826.54808899 -644.08734558 826.54808899 -644.82511902 824.91670227 C-653.06865292 805.20716213 -652.96983077 785.11116256 -652.90148354 764.15316391 C-652.89120557 760.00345125 -652.90078952 755.85377021 -652.9070282 751.70405579 C-652.91426228 744.74134365 -652.90482941 737.7788024 -652.88566589 730.81611633 C-652.86390533 722.81856238 -652.87095974 714.82141665 -652.89297152 706.82387257 C-652.91124758 699.9009218 -652.91362482 692.97809239 -652.90321684 686.05512524 C-652.89704832 681.94504313 -652.89595923 677.83515151 -652.90936279 673.7250824 C-653.02022068 634.32592126 -644.87494124 602.53844901 -617.11418152 573.45967102 C-606.24395435 562.9749129 -594.12178665 555.27694038 -580.36418152 549.14717102 C-579.30972839 548.66506165 -578.25527527 548.18295227 -577.16886902 547.68623352 C-559.46217547 540.21409941 -541.15910401 539.57643359 -522.22355652 539.75654602 C-519.87560005 539.76402835 -517.52763725 539.76971182 -515.17967224 539.7736969 C-509.07070446 539.78879656 -502.96213156 539.82793905 -496.85331726 539.87251282 C-490.59136798 539.91380803 -484.32935341 539.93178027 -478.06730652 539.95185852 C-465.83276028 539.99445194 -453.59850404 540.06250775 -441.36418152 540.14717102 C-441.16093136 539.46214571 -440.9576812 538.7771204 -440.74827194 538.07133675 C-440.48018848 537.17187262 -440.21210503 536.27240849 -439.93589783 535.34568787 C-439.53821009 534.0087749 -439.53821009 534.0087749 -439.13248825 532.64485359 C-438.25569189 529.7944829 -437.2410463 527.03147537 -436.12980652 524.26435852 C-435.72351013 523.2494635 -435.31721375 522.23456848 -434.89860535 521.18891907 C-434.47474548 520.14389221 -434.05088562 519.09886536 -433.61418152 518.02217102 C-433.1767865 516.93138245 -432.73939148 515.84059387 -432.28874207 514.7167511 C-429.45845242 507.70237495 -426.52878015 500.74008394 -423.25773621 493.91816711 C-421.7762479 490.7441372 -421.7762479 490.7441372 -421.4662323 487.30976868 C-422.80841144 484.07729919 -425.18586306 481.93848563 -427.64933777 479.53388977 C-428.45110695 478.73493034 -428.45110695 478.73493034 -429.26907349 477.91983032 C-430.40299775 476.79262464 -431.54051222 475.66902074 -432.68132019 474.54878235 C-434.40292539 472.8580018 -436.11394539 471.15710164 -437.82316589 469.45381165 C-438.93127702 468.35488606 -440.0399834 467.25656031 -441.14933777 466.15888977 C-441.90296349 465.41163887 -441.90296349 465.41163887 -442.67181396 464.64929199 C-445.46974811 461.90547902 -448.33628323 459.27853517 -451.29972839 456.71382141 C-455.22220372 453.309646 -458.93536403 449.73723729 -462.61027527 446.06904602 C-463.26568802 445.41696167 -463.92110077 444.76487732 -464.59637451 444.09303284 C-465.97153198 442.72289863 -467.34537407 441.35144304 -468.71794128 439.97871399 C-470.78797367 437.91086441 -472.86587825 435.85115577 -474.94425964 433.79170227 C-501.65564678 407.19656121 -519.14165176 376.92346091 -519.67668152 338.39717102 C-519.5148025 299.74129132 -501.79371229 270.45277145 -475.17936707 243.80122375 C-474.30975342 242.9266452 -473.44013977 242.05206665 -472.54417419 241.15098572 C-470.18852143 238.78335257 -467.83067575 236.41795581 -465.47126746 234.05406833 C-463.99006769 232.56991056 -462.50944537 231.08517895 -461.02898598 229.60028267 C-456.37534726 224.93302297 -451.71974998 220.26773038 -447.06123894 215.60533375 C-441.72244395 210.26205803 -436.39025834 204.91230089 -431.06371659 199.5568108 C-426.91757307 195.38893344 -422.76556843 191.22695291 -418.60920936 187.06926304 C-416.13939172 184.59840659 -413.67196972 182.12527564 -411.21068382 179.64591789 C-391.53930836 159.83823366 -391.53930836 159.83823366 -381.36418152 153.14717102 C-380.70952408 152.71511353 -380.05486664 152.28305603 -379.38037109 151.83790588 C-367.03284944 144.05246437 -353.5404776 138.548174 -339.36418152 135.14717102 C-338.42187683 134.92029602 -337.47957214 134.69342102 -336.50871277 134.45967102 C-319.46022019 131.14660364 -300.15582845 131.69945612 -283.36418152 136.14717102 C-282.65423035 136.33521301 -281.94427917 136.523255 -281.21281433 136.71699524 C-272.26402687 139.1957581 -263.87739377 142.60762354 -255.61418152 146.83467102 C-254.89504578 147.19568909 -254.17591003 147.55670715 -253.4349823 147.92866516 C-239.01164422 155.65395363 -227.50551653 167.58572556 -216.12199402 179.09638977 C-214.61808939 180.60590561 -213.11350919 182.11474867 -211.60829163 183.62295532 C-207.69235382 187.55022191 -203.78551859 191.48641826 -199.88066101 195.42469788 C-195.87683634 199.4594847 -191.86425959 203.48554799 -187.85246277 207.5124054 C-180.0145603 215.38226019 -172.18626888 223.26159908 -164.36418152 231.14717102 C-158.97351795 229.00486357 -153.59274696 226.85108514 -148.26261902 224.56123352 C-147.19398621 224.1049054 -146.12535339 223.64857727 -145.02433777 223.17842102 C-142.85686708 222.25060955 -140.69018177 221.32096092 -138.52433777 220.38935852 C-132.37528155 217.76772497 -126.19774347 215.29852061 -119.93302917 212.96894836 C-119.20102798 212.69564194 -118.46902679 212.42233551 -117.71484375 212.14074707 C-115.93169049 211.47514692 -114.14799291 210.81100535 -112.36418152 210.14717102 C-112.35831528 208.92180634 -112.35244904 207.69644165 -112.34640503 206.4339447 C-112.28887366 194.81367256 -112.21595685 183.19358212 -112.12846661 171.57349586 C-112.08398199 165.60132352 -112.04467916 159.62921598 -112.01774597 153.65693665 C-111.99149248 147.87960235 -111.9509389 142.10252041 -111.90099525 136.32534409 C-111.88447416 134.13529506 -111.87286902 131.94520253 -111.86656761 129.75510025 C-111.81537135 113.57795781 -111.17461182 97.42406529 -105.67668152 82.02217102 C-105.29431335 80.92243958 -105.29431335 80.92243958 -104.90422058 79.80049133 C-93.76472506 48.85744821 -71.49005384 24.4482826 -41.72062683 10.35762024 C-28.87532666 4.53640116 -14.17418839 0.05553642 0 0 Z M9.63581848 121.14717102 C9.59714661 136.6217218 9.59714661 136.6217218 9.55769348 152.40888977 C9.53251705 158.9577367 9.50633985 165.5065545 9.47566223 172.05537415 C9.42719094 182.44217199 9.38272035 192.82887298 9.36482239 203.21577454 C9.3517659 210.78203358 9.32470002 218.34809461 9.28120542 225.91424209 C9.25867991 229.91597668 9.2429024 233.91746786 9.24393463 237.91927147 C9.24468657 241.69592667 9.22652494 245.47204562 9.19465065 249.24856186 C9.1822426 251.27494334 9.18917387 253.30141532 9.19696045 255.32781982 C9.01105445 271.86921492 3.29643295 285.92626811 -8.07902527 297.92842102 C-17.92020566 307.48361839 -29.34076657 311.71083814 -42.36418152 315.39717102 C-45.04749179 316.17842625 -47.72762952 316.97021343 -50.40715027 317.76435852 C-51.07892807 317.96312592 -51.75070587 318.16189331 -52.44284058 318.36668396 C-83.73425281 327.67429094 -113.87615603 340.74445361 -142.11418152 357.14717102 C-157.36210948 365.99742133 -174.08247495 368.75861188 -191.23918152 364.52217102 C-207.88265079 359.46748776 -218.2627547 348.41207655 -230.12443542 336.35102844 C-230.81456726 335.65211487 -231.5046991 334.95320129 -232.21574402 334.23310852 C-232.82240906 333.61484192 -233.4290741 332.99657532 -234.05412292 332.35957336 C-236.01193681 330.48452481 -238.00825453 328.71623709 -240.06166077 326.94869995 C-244.03476029 323.47969933 -247.79715009 319.84974303 -251.51457214 316.11030579 C-252.17898315 315.4460408 -252.84339417 314.78177582 -253.52793884 314.09738159 C-255.69448573 311.93014542 -257.85748214 309.75940331 -260.02043152 307.58857727 C-261.53335508 306.07378602 -263.04650151 304.55921734 -264.55986023 303.04486084 C-268.52070126 299.08022222 -272.47852854 295.11258851 -276.43571472 291.14430237 C-280.48295491 287.08678845 -284.53306717 283.03214356 -288.58293152 278.97724915 C-296.51281264 271.03667941 -304.43950973 263.09293942 -312.36418152 255.14717102 C-315.44096832 256.51924859 -317.54698794 258.08209796 -319.92027283 260.4627533 C-320.60731796 261.1470491 -321.2943631 261.83134491 -322.00222778 262.53637695 C-322.7452565 263.28659622 -323.48828522 264.03681549 -324.25382996 264.80976868 C-325.04445328 265.60009995 -325.8350766 266.39043121 -326.6496582 267.20471191 C-329.26239261 269.81883993 -331.86797105 272.43998146 -334.47355652 275.06123352 C-336.28344344 276.87485045 -338.09377235 278.68802639 -339.90452576 280.5007782 C-344.18280223 284.78591136 -348.45659453 289.07546753 -352.72824788 293.3671993 C-357.5924917 298.25380881 -362.46242538 303.13473092 -367.3328433 308.01518559 C-377.34962951 318.05286891 -387.35925573 328.09766695 -397.36418152 338.14717102 C-393.95622734 342.1893351 -390.51008864 346.12666105 -386.7709198 349.86982727 C-385.48896225 351.15651306 -385.48896225 351.15651306 -384.18110657 352.4691925 C-383.27472443 353.37355042 -382.36834229 354.27790833 -381.43449402 355.20967102 C-380.47559813 356.16924246 -379.51685056 357.12896213 -378.5582428 358.08882141 C-376.55783733 360.09069278 -374.55565658 362.09076641 -372.5521698 364.08955383 C-370.00500505 366.63102977 -367.46234729 369.17695982 -364.92102242 371.72427368 C-362.94438098 373.70455744 -360.9653284 375.68241786 -358.98557663 377.65959167 C-357.597424 379.04676772 -356.21125834 380.43593124 -354.82514954 381.82514954 C-350.45505833 386.17924058 -346.02537677 390.37383196 -341.34806824 394.39457703 C-337.51710878 397.77890158 -333.92097062 401.40675249 -330.29777527 405.01045227 C-329.46005081 405.84247665 -328.62232635 406.67450104 -327.75921631 407.53173828 C-325.9989541 409.28260865 -324.24009912 411.03489484 -322.48258972 412.78852844 C-319.81285354 415.4485397 -317.13262699 418.09767765 -314.45207214 420.7467804 C-312.73331353 422.4590091 -311.01519325 424.17187887 -309.29777527 425.88545227 C-308.50592331 426.66495743 -307.71407135 427.44446259 -306.89822388 428.24758911 C-293.77295168 441.42507121 -285.18016858 457.16796398 -284.98918152 476.08467102 C-285.21650911 492.83772598 -291.99221538 505.41177708 -299.98869324 519.61274719 C-316.63999475 549.19952873 -328.12557081 580.64962073 -337.85636902 613.10810852 C-342.99564316 630.21841371 -351.14960909 644.29642188 -367.36418152 653.14717102 C-375.38867305 656.74176781 -382.68389917 659.2522768 -391.50817871 659.3053894 C-392.74351852 659.31517822 -393.97885834 659.32496704 -395.25163269 659.33505249 C-396.61247215 659.34095585 -397.97331201 659.34676634 -399.33415222 659.35249329 C-400.77329791 659.36207791 -402.21244081 659.37208833 -403.65158081 659.38249207 C-407.55196896 659.40948391 -411.45236913 659.43052437 -415.3527987 659.45049405 C-419.43141884 659.47238896 -423.51000214 659.49976048 -427.58859253 659.52655029 C-435.30908671 659.57642983 -443.02960139 659.62138621 -450.7501356 659.66457266 C-461.18494594 659.72322663 -471.61970779 659.78948801 -482.05447483 659.85532284 C-498.49101104 659.95882338 -514.92758895 660.05216181 -531.36418152 660.14717102 C-531.36418152 699.74717102 -531.36418152 739.34717102 -531.36418152 780.14717102 C-520.97562683 780.17295227 -510.58707214 780.19873352 -499.88371277 780.22529602 C-493.28929305 780.25047226 -486.69490227 780.2766493 -480.10050964 780.30732727 C-469.64128339 780.35579978 -459.18215335 780.4002699 -448.7228241 780.41816711 C-441.10382804 780.43122301 -433.48502866 780.45828744 -425.86614341 780.50178409 C-421.83646353 780.52431089 -417.80702542 780.54008702 -413.77727699 780.53905487 C-409.97435848 780.53830301 -406.17197262 780.55646161 -402.36919212 780.58833885 C-400.32849701 780.60074874 -398.28771201 780.59381502 -396.24699402 780.58602905 C-379.36695913 780.7744602 -365.14446318 786.48248944 -353.12980652 798.26045227 C-342.80536981 809.03694764 -339.07229944 821.50910224 -335.05168152 835.52217102 C-324.99124208 870.54619682 -310.79428976 904.08314045 -291.91203308 935.29951477 C-284.55594945 948.83285223 -283.32855741 965.01162981 -286.92668152 979.83467102 C-293.5086486 1001.53921992 -310.76200717 1015.71141226 -326.34709167 1031.26045227 C-329.12608825 1034.03405464 -331.89965434 1036.81300783 -334.67277527 1039.59248352 C-336.46021489 1041.37926283 -338.24796442 1043.16573217 -340.03605652 1044.95185852 C-341.26289154 1046.18172989 -341.26289154 1046.18172989 -342.51451111 1047.43644714 C-346.03984956 1050.94756649 -349.57922525 1054.38643331 -353.35148621 1057.63227844 C-358.09642525 1061.71897024 -362.482982 1066.14099729 -366.89543152 1070.58076477 C-367.77195374 1071.45870193 -368.64847595 1072.3366391 -369.55155945 1073.24118042 C-372.32480948 1076.01998599 -375.09454434 1078.80226499 -377.86418152 1081.58467102 C-379.75428957 1083.48036967 -381.6451967 1085.37526885 -383.53605652 1087.2702179 C-388.14809156 1091.89322291 -392.75725293 1096.51907759 -397.36418152 1101.14717102 C-393.00722253 1106.35781024 -388.42831992 1111.22133683 -383.6146698 1116.01020813 C-382.86276871 1116.76225525 -382.11086761 1117.51430237 -381.33618164 1118.28913879 C-378.87131752 1120.75331098 -376.40293941 1123.21393053 -373.93449402 1125.67451477 C-372.21649177 1127.39065029 -370.4987114 1129.10700796 -368.78114319 1130.82357788 C-364.27561291 1135.3253031 -359.76708681 1139.82401619 -355.25791931 1144.32209778 C-350.6508935 1148.91886612 -346.04672239 1153.51849179 -341.44230652 1158.11787415 C-332.41904849 1167.13043034 -323.39271804 1176.13990284 -314.36418152 1185.14717102 C-311.58545489 1183.87761315 -309.54392223 1182.5747702 -307.39341736 1180.41018677 C-306.83573166 1179.85380524 -306.27804596 1179.29742371 -305.70346069 1178.72418213 C-305.10391068 1178.11587051 -304.50436066 1177.5075589 -303.88664246 1176.8808136 C-303.24541946 1176.23827637 -302.60419647 1175.59573914 -301.94354248 1174.93373108 C-299.82391533 1172.80761177 -297.71135367 1170.67460702 -295.59855652 1168.54170227 C-294.12179278 1167.05866473 -292.64451044 1165.57614343 -291.16673279 1164.09411621 C-287.27262433 1160.18669742 -283.38411095 1156.27376164 -279.49717712 1152.35920715 C-273.29153987 1146.11049617 -267.07930352 1139.86836526 -260.86363983 1133.62962914 C-258.70104416 1131.4568777 -256.54193623 1129.28070538 -254.38316345 1127.10415649 C-253.04199524 1125.75615192 -251.70071282 1124.40826097 -250.35929871 1123.0605011 C-249.76784561 1122.46231064 -249.17639252 1121.86412018 -248.5670166 1121.24780273 C-244.8940768 1117.56507866 -241.08901502 1114.09379485 -237.14143944 1110.70676613 C-234.63388273 1108.50631276 -232.34125199 1106.13078697 -230.04386902 1103.71357727 C-229.08632299 1102.72388264 -228.12796294 1101.73497506 -227.16886902 1100.7467804 C-225.70706612 1099.23603973 -224.25046262 1097.72162353 -222.80754089 1096.19282532 C-209.5631071 1082.19874933 -194.40400815 1074.30466256 -174.86418152 1073.64717102 C-160.32990688 1074.14992895 -149.0387016 1078.82833279 -136.5912323 1085.89424133 C-105.41394455 1103.43445628 -72.64522019 1116.55492387 -38.19132996 1126.1698761 C-21.18355955 1130.95743539 -7.84366264 1138.97880064 1.24128723 1154.51826477 C7.29940911 1165.93875783 8.93551385 1175.56921874 8.95466614 1188.4577179 C8.96397691 1189.89730892 8.97414728 1191.33689459 8.98510742 1192.776474 C9.01229206 1196.66429474 9.0275224 1200.55207948 9.04053545 1204.43997002 C9.05621675 1208.51058431 9.08299092 1212.58112564 9.10856628 1216.65168762 C9.15526585 1224.35082493 9.19205253 1232.0499761 9.22523916 1239.74918222 C9.27068825 1250.15951504 9.33152866 1260.56975733 9.39148712 1270.9800148 C9.48547642 1287.36902138 9.55896922 1303.75805435 9.63581848 1320.14717102 C49.23581848 1320.14717102 88.83581848 1320.14717102 129.63581848 1320.14717102 C129.67449036 1304.56433899 129.67449036 1304.56433899 129.71394348 1288.66670227 C129.73911972 1282.07228256 129.76529676 1275.47789177 129.79597473 1268.88349915 C129.84444724 1258.42427289 129.88891736 1247.96514285 129.90681458 1237.5058136 C129.91987048 1229.88681754 129.9469349 1222.26801816 129.99043155 1214.64913291 C130.01295835 1210.61945303 130.02873448 1206.59001492 130.02770233 1202.56026649 C130.02695047 1198.75734798 130.04510907 1194.95496212 130.07698631 1191.15218163 C130.0893962 1189.11148651 130.08246248 1187.07070151 130.07467651 1185.02998352 C130.25966016 1168.4587826 135.95187806 1154.39268496 147.35066223 1142.36592102 C157.19184263 1132.81072365 168.61240353 1128.5835039 181.63581848 1124.89717102 C184.31912875 1124.11591579 186.99926648 1123.32412861 189.67878723 1122.52998352 C190.68645393 1122.23183243 190.68645393 1122.23183243 191.71447754 1121.92765808 C223.00650463 1112.61986822 253.14652101 1099.54862663 281.38581848 1083.14717102 C297.19857572 1073.97959668 314.25504795 1071.61696619 331.92097473 1076.31318665 C348.33285425 1081.10132831 359.12373792 1093.48173076 370.76081848 1105.27217102 C372.82284425 1107.36118497 374.88844917 1109.4465693 376.95613098 1111.52998352 C378.30602112 1112.897276 378.30602112 1112.897276 379.68318176 1114.29219055 C381.74956105 1116.3361418 383.89434699 1118.23874225 386.10798645 1120.12153625 C392.64873809 1125.79473635 398.65455057 1132.04337519 404.76081848 1138.17451477 C406.11680007 1139.5323645 407.47300488 1140.88999135 408.829422 1142.24740601 C412.37597908 1145.79775701 415.91952109 1149.35110219 419.4624176 1152.90510559 C423.08739208 1156.5403618 426.71524597 1160.17274201 430.34284973 1163.80537415 C437.44330749 1170.91651404 444.54057945 1178.03082432 451.63581848 1185.14717102 C454.71260529 1183.77509345 456.8186249 1182.21224408 459.19190979 1179.83158875 C459.87895493 1179.14729294 460.56600006 1178.46299713 461.27386475 1177.75796509 C462.01689346 1177.00774582 462.75992218 1176.25752655 463.52546692 1175.48457336 C464.31609024 1174.6942421 465.10671356 1173.90391083 465.92129517 1173.08963013 C468.53402958 1170.47550212 471.13960802 1167.85436059 473.74519348 1165.23310852 C475.5550804 1163.41949159 477.36540931 1161.60631565 479.17616272 1159.79356384 C483.45443919 1155.50843068 487.72823149 1151.21887451 491.99988484 1146.92714274 C496.86412866 1142.04053323 501.73406234 1137.15961112 506.60448027 1132.27915645 C516.62126647 1122.24147313 526.63089269 1112.19667509 536.63581848 1102.14717102 C533.14555547 1098.00187089 529.59984668 1093.98562822 525.76716614 1090.14912415 C524.85246552 1089.23127136 523.93776489 1088.31341858 522.99534607 1087.36775208 C522.01365133 1086.38784785 521.03182639 1085.40807405 520.04988098 1084.42842102 C519.02372426 1083.40158894 517.99771588 1082.37460859 516.97184753 1081.3474884 C514.83020739 1079.20438156 512.6867891 1077.06307384 510.54206848 1074.92304993 C507.81330159 1072.19997241 505.08904039 1069.47243852 502.36611366 1066.74352264 C500.25050162 1064.6242709 498.13248126 1062.50743889 496.01375961 1060.39129639 C495.00925491 1059.38745193 494.00547343 1058.38288316 493.00247574 1057.37753296 C487.98914432 1052.35502424 482.94148944 1047.45829923 477.55635071 1042.83641052 C473.97227332 1039.68396923 470.60969612 1036.30431505 467.22566223 1032.94013977 C466.45452591 1032.17470352 465.68338959 1031.40926727 464.8888855 1030.62063599 C463.26986245 1029.01099769 461.65224063 1027.39994887 460.03596497 1025.78755188 C457.5835068 1023.34481894 455.120572 1020.91297959 452.65730286 1018.4811554 C451.07526299 1016.90564564 449.49386148 1015.32949456 447.91316223 1013.75263977 C447.18693161 1013.03875595 446.46070099 1012.32487213 445.71246338 1011.58935547 C432.77879803 998.59979239 424.4485433 982.80326209 424.26081848 964.20967102 C424.48814607 947.45661606 431.26385234 934.88256496 439.2603302 920.68159485 C455.91163171 891.09481331 467.39720777 859.64472131 477.12800598 827.18623352 C482.18132248 810.36210912 489.80468929 796.92918889 505.63581848 788.14717102 C506.27906067 787.77205383 506.92230286 787.39693665 507.58503723 787.01045227 C517.67593995 781.50446275 527.98391089 780.70030972 539.28694153 780.71479797 C540.72697785 780.70576154 542.16700652 780.69542977 543.60702515 780.68391418 C547.48230407 780.65653851 551.35743628 780.64708639 555.23279929 780.64106011 C559.29540457 780.63162536 563.35790244 780.60541819 567.42044067 780.58105469 C575.09823455 780.53752547 582.77600742 780.50889539 590.45388681 780.4857313 C600.83973556 780.45352592 611.22545921 780.3980754 621.61121273 780.34398556 C637.95271058 780.2594856 654.29416021 780.2058448 670.63581848 780.14717102 C670.63581848 740.54717102 670.63581848 700.94717102 670.63581848 660.14717102 C660.24726379 660.12138977 649.85870911 660.09560852 639.15534973 660.06904602 C632.56093002 660.04386978 625.96653923 660.01769274 619.37214661 659.98701477 C608.91292035 659.93854226 598.45379031 659.89407214 587.99446106 659.87617493 C580.37546501 659.86311903 572.75666562 659.8360546 565.13778037 659.79255795 C561.10810049 659.77003116 557.07866238 659.75425502 553.04891396 659.75528717 C549.24599545 659.75603903 545.44360958 659.73788043 541.64082909 659.70600319 C539.60013397 659.6935933 537.55934898 659.70052702 535.51863098 659.70831299 C518.63859609 659.51988184 504.41610014 653.81185261 492.40144348 642.03388977 C482.07700678 631.2573944 478.3439364 618.7852398 474.32331848 604.77217102 C464.26287904 569.74814522 450.06592673 536.21120159 431.18367004 504.99482727 C423.82758641 491.46148981 422.60019437 475.28271223 426.19831848 460.45967102 C430.74733109 445.53078084 438.88058452 435.92709655 449.63581848 425.14717102 C450.72014285 424.05147692 451.80392518 422.95524625 452.88728333 421.8585968 C456.58774227 418.11409123 460.29687092 414.37829638 464.01081848 410.64717102 C464.62218658 410.03276154 465.23355469 409.41835205 465.8634491 408.7853241 C467.64643666 406.99654266 469.43338783 405.21182161 471.22175598 403.42842102 C471.74855453 402.89966873 472.27535309 402.37091644 472.81811523 401.82614136 C475.55766889 399.10297282 478.35498802 396.50564284 481.29060364 393.99458313 C486.99327188 389.05126407 492.25323441 383.65349635 497.57331848 378.30732727 C498.70509712 377.17367959 499.83709968 376.04025543 500.96931458 374.90704346 C503.92403859 371.94853251 506.87574502 368.98702921 509.82679749 366.02485657 C512.84853319 362.99282377 515.87316242 359.96368035 518.89753723 356.9342804 C524.81310654 351.00804135 530.72548577 345.0786326 536.63581848 339.14717102 C532.2788595 333.9365318 527.69995688 329.07300521 522.88630676 324.28413391 C522.13440567 323.53208679 521.38250458 322.78003967 520.6078186 322.00520325 C518.14295448 319.54103106 515.67457638 317.08041151 513.20613098 314.61982727 C511.48812873 312.90369175 509.77034836 311.18733408 508.05278015 309.47076416 C503.54724987 304.96903894 499.03872377 300.47032585 494.52955627 295.97224426 C489.92253047 291.37547593 485.31835935 286.77585025 480.71394348 282.1764679 C471.69068546 273.1639117 462.664355 264.1544392 453.63581848 255.14717102 C450.79709144 256.43806951 448.74608665 257.78938669 446.55116272 259.99804688 C445.67677048 260.87048286 445.67677048 260.87048286 444.78471375 261.76054382 C444.15711151 262.39690765 443.52950928 263.03327148 442.88288879 263.68891907 C442.21240509 264.36071701 441.54192139 265.03251495 440.85112 265.72467041 C438.63409845 267.94818568 436.42413772 270.17858978 434.21394348 272.40888977 C432.66991874 273.95918788 431.12537574 275.50896998 429.58033752 277.05825806 C425.50867942 281.14322803 421.44261463 285.23371666 417.37812805 289.32582092 C410.88823295 295.85878703 404.39173697 302.38517054 397.89182281 308.90816689 C395.62951445 311.18063657 393.37068911 313.45652556 391.11219788 315.73278809 C389.71036043 317.14146134 388.30840907 318.55002125 386.90632629 319.95845032 C385.97706833 320.89781433 385.97706833 320.89781433 385.02903748 321.8561554 C381.28001053 325.61474505 377.40537157 329.16674413 373.37650108 332.62415123 C371.110311 334.60696668 369.0358834 336.7335849 366.97175598 338.92451477 C351.49340104 355.07853678 337.11518283 365.8739432 314.13581848 366.64717102 C299.60154384 366.14441309 288.31033856 361.46600925 275.86286926 354.40010071 C245.14081854 337.11600026 212.8891519 324.13811279 178.97566223 314.52998352 C161.18469346 309.47477636 147.32048733 301.65063733 137.63581848 285.14717102 C131.76318829 273.96418374 130.3356884 264.43620193 130.31697083 251.92842102 C130.3076599 250.49868205 130.29748951 249.06894847 130.28652954 247.63922119 C130.25934663 243.77825917 130.24411508 239.9173334 130.23110151 236.05630112 C130.21541945 232.01371376 130.18864553 227.97119986 130.16307068 223.92866516 C130.11637245 216.28265199 130.07958513 208.63662486 130.04639781 200.99054241 C130.00094748 190.65196002 129.94010756 180.31346877 129.88014984 169.97496223 C129.78616259 153.69907763 129.71266836 137.42316646 129.63581848 121.14717102 C90.03581848 121.14717102 50.43581848 121.14717102 9.63581848 121.14717102 Z M567.69831848 477.27217102 C566.90618958 478.0327179 566.11406067 478.79326477 565.29792786 479.57685852 C561.0439104 483.64238535 561.0439104 483.64238535 559.32722473 489.01435852 C559.75906067 490.04818665 560.19089661 491.08201477 560.63581848 492.14717102 C560.96686584 492.94783997 561.29791321 493.74850891 561.63899231 494.57344055 C562.86978745 497.46206745 564.17952322 500.30355452 565.51081848 503.14717102 C565.95812317 504.11912415 566.40542786 505.09107727 566.86628723 506.09248352 C569.04813716 510.81660696 571.2711465 515.51178753 573.63581848 520.14717102 C576.55234022 520.31398211 576.55234022 520.31398211 579.63581848 520.14717102 C582.3351737 517.44781581 582.02378737 515.80191057 582.26863098 512.02217102 C582.39467712 510.13727966 582.39467712 510.13727966 582.52326965 508.21430969 C582.60315755 506.85863816 582.68232783 505.50292417 582.76081848 504.14717102 C582.84579068 502.77908398 582.93083312 501.4110013 583.01594543 500.04292297 C583.47059137 492.47702703 583.8153349 484.91588437 583.82331848 477.33467102 C583.82452698 476.23542297 583.82452698 476.23542297 583.82575989 475.1139679 C584.05489144 471.84821504 584.05489144 471.84821504 582.63581848 469.14717102 C575.27074096 468.40377039 572.54202885 472.31012232 567.69831848 477.27217102 Z " fill="#080404" transform="translate(881.3641815185547,239.8528289794922)"/>
<path d="M0 0 C1.02829422 -0.00705963 2.05658844 -0.01411926 3.11604309 -0.02139282 C45.86487415 -0.2482968 45.86487415 -0.2482968 63.96484375 3.203125 C65.06763672 3.40711914 66.17042969 3.61111328 67.30664062 3.82128906 C91.49616258 8.39426693 114.45101024 15.25135801 136.96484375 25.203125 C137.84914063 25.59371094 138.7334375 25.98429688 139.64453125 26.38671875 C181.21005943 44.97540804 221.19981288 74.86503197 248.96484375 111.203125 C249.97687603 112.48775857 250.98998198 113.7715467 252.00390625 115.0546875 C281.83387743 153.07917143 301.73033278 197.43646734 310.71484375 244.890625 C310.91360107 245.93371826 311.1123584 246.97681152 311.31713867 248.05151367 C314.42004326 265.2844047 315.34312203 282.34389667 315.27734375 299.828125 C315.27460953 301.34265762 315.27460953 301.34265762 315.27182007 302.88778687 C315.22535248 318.20135498 314.66284765 333.09589649 311.96484375 348.203125 C311.71541016 349.6883667 311.71541016 349.6883667 311.4609375 351.20361328 C299.52084824 421.32952643 261.15911279 490.62653907 203.96484375 534.203125 C202.70463335 535.20174369 201.44561294 536.20186511 200.1875 537.203125 C137.07518622 586.98792684 56.22735853 607.93455537 -23.28515625 599.015625 C-53.03571701 595.35257991 -81.65402718 587.3063777 -109.03515625 575.203125 C-109.91945313 574.81253906 -110.80375 574.42195313 -111.71484375 574.01953125 C-153.28037193 555.43084196 -193.27012538 525.54121803 -221.03515625 489.203125 C-222.04718853 487.91849143 -223.06029448 486.6347033 -224.07421875 485.3515625 C-261.97795322 437.03539305 -286.92506328 374.86893564 -287.23828125 312.9453125 C-287.24534088 312.007444 -287.25240051 311.0695755 -287.25967407 310.10328674 C-287.48711647 271.01046265 -287.48711647 271.01046265 -284.03515625 252.203125 C-283.83116211 251.06214355 -283.62716797 249.92116211 -283.41699219 248.74560547 C-278.92932275 224.18753669 -272.12686886 201.03355681 -262.03515625 178.203125 C-261.64457031 177.31882812 -261.25398437 176.43453125 -260.8515625 175.5234375 C-250.30968411 151.95110615 -236.62297616 130.00854463 -220.03515625 110.203125 C-218.83826172 108.72972656 -218.83826172 108.72972656 -217.6171875 107.2265625 C-211.29916962 99.55771682 -204.47646626 92.43528799 -197.47265625 85.390625 C-196.17968628 84.08387817 -196.17968628 84.08387817 -194.8605957 82.75073242 C-188.89469255 76.81306355 -182.63517127 71.42201766 -176.03515625 66.203125 C-175.32415771 65.63279541 -174.61315918 65.06246582 -173.88061523 64.47485352 C-125.45892957 25.83229654 -62.42570565 0.28536047 0 0 Z M-28.03515625 125.203125 C-29.3197876 125.52458496 -29.3197876 125.52458496 -30.63037109 125.85253906 C-42.99418217 129.03796498 -54.57792082 133.60145356 -66.03515625 139.203125 C-66.6988623 139.52539062 -67.36256836 139.84765625 -68.04638672 140.1796875 C-77.7356356 144.94560647 -86.45838534 150.66111539 -95.03515625 157.203125 C-95.93363281 157.87601563 -96.83210938 158.54890625 -97.7578125 159.2421875 C-135.37587865 188.63307478 -159.46132006 232.21568669 -165.31640625 279.47314453 C-170.21715268 323.29106841 -158.93858372 368.42491026 -133.03515625 404.203125 C-132.28363281 405.25242187 -131.53210938 406.30171875 -130.7578125 407.3828125 C-102.60446086 445.48706183 -59.6964058 470.76601248 -13.03515625 478.203125 C-7.57593779 478.97655581 -2.2602014 479.38316051 3.25 479.44140625 C4.02005875 479.4512001 4.79011749 479.46099396 5.58351135 479.47108459 C22.72686328 479.64416926 39.24565241 479.47144002 55.96484375 475.203125 C56.82126465 474.98881836 57.67768555 474.77451172 58.56005859 474.55371094 C70.92386967 471.36828502 82.50760832 466.80479644 93.96484375 461.203125 C94.96040283 460.71972656 94.96040283 460.71972656 95.97607422 460.2265625 C105.66636269 455.46013218 114.38473825 449.74199572 122.96484375 443.203125 C123.85171875 442.54183594 124.73859375 441.88054687 125.65234375 441.19921875 C163.58906773 411.6478987 187.05351287 368.20757163 193.28173828 320.79052734 C198.16941263 277.04627913 186.81448061 231.90704331 160.96484375 196.203125 C160.21332031 195.15382813 159.46179687 194.10453125 158.6875 193.0234375 C130.07926098 154.3035193 87.18634981 129.80071907 39.96484375 122.203125 C38.88960449 122.0280542 37.81436523 121.8529834 36.70654297 121.67260742 C32.71898037 121.17227577 28.78948916 121.0069511 24.77734375 120.96484375 C24.00587006 120.9550499 23.23439636 120.94525604 22.43954468 120.93516541 C5.26549645 120.76216103 -11.28601722 120.9271645 -28.03515625 125.203125 Z " fill="#080404" transform="translate(937.03515625,659.796875)"/>
<path d="M0 0 C4.75 0.75 4.75 0.75 7 3 C7.20962875 6.11976906 7.28159542 9.12947101 7.25 12.25 C7.24395752 13.19987793 7.23791504 14.14975586 7.23168945 15.12841797 C7.12658461 23.1303998 6.78009649 31.12050984 6.30627441 39.10827637 C6.18877537 41.10334491 6.08212061 43.09904249 5.97558594 45.09472656 C5.85425293 46.9388916 5.85425293 46.9388916 5.73046875 48.8203125 C5.66239014 49.91617676 5.59431152 51.01204102 5.52416992 52.14111328 C4.95398157 55.25099012 4.18188797 56.74066848 2 59 C-0.76142303 59.52799676 -3.16365545 59.18598981 -6 59 C-6.33 57.68 -6.66 56.36 -7 55 C-4.69 54.34 -2.38 53.68 0 53 C1.79111829 29.02813363 1.79111829 29.02813363 2 5 C0.35 4.67 -1.3 4.34 -3 4 C-2.01 2.68 -1.02 1.36 0 0 Z " fill="#FEFEFE" transform="translate(1462,705)"/>
</svg>
