<?xml version="1.0" encoding="UTF-8"?>
<svg xmlns="http://www.w3.org/2000/svg" xmlns:xlink="http://www.w3.org/1999/xlink" width="100px" height="100px" viewBox="0 0 100 99" version="1.1">
<g id="surface1">
<path style=" stroke:none;fill-rule:nonzero;fill:rgb(3.137255%,1.568628%,1.568628%);fill-opacity:1;" d="M 45.015625 0.0976562 C 45.144531 0.0976562 45.144531 0.0976562 45.273438 0.0976562 C 45.371094 0.0976562 45.464844 0.0976562 45.558594 0.0976562 C 45.660156 0.0976562 45.757812 0.0976562 45.859375 0.09375 C 46.1875 0.09375 46.515625 0.09375 46.84375 0.09375 C 46.960938 0.09375 47.074219 0.09375 47.1875 0.0898438 C 47.722656 0.0898438 48.257812 0.0898438 48.792969 0.0898438 C 49.40625 0.0898438 50.019531 0.0859375 50.632812 0.0820312 C 51.109375 0.0820312 51.585938 0.0820312 52.0625 0.0820312 C 52.347656 0.0820312 52.632812 0.078125 52.914062 0.078125 C 55.320312 0.0625 57.375 0.445312 59.265625 2.011719 C 59.324219 2.0625 59.386719 2.109375 59.445312 2.160156 C 61 3.472656 61.957031 5.515625 62.132812 7.519531 C 62.160156 8.050781 62.160156 8.582031 62.164062 9.117188 C 62.164062 9.269531 62.164062 9.421875 62.167969 9.574219 C 62.171875 9.972656 62.171875 10.371094 62.175781 10.769531 C 62.179688 11.175781 62.183594 11.585938 62.183594 11.992188 C 62.191406 12.792969 62.199219 13.589844 62.203125 14.386719 C 62.265625 14.414062 62.332031 14.4375 62.398438 14.464844 C 62.640625 14.558594 62.882812 14.652344 63.125 14.746094 C 63.230469 14.789062 63.332031 14.828125 63.4375 14.871094 C 64.195312 15.164062 64.945312 15.472656 65.6875 15.816406 C 66.007812 15.546875 66.3125 15.269531 66.605469 14.972656 C 66.644531 14.929688 66.6875 14.890625 66.730469 14.847656 C 66.820312 14.757812 66.90625 14.667969 66.996094 14.578125 C 67.136719 14.4375 67.277344 14.296875 67.417969 14.152344 C 67.820312 13.75 68.222656 13.347656 68.621094 12.945312 C 68.867188 12.695312 69.113281 12.449219 69.363281 12.203125 C 69.453125 12.109375 69.546875 12.015625 69.640625 11.921875 C 70.386719 11.164062 71.164062 10.511719 72.117188 10.019531 C 72.167969 9.992188 72.222656 9.964844 72.277344 9.933594 C 72.878906 9.632812 73.503906 9.445312 74.15625 9.289062 C 74.230469 9.269531 74.300781 9.25 74.378906 9.234375 C 76.535156 8.808594 78.753906 9.347656 80.582031 10.511719 C 81.605469 11.222656 82.464844 12.175781 83.34375 13.046875 C 83.410156 13.113281 83.476562 13.179688 83.542969 13.246094 C 83.859375 13.554688 84.171875 13.867188 84.488281 14.179688 C 84.847656 14.535156 85.207031 14.894531 85.566406 15.25 C 85.847656 15.527344 86.125 15.804688 86.40625 16.082031 C 86.570312 16.246094 86.738281 16.410156 86.90625 16.578125 C 87.757812 17.417969 88.550781 18.238281 89.101562 19.3125 C 89.128906 19.359375 89.152344 19.410156 89.179688 19.457031 C 89.566406 20.21875 89.785156 21.027344 89.933594 21.867188 C 89.949219 21.941406 89.949219 21.941406 89.960938 22.019531 C 90.257812 24.089844 89.675781 26.285156 88.445312 27.96875 C 88.046875 28.488281 87.59375 28.949219 87.132812 29.414062 C 87.101562 29.445312 87.070312 29.476562 87.039062 29.511719 C 86.789062 29.765625 86.535156 30.015625 86.285156 30.269531 C 86.25 30.304688 86.214844 30.339844 86.179688 30.375 C 85.8125 30.738281 85.449219 31.097656 85.054688 31.433594 C 84.96875 31.503906 84.890625 31.582031 84.8125 31.660156 C 84.894531 31.707031 84.894531 31.707031 84.980469 31.753906 C 85.199219 31.976562 85.191406 32.082031 85.191406 32.382812 C 85.1875 32.472656 85.1875 32.472656 85.183594 32.566406 C 85.183594 32.632812 85.179688 32.695312 85.179688 32.761719 C 85.171875 32.984375 85.164062 33.203125 85.152344 33.425781 C 85.148438 33.515625 85.144531 33.601562 85.140625 33.691406 C 85.132812 33.921875 85.121094 34.152344 85.105469 34.386719 C 85.097656 34.519531 85.089844 34.65625 85.082031 34.792969 C 85.078125 34.875 85.074219 34.960938 85.066406 35.046875 C 85.0625 35.121094 85.058594 35.195312 85.054688 35.273438 C 85.011719 35.484375 84.96875 35.585938 84.8125 35.738281 C 84.558594 35.753906 84.558594 35.753906 84.335938 35.738281 C 84.359375 35.804688 84.382812 35.871094 84.410156 35.941406 C 84.441406 36.03125 84.472656 36.117188 84.503906 36.207031 C 84.527344 36.273438 84.527344 36.273438 84.554688 36.339844 C 84.675781 36.675781 84.675781 36.675781 84.675781 36.824219 C 84.761719 36.824219 84.851562 36.824219 84.941406 36.824219 C 85.773438 36.820312 86.605469 36.8125 87.4375 36.8125 C 87.863281 36.808594 88.292969 36.808594 88.71875 36.804688 C 89.132812 36.800781 89.546875 36.800781 89.960938 36.800781 C 90.117188 36.800781 90.273438 36.796875 90.429688 36.796875 C 91.648438 36.785156 92.851562 36.863281 93.988281 37.347656 C 94.070312 37.382812 94.070312 37.382812 94.15625 37.417969 C 95.070312 37.808594 95.828125 38.335938 96.5625 39 C 96.617188 39.050781 96.671875 39.097656 96.726562 39.148438 C 97.5 39.875 98.042969 40.761719 98.472656 41.722656 C 98.507812 41.792969 98.539062 41.867188 98.574219 41.941406 C 99.136719 43.28125 99.128906 44.648438 99.125 46.074219 C 99.125 46.355469 99.125 46.636719 99.125 46.917969 C 99.125 47.390625 99.125 47.867188 99.125 48.339844 C 99.121094 48.882812 99.121094 49.425781 99.125 49.972656 C 99.125 50.441406 99.125 50.914062 99.125 51.382812 C 99.125 51.664062 99.125 51.941406 99.125 52.222656 C 99.132812 54.898438 98.578125 57.0625 96.679688 59.039062 C 95.9375 59.75 95.109375 60.277344 94.171875 60.691406 C 94.097656 60.726562 94.023438 60.757812 93.949219 60.792969 C 93.523438 60.96875 93.089844 61.085938 92.640625 61.183594 C 92.59375 61.195312 92.542969 61.207031 92.492188 61.21875 C 91.507812 61.417969 90.480469 61.386719 89.484375 61.394531 C 89.34375 61.394531 89.207031 61.394531 89.066406 61.398438 C 88.703125 61.402344 88.339844 61.40625 87.976562 61.40625 C 87.605469 61.410156 87.230469 61.414062 86.859375 61.417969 C 86.132812 61.425781 85.402344 61.433594 84.675781 61.441406 C 84.652344 61.507812 84.652344 61.507812 84.625 61.574219 C 84.292969 62.472656 83.949219 63.355469 83.539062 64.222656 C 83.507812 64.292969 83.476562 64.359375 83.445312 64.429688 C 83.417969 64.488281 83.390625 64.550781 83.359375 64.609375 C 83.300781 64.796875 83.3125 64.863281 83.378906 65.042969 C 83.46875 65.164062 83.46875 65.164062 83.582031 65.273438 C 83.648438 65.339844 83.648438 65.339844 83.714844 65.402344 C 83.785156 65.472656 83.785156 65.472656 83.859375 65.542969 C 83.90625 65.59375 83.957031 65.640625 84.003906 65.691406 C 84.109375 65.792969 84.210938 65.894531 84.316406 65.996094 C 84.472656 66.152344 84.628906 66.304688 84.785156 66.460938 C 84.886719 66.5625 84.988281 66.660156 85.085938 66.757812 C 85.132812 66.804688 85.179688 66.851562 85.226562 66.898438 C 85.496094 67.160156 85.769531 67.410156 86.050781 67.652344 C 86.332031 67.898438 86.59375 68.164062 86.855469 68.425781 C 86.957031 68.527344 87.0625 68.628906 87.164062 68.730469 C 88.914062 70.460938 89.988281 72.535156 90.023438 75.023438 C 90.011719 78.105469 88.339844 80.105469 86.253906 82.183594 C 86.152344 82.285156 86.054688 82.382812 85.953125 82.484375 C 85.640625 82.796875 85.328125 83.109375 85.011719 83.421875 C 84.652344 83.78125 84.296875 84.136719 83.9375 84.496094 C 83.65625 84.777344 83.378906 85.054688 83.097656 85.335938 C 82.929688 85.5 82.765625 85.667969 82.597656 85.832031 C 81.273438 87.160156 81.273438 87.160156 80.578125 87.617188 C 80.53125 87.648438 80.488281 87.675781 80.441406 87.707031 C 79.597656 88.234375 78.675781 88.609375 77.707031 88.839844 C 77.644531 88.855469 77.578125 88.871094 77.511719 88.886719 C 76.347656 89.113281 75.03125 89.074219 73.882812 88.773438 C 73.835938 88.761719 73.785156 88.75 73.734375 88.734375 C 73.125 88.566406 72.550781 88.335938 71.988281 88.046875 C 71.9375 88.023438 71.890625 87.996094 71.839844 87.972656 C 70.855469 87.449219 70.066406 86.636719 69.289062 85.851562 C 69.1875 85.75 69.085938 85.648438 68.980469 85.546875 C 68.714844 85.277344 68.449219 85.011719 68.179688 84.742188 C 67.90625 84.46875 67.632812 84.195312 67.359375 83.921875 C 66.824219 83.386719 66.289062 82.851562 65.753906 82.3125 C 65.386719 82.460938 65.019531 82.605469 64.65625 82.761719 C 64.582031 82.792969 64.507812 82.824219 64.433594 82.855469 C 64.285156 82.917969 64.136719 82.980469 63.988281 83.046875 C 63.570312 83.222656 63.148438 83.390625 62.71875 83.550781 C 62.644531 83.578125 62.644531 83.578125 62.566406 83.605469 C 62.445312 83.652344 62.324219 83.695312 62.203125 83.742188 C 62.203125 83.824219 62.203125 83.910156 62.203125 83.996094 C 62.199219 84.785156 62.191406 85.574219 62.1875 86.363281 C 62.183594 86.769531 62.179688 87.175781 62.179688 87.582031 C 62.175781 87.976562 62.175781 88.367188 62.171875 88.761719 C 62.171875 88.910156 62.167969 89.058594 62.167969 89.207031 C 62.164062 90.351562 62.097656 91.457031 61.71875 92.546875 C 61.699219 92.605469 61.679688 92.664062 61.660156 92.726562 C 61.320312 93.667969 60.824219 94.492188 60.152344 95.234375 C 60.113281 95.285156 60.070312 95.335938 60.027344 95.386719 C 58.804688 96.859375 56.835938 97.769531 54.960938 98.019531 C 54.625 98.039062 54.285156 98.039062 53.945312 98.039062 C 53.84375 98.042969 53.742188 98.042969 53.644531 98.042969 C 53.375 98.042969 53.101562 98.042969 52.832031 98.042969 C 52.664062 98.042969 52.492188 98.042969 52.324219 98.042969 C 51.730469 98.046875 51.136719 98.046875 50.542969 98.046875 C 49.992188 98.046875 49.441406 98.046875 48.890625 98.050781 C 48.414062 98.050781 47.941406 98.050781 47.464844 98.050781 C 47.183594 98.050781 46.898438 98.050781 46.617188 98.054688 C 44.214844 98.066406 42.160156 97.679688 40.277344 96.117188 C 40.21875 96.070312 40.15625 96.019531 40.097656 95.972656 C 38.542969 94.65625 37.582031 92.613281 37.40625 90.609375 C 37.378906 90.078125 37.382812 89.546875 37.378906 89.015625 C 37.378906 88.863281 37.375 88.710938 37.375 88.554688 C 37.371094 88.15625 37.371094 87.757812 37.367188 87.359375 C 37.363281 86.953125 37.359375 86.542969 37.355469 86.136719 C 37.351562 85.339844 37.34375 84.539062 37.339844 83.742188 C 37.273438 83.71875 37.210938 83.691406 37.144531 83.667969 C 36.902344 83.570312 36.660156 83.476562 36.417969 83.382812 C 36.3125 83.339844 36.210938 83.300781 36.105469 83.261719 C 35.347656 82.964844 34.59375 82.65625 33.855469 82.3125 C 33.535156 82.582031 33.230469 82.859375 32.9375 83.15625 C 32.875 83.21875 32.875 83.21875 32.8125 83.28125 C 32.722656 83.371094 32.636719 83.460938 32.546875 83.550781 C 32.40625 83.691406 32.265625 83.835938 32.125 83.976562 C 31.722656 84.378906 31.320312 84.78125 30.917969 85.1875 C 30.675781 85.433594 30.425781 85.679688 30.179688 85.925781 C 30.085938 86.019531 29.996094 86.113281 29.902344 86.207031 C 29.15625 86.964844 28.378906 87.617188 27.425781 88.109375 C 27.371094 88.136719 27.320312 88.167969 27.261719 88.195312 C 26.664062 88.496094 26.039062 88.683594 25.386719 88.839844 C 25.3125 88.859375 25.238281 88.878906 25.164062 88.894531 C 23.003906 89.320312 20.789062 88.78125 18.960938 87.621094 C 17.9375 86.910156 17.078125 85.957031 16.199219 85.082031 C 16.132812 85.015625 16.066406 84.949219 15.996094 84.882812 C 15.683594 84.574219 15.371094 84.261719 15.054688 83.949219 C 14.695312 83.59375 14.335938 83.238281 13.976562 82.882812 C 13.695312 82.605469 13.417969 82.324219 13.136719 82.046875 C 12.96875 81.882812 12.804688 81.71875 12.636719 81.554688 C 11.785156 80.710938 10.992188 79.890625 10.441406 78.816406 C 10.402344 78.746094 10.402344 78.746094 10.363281 78.671875 C 9.976562 77.910156 9.757812 77.101562 9.605469 76.261719 C 9.597656 76.210938 9.589844 76.160156 9.578125 76.109375 C 9.285156 74.039062 9.867188 71.84375 11.097656 70.160156 C 11.496094 69.644531 11.949219 69.179688 12.40625 68.714844 C 12.4375 68.683594 12.472656 68.652344 12.503906 68.617188 C 12.753906 68.363281 13.003906 68.113281 13.257812 67.859375 C 13.308594 67.808594 13.308594 67.808594 13.363281 67.753906 C 13.714844 67.402344 14.066406 67.058594 14.445312 66.738281 C 14.753906 66.46875 15.046875 66.183594 15.339844 65.898438 C 15.414062 65.824219 15.492188 65.75 15.566406 65.675781 C 15.679688 65.570312 15.789062 65.464844 15.898438 65.355469 C 15.933594 65.324219 15.96875 65.292969 16.003906 65.257812 C 16.113281 65.15625 16.113281 65.15625 16.234375 64.976562 C 16.226562 64.707031 16.144531 64.496094 16.03125 64.257812 C 16.003906 64.199219 15.972656 64.140625 15.945312 64.078125 C 15.890625 63.960938 15.832031 63.84375 15.773438 63.726562 C 15.425781 62.984375 15.152344 62.210938 14.867188 61.441406 C 14.792969 61.4375 14.714844 61.4375 14.636719 61.4375 C 13.917969 61.433594 13.203125 61.425781 12.484375 61.421875 C 12.113281 61.417969 11.746094 61.414062 11.375 61.410156 C 11.019531 61.410156 10.660156 61.40625 10.304688 61.402344 C 10.167969 61.402344 10.035156 61.398438 9.898438 61.398438 C 9.199219 61.394531 8.507812 61.375 7.8125 61.3125 C 7.753906 61.304688 7.699219 61.300781 7.640625 61.296875 C 5.558594 61.085938 3.609375 60 2.273438 58.402344 C 1.773438 57.785156 1.390625 57.132812 1.070312 56.410156 C 1.019531 56.300781 1.019531 56.300781 0.96875 56.1875 C 0.40625 54.847656 0.414062 53.480469 0.417969 52.058594 C 0.417969 51.773438 0.417969 51.492188 0.417969 51.210938 C 0.417969 50.738281 0.417969 50.265625 0.417969 49.789062 C 0.421875 49.246094 0.417969 48.703125 0.417969 48.160156 C 0.417969 47.6875 0.417969 47.21875 0.417969 46.746094 C 0.417969 46.46875 0.417969 46.1875 0.417969 45.910156 C 0.410156 43.230469 0.964844 41.066406 2.863281 39.089844 C 3.605469 38.378906 4.433594 37.855469 5.371094 37.4375 C 5.445312 37.40625 5.515625 37.371094 5.589844 37.339844 C 6.800781 36.832031 8.050781 36.785156 9.34375 36.800781 C 9.503906 36.800781 9.664062 36.800781 9.824219 36.800781 C 10.242188 36.800781 10.660156 36.804688 11.078125 36.808594 C 11.503906 36.808594 11.933594 36.8125 12.359375 36.8125 C 13.195312 36.816406 14.03125 36.820312 14.867188 36.824219 C 14.878906 36.777344 14.894531 36.734375 14.910156 36.683594 C 14.925781 36.625 14.945312 36.5625 14.964844 36.5 C 14.992188 36.410156 14.992188 36.410156 15.019531 36.316406 C 15.078125 36.121094 15.148438 35.933594 15.222656 35.746094 C 15.253906 35.675781 15.28125 35.609375 15.308594 35.535156 C 15.335938 35.464844 15.367188 35.394531 15.394531 35.320312 C 15.425781 35.246094 15.457031 35.171875 15.488281 35.097656 C 15.679688 34.621094 15.878906 34.144531 16.105469 33.683594 C 16.203125 33.464844 16.203125 33.464844 16.226562 33.234375 C 16.132812 33.011719 15.972656 32.867188 15.804688 32.703125 C 15.75 32.648438 15.75 32.648438 15.691406 32.59375 C 15.617188 32.519531 15.539062 32.441406 15.460938 32.367188 C 15.34375 32.25 15.226562 32.136719 15.109375 32.019531 C 15.03125 31.945312 14.957031 31.871094 14.882812 31.796875 C 14.828125 31.746094 14.828125 31.746094 14.777344 31.691406 C 14.585938 31.503906 14.390625 31.328125 14.1875 31.152344 C 13.921875 30.921875 13.667969 30.679688 13.414062 30.429688 C 13.371094 30.382812 13.324219 30.339844 13.28125 30.292969 C 13.1875 30.203125 13.09375 30.109375 13 30.015625 C 12.855469 29.875 12.714844 29.734375 12.574219 29.59375 C 10.75 27.785156 9.554688 25.726562 9.519531 23.109375 C 9.527344 20.480469 10.738281 18.488281 12.558594 16.675781 C 12.617188 16.617188 12.675781 16.558594 12.738281 16.496094 C 12.898438 16.335938 13.058594 16.175781 13.21875 16.011719 C 13.320312 15.914062 13.421875 15.8125 13.523438 15.710938 C 13.839844 15.394531 14.160156 15.074219 14.476562 14.757812 C 14.84375 14.394531 15.207031 14.03125 15.570312 13.667969 C 15.855469 13.382812 16.136719 13.101562 16.421875 12.820312 C 16.589844 12.652344 16.757812 12.480469 16.925781 12.3125 C 18.269531 10.96875 18.269531 10.96875 18.964844 10.511719 C 19.011719 10.484375 19.054688 10.453125 19.101562 10.421875 C 19.945312 9.894531 20.867188 9.519531 21.835938 9.289062 C 21.898438 9.273438 21.960938 9.257812 22.027344 9.242188 C 23.195312 9.015625 24.511719 9.054688 25.660156 9.355469 C 25.707031 9.367188 25.757812 9.382812 25.804688 9.394531 C 26.417969 9.5625 26.988281 9.796875 27.554688 10.082031 C 27.605469 10.105469 27.652344 10.132812 27.703125 10.15625 C 28.6875 10.683594 29.476562 11.492188 30.253906 12.277344 C 30.355469 12.378906 30.457031 12.480469 30.558594 12.585938 C 30.828125 12.851562 31.09375 13.117188 31.363281 13.386719 C 31.636719 13.660156 31.910156 13.933594 32.183594 14.207031 C 32.71875 14.742188 33.253906 15.28125 33.789062 15.816406 C 34.15625 15.667969 34.523438 15.523438 34.886719 15.367188 C 34.960938 15.335938 35.035156 15.304688 35.109375 15.273438 C 35.257812 15.210938 35.40625 15.148438 35.550781 15.085938 C 35.972656 14.90625 36.394531 14.738281 36.824219 14.578125 C 36.871094 14.5625 36.921875 14.542969 36.972656 14.523438 C 37.097656 14.476562 37.21875 14.433594 37.339844 14.386719 C 37.339844 14.304688 37.339844 14.222656 37.339844 14.136719 C 37.34375 13.34375 37.347656 12.554688 37.355469 11.765625 C 37.359375 11.359375 37.359375 10.953125 37.363281 10.546875 C 37.363281 10.152344 37.367188 9.761719 37.371094 9.367188 C 37.371094 9.21875 37.371094 9.070312 37.375 8.921875 C 37.378906 7.820312 37.421875 6.722656 37.796875 5.675781 C 37.824219 5.601562 37.824219 5.601562 37.847656 5.523438 C 38.609375 3.421875 40.132812 1.761719 42.164062 0.804688 C 43.042969 0.40625 44.046875 0.101562 45.015625 0.0976562 Z M 45.671875 8.335938 C 45.671875 9.386719 45.671875 9.386719 45.667969 10.460938 C 45.664062 10.90625 45.664062 11.351562 45.660156 11.796875 C 45.660156 12.503906 45.65625 13.210938 45.65625 13.917969 C 45.652344 14.429688 45.652344 14.945312 45.648438 15.460938 C 45.648438 15.730469 45.644531 16.003906 45.644531 16.277344 C 45.644531 16.53125 45.644531 16.789062 45.644531 17.046875 C 45.640625 17.183594 45.640625 17.320312 45.644531 17.460938 C 45.628906 18.585938 45.238281 19.539062 44.460938 20.355469 C 43.789062 21.007812 43.011719 21.292969 42.121094 21.542969 C 41.9375 21.597656 41.753906 21.652344 41.570312 21.703125 C 41.527344 21.71875 41.480469 21.730469 41.433594 21.746094 C 39.296875 22.378906 37.234375 23.265625 35.308594 24.382812 C 34.265625 24.984375 33.125 25.171875 31.953125 24.882812 C 30.816406 24.539062 30.105469 23.789062 29.296875 22.96875 C 29.25 22.921875 29.203125 22.875 29.152344 22.824219 C 29.113281 22.78125 29.070312 22.742188 29.027344 22.699219 C 28.894531 22.570312 28.757812 22.449219 28.617188 22.328125 C 28.34375 22.09375 28.089844 21.847656 27.835938 21.59375 C 27.789062 21.546875 27.742188 21.503906 27.695312 21.457031 C 27.550781 21.308594 27.402344 21.160156 27.253906 21.011719 C 27.148438 20.910156 27.046875 20.808594 26.945312 20.703125 C 26.671875 20.433594 26.402344 20.164062 26.132812 19.894531 C 25.855469 19.617188 25.578125 19.34375 25.300781 19.066406 C 24.761719 18.527344 24.21875 17.988281 23.679688 17.449219 C 23.46875 17.539062 23.324219 17.648438 23.164062 17.808594 C 23.113281 17.855469 23.066406 17.902344 23.019531 17.949219 C 22.96875 18 22.917969 18.050781 22.867188 18.105469 C 22.8125 18.15625 22.757812 18.210938 22.703125 18.265625 C 22.523438 18.445312 22.347656 18.625 22.167969 18.800781 C 22.042969 18.925781 21.921875 19.046875 21.796875 19.171875 C 21.503906 19.460938 21.214844 19.753906 20.921875 20.046875 C 20.589844 20.378906 20.257812 20.710938 19.921875 21.042969 C 19.238281 21.726562 18.554688 22.40625 17.871094 23.089844 C 18.105469 23.367188 18.339844 23.632812 18.597656 23.886719 C 18.683594 23.976562 18.683594 23.976562 18.773438 24.066406 C 18.835938 24.125 18.898438 24.1875 18.960938 24.25 C 19.027344 24.316406 19.089844 24.382812 19.15625 24.445312 C 19.292969 24.582031 19.429688 24.71875 19.566406 24.855469 C 19.742188 25.027344 19.914062 25.199219 20.089844 25.375 C 20.222656 25.507812 20.359375 25.644531 20.492188 25.777344 C 20.589844 25.871094 20.683594 25.964844 20.777344 26.0625 C 21.078125 26.355469 21.378906 26.640625 21.699219 26.914062 C 21.960938 27.144531 22.207031 27.390625 22.453125 27.636719 C 22.511719 27.695312 22.566406 27.75 22.625 27.808594 C 22.746094 27.929688 22.867188 28.046875 22.988281 28.167969 C 23.167969 28.347656 23.351562 28.527344 23.535156 28.707031 C 23.652344 28.824219 23.769531 28.941406 23.886719 29.058594 C 23.941406 29.109375 23.996094 29.164062 24.050781 29.21875 C 24.949219 30.113281 25.535156 31.183594 25.546875 32.46875 C 25.53125 33.609375 25.070312 34.464844 24.523438 35.429688 C 23.386719 37.441406 22.601562 39.578125 21.9375 41.785156 C 21.585938 42.949219 21.027344 43.90625 19.921875 44.507812 C 19.375 44.753906 18.875 44.925781 18.273438 44.929688 C 18.1875 44.929688 18.101562 44.929688 18.015625 44.929688 C 17.921875 44.929688 17.832031 44.929688 17.738281 44.929688 C 17.640625 44.933594 17.542969 44.933594 17.441406 44.933594 C 17.175781 44.933594 16.910156 44.9375 16.644531 44.9375 C 16.363281 44.9375 16.085938 44.941406 15.808594 44.941406 C 15.28125 44.945312 14.753906 44.949219 14.226562 44.953125 C 13.511719 44.957031 12.800781 44.960938 12.085938 44.964844 C 10.964844 44.972656 9.84375 44.980469 8.71875 44.984375 C 8.71875 47.679688 8.71875 50.371094 8.71875 53.144531 C 9.429688 53.144531 10.136719 53.148438 10.871094 53.148438 C 11.320312 53.152344 11.769531 53.152344 12.222656 53.15625 C 12.933594 53.160156 13.648438 53.160156 14.363281 53.164062 C 14.882812 53.164062 15.40625 53.164062 15.925781 53.167969 C 16.199219 53.171875 16.476562 53.171875 16.75 53.171875 C 17.011719 53.171875 17.269531 53.171875 17.53125 53.175781 C 17.667969 53.175781 17.808594 53.175781 17.949219 53.175781 C 19.101562 53.1875 20.074219 53.574219 20.894531 54.375 C 21.597656 55.109375 21.855469 55.957031 22.128906 56.910156 C 22.816406 59.292969 23.785156 61.570312 25.074219 63.695312 C 25.578125 64.613281 25.660156 65.714844 25.414062 66.722656 C 24.964844 68.199219 23.789062 69.160156 22.722656 70.21875 C 22.535156 70.40625 22.34375 70.597656 22.15625 70.785156 C 22.03125 70.90625 21.910156 71.027344 21.789062 71.148438 C 21.703125 71.234375 21.703125 71.234375 21.617188 71.320312 C 21.378906 71.558594 21.136719 71.792969 20.878906 72.011719 C 20.554688 72.289062 20.253906 72.589844 19.953125 72.890625 C 19.894531 72.953125 19.832031 73.011719 19.773438 73.074219 C 19.582031 73.261719 19.394531 73.453125 19.203125 73.640625 C 19.074219 73.769531 18.945312 73.898438 18.816406 74.027344 C 18.5 74.339844 18.1875 74.65625 17.871094 74.972656 C 18.167969 75.324219 18.484375 75.65625 18.8125 75.980469 C 18.863281 76.03125 18.914062 76.082031 18.96875 76.136719 C 19.136719 76.304688 19.304688 76.472656 19.472656 76.636719 C 19.589844 76.753906 19.707031 76.871094 19.824219 76.988281 C 20.132812 77.292969 20.441406 77.601562 20.75 77.90625 C 21.0625 78.21875 21.378906 78.53125 21.691406 78.84375 C 22.308594 79.457031 22.925781 80.070312 23.542969 80.683594 C 23.730469 80.597656 23.871094 80.507812 24.019531 80.359375 C 24.054688 80.324219 24.09375 80.285156 24.132812 80.246094 C 24.175781 80.203125 24.214844 80.164062 24.257812 80.121094 C 24.300781 80.078125 24.34375 80.03125 24.390625 79.988281 C 24.535156 79.84375 24.679688 79.699219 24.824219 79.554688 C 24.925781 79.453125 25.023438 79.351562 25.125 79.25 C 25.390625 78.984375 25.65625 78.71875 25.921875 78.453125 C 26.347656 78.027344 26.773438 77.605469 27.195312 77.179688 C 27.34375 77.03125 27.492188 76.882812 27.640625 76.734375 C 27.730469 76.644531 27.820312 76.550781 27.914062 76.460938 C 27.953125 76.421875 27.996094 76.378906 28.035156 76.335938 C 28.285156 76.085938 28.546875 75.851562 28.816406 75.621094 C 28.988281 75.472656 29.144531 75.308594 29.300781 75.144531 C 29.367188 75.078125 29.433594 75.011719 29.496094 74.945312 C 29.597656 74.839844 29.695312 74.738281 29.796875 74.632812 C 30.699219 73.683594 31.734375 73.144531 33.070312 73.101562 C 34.0625 73.136719 34.835938 73.453125 35.683594 73.933594 C 37.8125 75.125 40.050781 76.019531 42.40625 76.671875 C 43.566406 76.996094 44.480469 77.542969 45.097656 78.601562 C 45.511719 79.375 45.625 80.03125 45.625 80.90625 C 45.625 81.003906 45.628906 81.101562 45.628906 81.199219 C 45.628906 81.464844 45.632812 81.730469 45.632812 81.992188 C 45.632812 82.269531 45.636719 82.546875 45.636719 82.824219 C 45.640625 83.347656 45.640625 83.871094 45.644531 84.394531 C 45.648438 85.101562 45.652344 85.8125 45.65625 86.519531 C 45.664062 87.632812 45.667969 88.746094 45.671875 89.863281 C 48.378906 89.863281 51.082031 89.863281 53.871094 89.863281 C 53.871094 88.800781 53.871094 88.800781 53.875 87.722656 C 53.875 87.273438 53.878906 86.824219 53.878906 86.375 C 53.882812 85.664062 53.886719 84.953125 53.886719 84.242188 C 53.890625 83.722656 53.890625 83.207031 53.894531 82.6875 C 53.894531 82.414062 53.894531 82.140625 53.894531 81.867188 C 53.894531 81.609375 53.898438 81.347656 53.898438 81.089844 C 53.902344 80.953125 53.898438 80.8125 53.898438 80.675781 C 53.914062 79.546875 54.300781 78.589844 55.078125 77.773438 C 55.75 77.125 56.53125 76.835938 57.421875 76.585938 C 57.605469 76.53125 57.789062 76.480469 57.972656 76.425781 C 58.039062 76.40625 58.039062 76.40625 58.109375 76.382812 C 60.246094 75.75 62.304688 74.863281 64.234375 73.746094 C 65.316406 73.125 66.480469 72.960938 67.6875 73.28125 C 68.808594 73.609375 69.546875 74.449219 70.339844 75.25 C 70.480469 75.394531 70.621094 75.535156 70.761719 75.675781 C 70.855469 75.769531 70.855469 75.769531 70.949219 75.863281 C 71.089844 76.003906 71.238281 76.132812 71.386719 76.261719 C 71.835938 76.648438 72.246094 77.070312 72.664062 77.488281 C 72.753906 77.582031 72.847656 77.671875 72.941406 77.765625 C 73.183594 78.007812 73.425781 78.25 73.667969 78.488281 C 73.914062 78.738281 74.160156 78.984375 74.410156 79.230469 C 74.894531 79.714844 75.378906 80.199219 75.863281 80.683594 C 76.074219 80.589844 76.21875 80.484375 76.378906 80.320312 C 76.425781 80.273438 76.472656 80.226562 76.523438 80.179688 C 76.574219 80.128906 76.625 80.078125 76.675781 80.023438 C 76.730469 79.972656 76.785156 79.917969 76.839844 79.863281 C 77.019531 79.683594 77.195312 79.507812 77.375 79.328125 C 77.496094 79.203125 77.621094 79.082031 77.746094 78.957031 C 78.039062 78.667969 78.328125 78.375 78.621094 78.082031 C 78.953125 77.75 79.285156 77.417969 79.617188 77.085938 C 80.304688 76.40625 80.988281 75.722656 81.671875 75.039062 C 81.433594 74.757812 81.191406 74.484375 80.925781 74.222656 C 80.863281 74.160156 80.800781 74.097656 80.738281 74.035156 C 80.671875 73.96875 80.605469 73.902344 80.539062 73.832031 C 80.46875 73.765625 80.398438 73.695312 80.328125 73.625 C 80.179688 73.480469 80.035156 73.332031 79.886719 73.1875 C 79.703125 73.003906 79.515625 72.816406 79.328125 72.632812 C 79.183594 72.488281 79.039062 72.34375 78.894531 72.199219 C 78.828125 72.132812 78.757812 72.0625 78.691406 71.996094 C 78.347656 71.652344 78.003906 71.320312 77.632812 71.007812 C 77.390625 70.792969 77.160156 70.5625 76.929688 70.332031 C 76.875 70.28125 76.824219 70.230469 76.769531 70.175781 C 76.660156 70.066406 76.546875 69.957031 76.4375 69.847656 C 76.269531 69.679688 76.101562 69.515625 75.933594 69.351562 C 75.824219 69.242188 75.71875 69.136719 75.609375 69.027344 C 75.558594 68.980469 75.511719 68.929688 75.460938 68.882812 C 74.574219 68 74.007812 66.925781 73.996094 65.660156 C 74.007812 64.519531 74.472656 63.664062 75.019531 62.699219 C 76.15625 60.6875 76.941406 58.550781 77.605469 56.34375 C 77.949219 55.199219 78.472656 54.285156 79.550781 53.6875 C 79.597656 53.664062 79.640625 53.636719 79.6875 53.609375 C 80.375 53.238281 81.078125 53.183594 81.851562 53.183594 C 81.949219 53.183594 82.046875 53.183594 82.144531 53.179688 C 82.410156 53.179688 82.675781 53.179688 82.941406 53.179688 C 83.21875 53.175781 83.496094 53.175781 83.773438 53.175781 C 84.296875 53.171875 84.820312 53.167969 85.347656 53.167969 C 86.054688 53.164062 86.765625 53.160156 87.472656 53.15625 C 88.589844 53.152344 89.707031 53.148438 90.824219 53.144531 C 90.824219 50.453125 90.824219 47.757812 90.824219 44.984375 C 90.113281 44.984375 89.402344 44.980469 88.671875 44.980469 C 88.222656 44.976562 87.773438 44.976562 87.320312 44.972656 C 86.605469 44.972656 85.894531 44.96875 85.179688 44.964844 C 84.65625 44.964844 84.136719 44.964844 83.617188 44.960938 C 83.339844 44.960938 83.066406 44.957031 82.792969 44.957031 C 82.53125 44.957031 82.273438 44.957031 82.011719 44.957031 C 81.871094 44.953125 81.734375 44.953125 81.59375 44.957031 C 80.441406 44.941406 79.46875 44.554688 78.648438 43.753906 C 77.945312 43.019531 77.6875 42.171875 77.414062 41.21875 C 76.726562 38.839844 75.757812 36.558594 74.46875 34.4375 C 73.964844 33.515625 73.878906 32.414062 74.125 31.40625 C 74.4375 30.390625 74.992188 29.738281 75.726562 29.007812 C 75.800781 28.933594 75.875 28.855469 75.949219 28.78125 C 76.203125 28.527344 76.457031 28.273438 76.710938 28.019531 C 76.75 27.980469 76.792969 27.9375 76.835938 27.894531 C 76.957031 27.773438 77.078125 27.652344 77.203125 27.53125 C 77.238281 27.492188 77.273438 27.457031 77.3125 27.421875 C 77.5 27.234375 77.6875 27.058594 77.890625 26.886719 C 78.277344 26.550781 78.636719 26.183594 79 25.820312 C 79.078125 25.746094 79.15625 25.667969 79.234375 25.589844 C 79.4375 25.390625 79.636719 25.1875 79.839844 24.988281 C 80.046875 24.78125 80.25 24.574219 80.457031 24.367188 C 80.863281 23.964844 81.265625 23.5625 81.671875 23.160156 C 81.371094 22.804688 81.058594 22.472656 80.730469 22.148438 C 80.679688 22.097656 80.628906 22.046875 80.574219 21.992188 C 80.40625 21.824219 80.238281 21.660156 80.070312 21.492188 C 79.953125 21.375 79.835938 21.257812 79.71875 21.140625 C 79.410156 20.835938 79.101562 20.527344 78.792969 20.222656 C 78.480469 19.910156 78.164062 19.597656 77.851562 19.285156 C 77.234375 18.671875 76.617188 18.058594 76 17.449219 C 75.808594 17.535156 75.667969 17.628906 75.515625 17.777344 C 75.457031 17.835938 75.457031 17.835938 75.394531 17.898438 C 75.351562 17.941406 75.308594 17.984375 75.265625 18.027344 C 75.21875 18.074219 75.175781 18.121094 75.128906 18.167969 C 74.976562 18.316406 74.824219 18.46875 74.675781 18.621094 C 74.570312 18.726562 74.464844 18.832031 74.359375 18.9375 C 74.078125 19.214844 73.800781 19.492188 73.523438 19.769531 C 73.082031 20.214844 72.636719 20.660156 72.191406 21.101562 C 72.039062 21.257812 71.882812 21.410156 71.730469 21.566406 C 71.632812 21.664062 71.539062 21.757812 71.441406 21.855469 C 71.378906 21.917969 71.378906 21.917969 71.3125 21.984375 C 71.058594 22.238281 70.792969 22.480469 70.519531 22.714844 C 70.363281 22.851562 70.222656 22.996094 70.082031 23.144531 C 69.023438 24.242188 68.042969 24.976562 66.472656 25.027344 C 65.480469 24.996094 64.707031 24.675781 63.859375 24.195312 C 61.757812 23.019531 59.554688 22.136719 57.238281 21.484375 C 56.023438 21.140625 55.078125 20.609375 54.414062 19.488281 C 54.015625 18.726562 53.917969 18.078125 53.917969 17.230469 C 53.914062 17.132812 53.914062 17.035156 53.914062 16.9375 C 53.914062 16.675781 53.910156 16.410156 53.910156 16.148438 C 53.910156 15.875 53.90625 15.597656 53.90625 15.324219 C 53.902344 14.804688 53.898438 14.285156 53.898438 13.765625 C 53.894531 13.0625 53.890625 12.359375 53.886719 11.65625 C 53.878906 10.550781 53.875 9.441406 53.871094 8.335938 C 51.164062 8.335938 48.460938 8.335938 45.671875 8.335938 Z M 83.792969 32.550781 C 83.738281 32.601562 83.683594 32.652344 83.628906 32.707031 C 83.335938 32.984375 83.335938 32.984375 83.21875 33.347656 C 83.25 33.417969 83.277344 33.488281 83.308594 33.5625 C 83.332031 33.617188 83.355469 33.671875 83.378906 33.726562 C 83.460938 33.921875 83.550781 34.117188 83.640625 34.308594 C 83.671875 34.375 83.703125 34.441406 83.734375 34.511719 C 83.882812 34.832031 84.035156 35.152344 84.199219 35.464844 C 84.398438 35.476562 84.398438 35.476562 84.605469 35.464844 C 84.792969 35.28125 84.769531 35.171875 84.785156 34.914062 C 84.796875 34.785156 84.796875 34.785156 84.804688 34.65625 C 84.808594 34.5625 84.816406 34.46875 84.820312 34.378906 C 84.828125 34.285156 84.832031 34.191406 84.839844 34.097656 C 84.871094 33.585938 84.894531 33.070312 84.894531 32.554688 C 84.894531 32.480469 84.894531 32.480469 84.894531 32.402344 C 84.910156 32.183594 84.910156 32.183594 84.8125 32 C 84.308594 31.949219 84.121094 32.214844 83.792969 32.550781 Z M 83.792969 32.550781 "/>
<path style=" stroke:none;fill-rule:nonzero;fill:rgb(3.137255%,1.568628%,1.568628%);fill-opacity:1;" d="M 48.816406 28.652344 C 48.886719 28.652344 48.957031 28.652344 49.03125 28.652344 C 51.949219 28.636719 51.949219 28.636719 53.1875 28.871094 C 53.261719 28.882812 53.335938 28.898438 53.414062 28.914062 C 55.066406 29.222656 56.636719 29.691406 58.171875 30.367188 C 58.234375 30.394531 58.292969 30.417969 58.355469 30.445312 C 61.195312 31.710938 63.925781 33.742188 65.824219 36.214844 C 65.890625 36.300781 65.960938 36.386719 66.03125 36.476562 C 68.066406 39.0625 69.425781 42.078125 70.039062 45.304688 C 70.054688 45.375 70.066406 45.445312 70.082031 45.519531 C 70.292969 46.691406 70.355469 47.851562 70.351562 49.039062 C 70.351562 49.140625 70.351562 49.140625 70.351562 49.246094 C 70.347656 50.289062 70.3125 51.300781 70.125 52.328125 C 70.109375 52.429688 70.109375 52.429688 70.09375 52.53125 C 69.277344 57.300781 66.65625 62.011719 62.75 64.976562 C 62.664062 65.042969 62.578125 65.113281 62.492188 65.179688 C 58.179688 68.566406 52.65625 69.988281 47.226562 69.382812 C 45.195312 69.132812 43.238281 68.585938 41.371094 67.761719 C 41.308594 67.738281 41.25 67.710938 41.1875 67.683594 C 38.347656 66.417969 35.617188 64.386719 33.71875 61.914062 C 33.648438 61.828125 33.582031 61.742188 33.511719 61.652344 C 30.921875 58.367188 29.21875 54.140625 29.195312 49.929688 C 29.195312 49.867188 29.195312 49.804688 29.195312 49.738281 C 29.179688 47.078125 29.179688 47.078125 29.414062 45.800781 C 29.429688 45.722656 29.445312 45.644531 29.457031 45.566406 C 29.765625 43.894531 30.230469 42.320312 30.917969 40.769531 C 30.945312 40.710938 30.972656 40.648438 31 40.585938 C 31.71875 38.984375 32.65625 37.492188 33.789062 36.144531 C 33.871094 36.046875 33.871094 36.046875 33.953125 35.945312 C 34.382812 35.421875 34.851562 34.9375 35.328125 34.457031 C 35.417969 34.371094 35.417969 34.371094 35.507812 34.277344 C 35.914062 33.875 36.34375 33.507812 36.792969 33.152344 C 36.839844 33.117188 36.890625 33.078125 36.941406 33.035156 C 40.246094 30.410156 44.554688 28.671875 48.816406 28.652344 Z M 46.902344 37.164062 C 46.816406 37.1875 46.816406 37.1875 46.726562 37.210938 C 45.878906 37.425781 45.089844 37.738281 44.308594 38.117188 C 44.261719 38.140625 44.214844 38.160156 44.167969 38.183594 C 43.507812 38.507812 42.910156 38.898438 42.324219 39.339844 C 42.265625 39.386719 42.203125 39.433594 42.140625 39.480469 C 39.570312 41.480469 37.925781 44.441406 37.523438 47.65625 C 37.191406 50.632812 37.960938 53.703125 39.730469 56.136719 C 39.78125 56.207031 39.832031 56.277344 39.886719 56.351562 C 41.808594 58.941406 44.738281 60.664062 47.925781 61.167969 C 48.300781 61.21875 48.664062 61.25 49.039062 61.253906 C 49.09375 61.253906 49.144531 61.253906 49.199219 61.253906 C 50.371094 61.265625 51.496094 61.253906 52.640625 60.964844 C 52.699219 60.949219 52.757812 60.933594 52.816406 60.917969 C 53.660156 60.703125 54.453125 60.394531 55.234375 60.011719 C 55.304688 59.980469 55.304688 59.980469 55.371094 59.945312 C 56.035156 59.621094 56.628906 59.234375 57.214844 58.789062 C 57.277344 58.742188 57.335938 58.699219 57.398438 58.652344 C 59.992188 56.640625 61.59375 53.6875 62.019531 50.464844 C 62.351562 47.492188 61.578125 44.421875 59.8125 41.992188 C 59.761719 41.921875 59.710938 41.851562 59.65625 41.777344 C 57.703125 39.144531 54.773438 37.476562 51.546875 36.960938 C 51.472656 36.949219 51.398438 36.9375 51.324219 36.925781 C 51.050781 36.890625 50.785156 36.878906 50.507812 36.878906 C 50.457031 36.875 50.40625 36.875 50.351562 36.875 C 49.175781 36.863281 48.046875 36.875 46.902344 37.164062 Z M 46.902344 37.164062 "/>
<path style=" stroke:none;fill-rule:nonzero;fill:rgb(99.607843%,99.607843%,99.607843%);fill-opacity:1;" d="M 84.675781 31.726562 C 85 31.777344 85 31.777344 85.152344 31.929688 C 85.167969 32.140625 85.171875 32.347656 85.171875 32.558594 C 85.171875 32.625 85.171875 32.6875 85.167969 32.753906 C 85.164062 33.300781 85.136719 33.84375 85.105469 34.386719 C 85.097656 34.519531 85.089844 34.65625 85.082031 34.792969 C 85.074219 34.917969 85.074219 34.917969 85.066406 35.046875 C 85.0625 35.121094 85.058594 35.195312 85.054688 35.273438 C 85.015625 35.484375 84.960938 35.585938 84.8125 35.738281 C 84.625 35.773438 84.460938 35.75 84.265625 35.738281 C 84.242188 35.648438 84.21875 35.558594 84.199219 35.464844 C 84.355469 35.421875 84.511719 35.375 84.675781 35.328125 C 84.796875 33.699219 84.796875 33.699219 84.8125 32.066406 C 84.699219 32.042969 84.585938 32.019531 84.46875 32 C 84.539062 31.910156 84.605469 31.820312 84.675781 31.726562 Z M 84.675781 31.726562 "/>
</g>
</svg>
