<?xml version="1.0" encoding="UTF-8"?>
<svg xmlns="http://www.w3.org/2000/svg" xmlns:xlink="http://www.w3.org/1999/xlink" width="100px" height="100px" viewBox="0 0 100 101" version="1.1">
<g id="surface1">
<path style=" stroke:none;fill-rule:nonzero;fill:rgb(1.176471%,0%,0%);fill-opacity:1;" d="M 10.464844 1.167969 C 36.453125 1.167969 62.4375 1.167969 89.214844 1.167969 C 89.25 1.410156 89.28125 1.648438 89.316406 1.898438 C 89.667969 2.4375 90.066406 2.71875 90.671875 2.9375 C 90.832031 2.964844 90.992188 2.996094 91.152344 3.019531 C 91.628906 3.109375 91.792969 3.3125 92.074219 3.691406 C 92.34375 3.996094 92.699219 4.128906 93.066406 4.285156 C 93.492188 4.476562 93.65625 4.6875 93.894531 5.074219 C 94.125 5.457031 94.125 5.457031 94.527344 5.628906 C 94.988281 5.792969 95.113281 6.125 95.347656 6.539062 C 95.464844 6.78125 95.464844 6.78125 95.464844 6.988281 C 95.539062 7.007812 95.613281 7.03125 95.691406 7.054688 C 96.074219 7.238281 96.300781 7.453125 96.503906 7.820312 C 96.675781 8.328125 96.816406 8.839844 96.816406 9.378906 C 96.933594 9.390625 97.046875 9.398438 97.164062 9.410156 C 97.546875 9.480469 97.546875 9.480469 97.75 9.632812 C 97.859375 9.792969 97.859375 9.792969 97.859375 10 C 98.101562 10 98.339844 10 98.589844 10 C 98.589844 36.269531 98.589844 62.535156 98.589844 89.597656 C 98.347656 89.597656 98.109375 89.597656 97.859375 89.597656 C 97.839844 89.660156 97.816406 89.726562 97.792969 89.789062 C 97.59375 90.101562 97.378906 90.132812 97.027344 90.21875 C 96.957031 90.21875 96.890625 90.21875 96.816406 90.21875 C 96.804688 90.296875 96.792969 90.371094 96.78125 90.453125 C 96.761719 90.554688 96.746094 90.652344 96.726562 90.757812 C 96.710938 90.859375 96.691406 90.957031 96.675781 91.0625 C 96.539062 91.675781 96.308594 92.058594 95.878906 92.503906 C 95.804688 92.523438 95.730469 92.539062 95.652344 92.558594 C 95.589844 92.574219 95.527344 92.59375 95.464844 92.609375 C 95.390625 92.816406 95.320312 93.023438 95.253906 93.234375 C 95.109375 93.503906 94.949219 93.742188 94.734375 93.960938 C 94.636719 93.988281 94.535156 94.015625 94.433594 94.042969 C 94.039062 94.195312 93.984375 94.324219 93.765625 94.675781 C 93.449219 95.160156 93.199219 95.339844 92.660156 95.535156 C 92.339844 95.664062 92.152344 95.890625 91.921875 96.140625 C 91.511719 96.554688 91.167969 96.613281 90.613281 96.707031 C 90.132812 96.816406 89.832031 97.082031 89.492188 97.421875 C 89.261719 97.75 89.261719 97.75 89.214844 98.429688 C 63.226562 98.429688 37.238281 98.429688 10.464844 98.429688 C 10.429688 98.1875 10.394531 97.949219 10.359375 97.699219 C 10.007812 97.160156 9.613281 96.878906 9.003906 96.660156 C 8.84375 96.632812 8.683594 96.601562 8.523438 96.578125 C 8.046875 96.488281 7.882812 96.285156 7.601562 95.90625 C 7.332031 95.601562 6.980469 95.46875 6.609375 95.3125 C 6.1875 95.121094 6.023438 94.910156 5.78125 94.523438 C 5.554688 94.140625 5.554688 94.140625 5.152344 93.96875 C 4.6875 93.804688 4.5625 93.472656 4.328125 93.058594 C 4.214844 92.816406 4.214844 92.816406 4.214844 92.609375 C 4.136719 92.589844 4.0625 92.566406 3.984375 92.542969 C 3.605469 92.359375 3.375 92.144531 3.171875 91.777344 C 3.003906 91.269531 2.859375 90.757812 2.859375 90.21875 C 2.746094 90.207031 2.632812 90.199219 2.515625 90.1875 C 2.128906 90.117188 2.128906 90.117188 1.929688 89.964844 C 1.816406 89.804688 1.816406 89.804688 1.816406 89.597656 C 1.578125 89.597656 1.335938 89.597656 1.089844 89.597656 C 1.089844 63.328125 1.089844 37.0625 1.089844 10 C 1.328125 10 1.570312 10 1.816406 10 C 1.839844 9.9375 1.859375 9.871094 1.882812 9.808594 C 2.085938 9.496094 2.300781 9.464844 2.652344 9.378906 C 2.71875 9.378906 2.789062 9.378906 2.859375 9.378906 C 2.871094 9.300781 2.886719 9.226562 2.898438 9.144531 C 2.914062 9.042969 2.933594 8.945312 2.949219 8.839844 C 2.96875 8.738281 2.984375 8.640625 3.003906 8.535156 C 3.136719 7.921875 3.367188 7.539062 3.796875 7.09375 C 3.910156 7.066406 3.910156 7.066406 4.023438 7.039062 C 4.117188 7.015625 4.117188 7.015625 4.214844 6.988281 C 4.289062 6.78125 4.355469 6.574219 4.421875 6.363281 C 4.566406 6.09375 4.726562 5.855469 4.941406 5.636719 C 5.042969 5.609375 5.140625 5.582031 5.242188 5.554688 C 5.636719 5.402344 5.691406 5.273438 5.914062 4.921875 C 6.230469 4.4375 6.480469 4.257812 7.019531 4.0625 C 7.339844 3.933594 7.527344 3.707031 7.753906 3.457031 C 8.167969 3.042969 8.511719 2.984375 9.0625 2.890625 C 9.542969 2.78125 9.84375 2.515625 10.183594 2.175781 C 10.417969 1.847656 10.417969 1.847656 10.464844 1.167969 Z M 12.808594 8.675781 C 12.546875 8.949219 12.546875 8.949219 12.359375 9.242188 C 12.0625 9.554688 11.832031 9.558594 11.421875 9.628906 C 11.0625 9.722656 10.894531 9.925781 10.671875 10.210938 C 10.621094 10.296875 10.574219 10.386719 10.523438 10.476562 C 10.3125 10.800781 10.054688 10.933594 9.734375 11.144531 C 9.460938 11.472656 9.394531 11.773438 9.324219 12.183594 C 9.242188 12.632812 9.140625 12.902344 8.796875 13.222656 C 8.707031 13.253906 8.617188 13.285156 8.527344 13.320312 C 8.257812 13.503906 8.257812 13.503906 8.226562 13.757812 C 8.207031 14.074219 8.207031 14.386719 8.210938 14.703125 C 8.210938 14.828125 8.210938 14.949219 8.207031 15.078125 C 8.207031 15.417969 8.207031 15.761719 8.210938 16.105469 C 8.210938 16.476562 8.207031 16.847656 8.207031 17.222656 C 8.207031 17.875 8.207031 18.527344 8.207031 19.179688 C 8.210938 20.148438 8.207031 21.121094 8.207031 22.089844 C 8.203125 23.824219 8.203125 25.558594 8.207031 27.292969 C 8.207031 28.808594 8.207031 30.324219 8.207031 31.84375 C 8.207031 31.941406 8.207031 32.042969 8.207031 32.148438 C 8.207031 32.554688 8.207031 32.960938 8.207031 33.371094 C 8.203125 37.199219 8.207031 41.027344 8.207031 44.855469 C 8.210938 48.261719 8.210938 51.664062 8.207031 55.070312 C 8.207031 58.890625 8.203125 62.710938 8.207031 66.535156 C 8.207031 66.941406 8.207031 67.347656 8.207031 67.753906 C 8.207031 67.855469 8.207031 67.957031 8.207031 68.058594 C 8.207031 69.574219 8.207031 71.089844 8.207031 72.609375 C 8.203125 74.332031 8.203125 76.054688 8.207031 77.777344 C 8.207031 78.742188 8.207031 79.707031 8.207031 80.675781 C 8.207031 81.316406 8.207031 81.960938 8.207031 82.605469 C 8.210938 82.972656 8.210938 83.339844 8.207031 83.707031 C 8.207031 84.101562 8.207031 84.5 8.210938 84.894531 C 8.210938 85.007812 8.207031 85.125 8.207031 85.242188 C 8.210938 85.527344 8.214844 85.785156 8.277344 86.0625 C 8.511719 86.296875 8.511719 86.296875 8.796875 86.375 C 9.203125 86.757812 9.34375 87.140625 9.414062 87.6875 C 9.472656 88.078125 9.511719 88.296875 9.824219 88.550781 C 9.933594 88.621094 10.039062 88.691406 10.152344 88.765625 C 10.394531 88.988281 10.5625 89.171875 10.730469 89.453125 C 10.871094 89.726562 10.871094 89.726562 11.191406 89.90625 C 11.335938 89.929688 11.484375 89.949219 11.628906 89.964844 C 12.195312 90.078125 12.445312 90.40625 12.792969 90.84375 C 13 91.09375 13.101562 91.144531 13.421875 91.1875 C 14.175781 91.25 14.921875 91.273438 15.679688 91.273438 C 15.800781 91.273438 15.921875 91.273438 16.042969 91.273438 C 16.375 91.273438 16.710938 91.273438 17.042969 91.273438 C 17.40625 91.273438 17.765625 91.273438 18.128906 91.273438 C 18.765625 91.273438 19.398438 91.273438 20.035156 91.273438 C 20.980469 91.273438 21.921875 91.273438 22.867188 91.273438 C 24.554688 91.273438 26.242188 91.273438 27.925781 91.273438 C 29.402344 91.273438 30.878906 91.273438 32.355469 91.273438 C 32.453125 91.273438 32.550781 91.273438 32.652344 91.273438 C 33.050781 91.273438 33.445312 91.273438 33.84375 91.273438 C 37.574219 91.273438 41.300781 91.273438 45.03125 91.273438 C 48.34375 91.273438 51.65625 91.273438 54.964844 91.273438 C 58.6875 91.273438 62.410156 91.273438 66.132812 91.273438 C 66.527344 91.273438 66.925781 91.273438 67.324219 91.273438 C 67.421875 91.273438 67.519531 91.273438 67.617188 91.273438 C 69.09375 91.273438 70.570312 91.273438 72.042969 91.273438 C 73.71875 91.273438 75.398438 91.273438 77.074219 91.273438 C 78.011719 91.273438 78.953125 91.273438 79.890625 91.273438 C 80.515625 91.273438 81.144531 91.273438 81.773438 91.273438 C 82.128906 91.273438 82.484375 91.273438 82.84375 91.273438 C 83.226562 91.273438 83.613281 91.273438 84 91.273438 C 84.109375 91.273438 84.21875 91.273438 84.332031 91.273438 C 85.671875 91.351562 85.671875 91.351562 86.871094 90.921875 C 87.132812 90.648438 87.132812 90.648438 87.320312 90.355469 C 87.613281 90.042969 87.84375 90.039062 88.257812 89.96875 C 88.613281 89.875 88.78125 89.671875 89.003906 89.386719 C 89.054688 89.300781 89.105469 89.210938 89.15625 89.121094 C 89.363281 88.796875 89.625 88.664062 89.941406 88.453125 C 90.214844 88.125 90.28125 87.824219 90.351562 87.414062 C 90.433594 86.964844 90.539062 86.695312 90.878906 86.375 C 90.96875 86.34375 91.058594 86.3125 91.152344 86.277344 C 91.417969 86.09375 91.417969 86.09375 91.449219 85.839844 C 91.46875 85.523438 91.46875 85.210938 91.464844 84.894531 C 91.46875 84.769531 91.46875 84.648438 91.46875 84.519531 C 91.46875 84.179688 91.46875 83.835938 91.46875 83.492188 C 91.46875 83.121094 91.46875 82.75 91.46875 82.375 C 91.472656 81.722656 91.472656 81.070312 91.46875 80.417969 C 91.46875 79.449219 91.46875 78.476562 91.472656 77.507812 C 91.472656 75.773438 91.472656 74.039062 91.472656 72.304688 C 91.46875 70.789062 91.46875 69.273438 91.472656 67.753906 C 91.472656 67.65625 91.472656 67.554688 91.472656 67.449219 C 91.472656 67.042969 91.472656 66.636719 91.472656 66.226562 C 91.472656 62.398438 91.472656 58.570312 91.46875 54.742188 C 91.464844 51.335938 91.464844 47.933594 91.46875 44.527344 C 91.472656 40.707031 91.472656 36.886719 91.472656 33.0625 C 91.472656 32.65625 91.472656 32.25 91.472656 31.84375 C 91.472656 31.691406 91.472656 31.691406 91.472656 31.539062 C 91.46875 30.023438 91.472656 28.507812 91.472656 26.988281 C 91.472656 25.265625 91.472656 23.542969 91.46875 21.820312 C 91.46875 20.855469 91.46875 19.890625 91.472656 18.921875 C 91.472656 18.28125 91.472656 17.636719 91.46875 16.992188 C 91.46875 16.625 91.46875 16.257812 91.46875 15.890625 C 91.472656 15.496094 91.46875 15.097656 91.464844 14.703125 C 91.46875 14.589844 91.46875 14.472656 91.46875 14.355469 C 91.46875 14.070312 91.460938 13.8125 91.402344 13.535156 C 91.164062 13.300781 91.164062 13.300781 90.878906 13.222656 C 90.476562 12.839844 90.335938 12.457031 90.261719 11.910156 C 90.207031 11.519531 90.167969 11.300781 89.851562 11.046875 C 89.746094 10.976562 89.636719 10.90625 89.527344 10.832031 C 89.28125 10.609375 89.117188 10.425781 88.945312 10.144531 C 88.804688 9.871094 88.804688 9.871094 88.484375 9.691406 C 88.339844 9.667969 88.195312 9.648438 88.046875 9.632812 C 87.480469 9.519531 87.230469 9.191406 86.882812 8.753906 C 86.675781 8.503906 86.578125 8.453125 86.253906 8.410156 C 85.5 8.347656 84.753906 8.324219 84 8.324219 C 83.878906 8.324219 83.757812 8.324219 83.632812 8.324219 C 83.300781 8.324219 82.96875 8.324219 82.636719 8.324219 C 82.273438 8.324219 81.910156 8.324219 81.546875 8.324219 C 80.914062 8.324219 80.277344 8.324219 79.640625 8.324219 C 78.699219 8.324219 77.753906 8.324219 76.808594 8.324219 C 75.125 8.324219 73.4375 8.324219 71.75 8.324219 C 70.273438 8.324219 68.796875 8.324219 67.324219 8.324219 C 67.175781 8.324219 67.175781 8.324219 67.027344 8.324219 C 66.628906 8.324219 66.230469 8.324219 65.832031 8.324219 C 62.105469 8.324219 58.375 8.324219 54.648438 8.324219 C 51.335938 8.324219 48.023438 8.324219 44.710938 8.324219 C 40.988281 8.324219 37.265625 8.324219 33.546875 8.324219 C 33.148438 8.324219 32.75 8.324219 32.355469 8.324219 C 32.257812 8.324219 32.160156 8.324219 32.058594 8.324219 C 30.582031 8.324219 29.109375 8.324219 27.632812 8.324219 C 25.957031 8.324219 24.28125 8.324219 22.601562 8.324219 C 21.664062 8.324219 20.726562 8.324219 19.789062 8.324219 C 19.160156 8.324219 18.53125 8.324219 17.90625 8.324219 C 17.546875 8.324219 17.191406 8.324219 16.835938 8.324219 C 16.449219 8.324219 16.0625 8.324219 15.679688 8.324219 C 15.570312 8.324219 15.457031 8.324219 15.34375 8.324219 C 14.007812 8.246094 14.007812 8.246094 12.808594 8.675781 Z M 12.808594 8.675781 "/>
<path style=" stroke:none;fill-rule:nonzero;fill:rgb(1.568628%,0%,0%);fill-opacity:1;" d="M 61.757812 43.855469 C 61.84375 43.855469 61.925781 43.855469 62.015625 43.851562 C 62.730469 43.851562 63.453125 43.886719 64.003906 44.394531 C 64.09375 44.476562 64.09375 44.476562 64.1875 44.558594 C 64.316406 44.707031 64.316406 44.707031 64.316406 44.914062 C 64.386719 44.914062 64.457031 44.914062 64.527344 44.914062 C 64.570312 45.007812 64.613281 45.097656 64.65625 45.195312 C 64.828125 45.519531 65.027344 45.773438 65.253906 46.058594 C 65.253906 46.125 65.253906 46.195312 65.253906 46.265625 C 65.324219 46.265625 65.394531 46.265625 65.464844 46.265625 C 65.570312 46.46875 65.671875 46.671875 65.777344 46.875 C 65.835938 46.988281 65.890625 47.101562 65.953125 47.21875 C 66.089844 47.511719 66.089844 47.511719 66.089844 47.71875 C 66.199219 47.730469 66.308594 47.742188 66.421875 47.753906 C 66.625 47.808594 66.625 47.808594 66.816406 47.929688 C 66.972656 48.207031 67.085938 48.488281 67.203125 48.785156 C 67.375 49.144531 67.578125 49.328125 67.894531 49.558594 C 68.269531 49.855469 68.40625 50.152344 68.503906 50.609375 C 68.652344 51.148438 68.890625 51.359375 69.328125 51.691406 C 69.609375 51.953125 69.707031 52.238281 69.820312 52.601562 C 69.933594 52.84375 69.933594 52.84375 70.238281 52.941406 C 70.695312 53.195312 70.820312 53.519531 71.035156 53.980469 C 71.304688 54.539062 71.574219 54.996094 71.992188 55.453125 C 72.238281 55.746094 72.363281 56.085938 72.507812 56.433594 C 72.636719 56.679688 72.636719 56.679688 72.910156 56.757812 C 73.253906 56.898438 73.3125 57.050781 73.464844 57.382812 C 73.53125 57.523438 73.53125 57.523438 73.597656 57.664062 C 73.691406 57.902344 73.691406 57.902344 73.691406 58.113281 C 73.753906 58.121094 73.816406 58.128906 73.878906 58.136719 C 74.339844 58.292969 74.589844 58.753906 74.839844 59.152344 C 74.917969 59.378906 74.917969 59.378906 74.960938 59.59375 C 75.054688 60.011719 75.160156 60.199219 75.464844 60.5 C 75.53125 60.53125 75.601562 60.558594 75.671875 60.585938 C 75.957031 60.753906 75.980469 60.914062 76.074219 61.222656 C 76.226562 61.660156 76.226562 61.660156 76.601562 61.917969 C 76.707031 61.964844 76.8125 62.011719 76.921875 62.058594 C 77.234375 62.4375 77.441406 62.882812 77.652344 63.320312 C 77.808594 63.644531 77.996094 63.886719 78.238281 64.15625 C 78.5 64.507812 78.65625 64.921875 78.824219 65.320312 C 79.054688 65.667969 79.242188 65.679688 79.628906 65.800781 C 79.78125 66.015625 79.78125 66.015625 79.878906 66.261719 C 79.925781 66.382812 79.925781 66.382812 79.976562 66.507812 C 80.046875 66.734375 80.046875 66.734375 80.046875 67.046875 C 80.109375 67.058594 80.167969 67.066406 80.230469 67.078125 C 80.679688 67.21875 80.9375 67.605469 81.191406 67.984375 C 81.296875 68.25 81.371094 68.503906 81.433594 68.785156 C 81.515625 69.058594 81.628906 69.222656 81.816406 69.4375 C 81.902344 69.476562 81.988281 69.515625 82.078125 69.554688 C 82.488281 69.863281 82.539062 70.304688 82.652344 70.789062 C 82.742188 70.789062 82.835938 70.789062 82.929688 70.789062 C 83.375 70.921875 83.457031 71.09375 83.679688 71.484375 C 83.792969 71.71875 83.898438 71.957031 84 72.199219 C 84.167969 72.601562 84.386719 72.871094 84.679688 73.1875 C 84.984375 73.570312 85.359375 74.132812 85.359375 74.632812 C 85.453125 74.628906 85.542969 74.625 85.640625 74.621094 C 86.0625 74.761719 86.089844 74.863281 86.285156 75.25 C 86.503906 75.734375 86.503906 75.734375 86.503906 75.984375 C 86.578125 76 86.652344 76.019531 86.726562 76.035156 C 87.316406 76.34375 87.628906 76.894531 87.828125 77.515625 C 87.851562 77.59375 87.875 77.671875 87.898438 77.753906 C 87.984375 78.019531 88.066406 78.183594 88.277344 78.375 C 88.648438 78.507812 88.648438 78.507812 89.003906 78.582031 C 89.132812 79.28125 89.132812 79.976562 89.136719 80.6875 C 89.136719 80.808594 89.140625 80.929688 89.140625 81.050781 C 89.148438 82.855469 89.148438 82.855469 88.59375 83.492188 C 87.792969 84.179688 86.160156 84.132812 85.140625 84.078125 C 84.410156 84.015625 83.710938 83.9375 83.066406 83.570312 C 82.851562 83.304688 82.699219 83.015625 82.539062 82.710938 C 82.25 82.167969 81.953125 81.699219 81.539062 81.242188 C 81.292969 80.949219 81.167969 80.605469 81.023438 80.257812 C 80.839844 79.976562 80.671875 79.9375 80.359375 79.828125 C 80.066406 79.449219 79.957031 79.042969 79.839844 78.582031 C 79.765625 78.582031 79.691406 78.582031 79.617188 78.582031 C 79.144531 78.417969 78.9375 78.070312 78.691406 77.648438 C 78.601562 77.40625 78.527344 77.167969 78.453125 76.921875 C 78.320312 76.539062 78.097656 76.273438 77.753906 76.0625 C 77.46875 75.808594 77.390625 75.515625 77.269531 75.160156 C 77.140625 74.914062 77.140625 74.914062 76.824219 74.851562 C 76.503906 74.738281 76.503906 74.738281 76.324219 74.460938 C 76.257812 74.300781 76.257812 74.300781 76.1875 74.132812 C 75.964844 73.648438 75.761719 73.332031 75.359375 72.96875 C 74.953125 72.488281 74.726562 72.003906 74.527344 71.410156 C 74.441406 71.164062 74.441406 71.164062 74.316406 70.996094 C 74.21875 70.980469 74.21875 70.980469 74.117188 70.964844 C 73.902344 70.890625 73.902344 70.890625 73.769531 70.664062 C 73.710938 70.527344 73.710938 70.527344 73.652344 70.386719 C 73.425781 69.890625 73.253906 69.769531 72.753906 69.542969 C 72.476562 69.191406 72.277344 68.804688 72.089844 68.398438 C 71.9375 68.113281 71.792969 67.9375 71.570312 67.703125 C 71.265625 67.375 71.097656 67.074219 70.933594 66.65625 C 70.773438 66.273438 70.683594 66.070312 70.300781 65.898438 C 69.832031 65.632812 69.800781 65.382812 69.632812 64.890625 C 69.476562 64.550781 69.234375 64.496094 68.902344 64.347656 C 68.585938 63.972656 68.386719 63.558594 68.238281 63.097656 C 68.089844 62.667969 67.832031 62.398438 67.523438 62.070312 C 67.328125 61.839844 67.207031 61.617188 67.070312 61.351562 C 66.878906 60.976562 66.878906 60.976562 66.503906 60.773438 C 66.058594 60.53125 65.984375 60.195312 65.816406 59.730469 C 65.640625 59.40625 65.472656 59.324219 65.152344 59.152344 C 64.738281 58.730469 64.5625 58.257812 64.394531 57.703125 C 64.285156 57.402344 64.128906 57.195312 63.902344 56.96875 C 63.796875 56.933594 63.695312 56.898438 63.589844 56.863281 C 63.46875 56.617188 63.46875 56.617188 63.355469 56.304688 C 63.109375 55.726562 62.914062 55.652344 62.339844 55.410156 C 62.179688 55.074219 62.097656 54.734375 62.027344 54.371094 C 61.675781 54.355469 61.675781 54.355469 61.296875 54.476562 C 61.011719 54.828125 60.898438 55.246094 60.777344 55.675781 C 60.652344 56.105469 60.515625 56.394531 60.253906 56.761719 C 60.105469 56.800781 60.105469 56.800781 59.949219 56.839844 C 59.613281 56.9375 59.613281 56.9375 59.492188 57.226562 C 59.40625 57.433594 59.328125 57.640625 59.253906 57.847656 C 59.074219 58.179688 58.929688 58.1875 58.589844 58.320312 C 58.425781 58.546875 58.425781 58.546875 58.316406 58.820312 C 58.273438 58.914062 58.226562 59.007812 58.183594 59.105469 C 58.144531 59.1875 58.105469 59.273438 58.066406 59.359375 C 57.878906 59.710938 57.652344 60.003906 57.402344 60.3125 C 57.070312 60.730469 56.84375 61.148438 56.632812 61.636719 C 56.480469 61.894531 56.367188 61.960938 56.089844 62.058594 C 55.984375 62.058594 55.882812 62.058594 55.777344 62.058594 C 55.746094 62.152344 55.714844 62.246094 55.683594 62.339844 C 55.644531 62.453125 55.609375 62.566406 55.566406 62.683594 C 55.539062 62.78125 55.511719 62.875 55.484375 62.976562 C 55.441406 63.050781 55.402344 63.125 55.359375 63.203125 C 55.1875 63.242188 55.011719 63.277344 54.839844 63.308594 C 54.644531 63.625 54.527344 63.980469 54.390625 64.328125 C 54.171875 64.847656 53.957031 65.273438 53.589844 65.695312 C 53.484375 65.71875 53.484375 65.71875 53.375 65.738281 C 53.308594 65.757812 53.242188 65.78125 53.171875 65.800781 C 53.070312 66.003906 53.070312 66.003906 53.015625 66.25 C 52.898438 66.652344 52.792969 66.898438 52.441406 67.152344 C 52.339844 67.167969 52.339844 67.167969 52.234375 67.183594 C 52.007812 67.238281 52.007812 67.238281 51.898438 67.464844 C 51.859375 67.550781 51.824219 67.640625 51.785156 67.730469 C 51.605469 68.117188 51.429688 68.402344 51.132812 68.710938 C 50.785156 69.082031 50.625 69.445312 50.453125 69.921875 C 50.324219 70.257812 50.175781 70.515625 49.941406 70.789062 C 49.785156 70.832031 49.785156 70.832031 49.625 70.871094 C 49.304688 70.960938 49.304688 70.960938 49.21875 71.203125 C 49.167969 71.371094 49.121094 71.535156 49.082031 71.703125 C 48.996094 71.964844 48.914062 72.082031 48.691406 72.242188 C 48.554688 72.242188 48.417969 72.242188 48.277344 72.242188 C 48.246094 72.316406 48.21875 72.390625 48.1875 72.46875 C 48.070312 72.753906 47.949219 73.03125 47.8125 73.308594 C 47.769531 73.398438 47.726562 73.488281 47.683594 73.582031 C 47.546875 73.800781 47.546875 73.800781 47.234375 73.90625 C 47.160156 74.078125 47.089844 74.25 47.027344 74.425781 C 46.925781 74.601562 46.820312 74.773438 46.714844 74.945312 C 46.675781 75.019531 46.636719 75.097656 46.601562 75.175781 C 46.257812 75.847656 46.257812 75.847656 45.878906 76.03125 C 45.445312 76.253906 45.375 76.554688 45.179688 76.988281 C 45.046875 77.230469 45.046875 77.230469 44.734375 77.425781 C 44.371094 77.683594 44.332031 77.820312 44.179688 78.230469 C 43.953125 78.839844 43.640625 79.214844 43.1875 79.675781 C 42.894531 80.007812 42.722656 80.359375 42.542969 80.761719 C 42.441406 80.972656 42.441406 80.972656 42.234375 81.179688 C 41.960938 81.191406 41.960938 81.191406 41.714844 81.179688 C 41.695312 81.242188 41.679688 81.300781 41.664062 81.367188 C 41.496094 81.933594 41.320312 82.226562 40.878906 82.632812 C 40.777344 82.8125 40.671875 82.988281 40.566406 83.167969 C 40.261719 83.613281 40.03125 83.761719 39.507812 83.886719 C 39.269531 83.925781 39.035156 83.957031 38.796875 83.984375 C 38.652344 84.011719 38.652344 84.011719 38.503906 84.035156 C 37.804688 84.132812 37.140625 84.058594 36.445312 83.960938 C 36.355469 83.945312 36.261719 83.933594 36.167969 83.921875 C 36.082031 83.90625 35.996094 83.894531 35.90625 83.878906 C 35.789062 83.863281 35.789062 83.863281 35.671875 83.84375 C 35.421875 83.765625 35.3125 83.664062 35.152344 83.464844 C 35.089844 83.253906 35.058594 83.050781 35.027344 82.835938 C 34.957031 82.605469 34.957031 82.605469 34.679688 82.527344 C 34.421875 82.324219 34.421875 82.324219 34.375 82.082031 C 34.359375 81.765625 34.363281 81.453125 34.371094 81.132812 C 34.371094 81.023438 34.371094 80.914062 34.371094 80.804688 C 34.378906 79.9375 34.378906 79.9375 34.734375 79.515625 C 34.804688 79.304688 34.804688 79.304688 34.839844 79.082031 C 35.097656 77.808594 35.097656 77.808594 35.507812 77.386719 C 35.777344 77.230469 35.777344 77.230469 35.984375 77.203125 C 36.21875 77.144531 36.21875 77.144531 36.324219 76.878906 C 36.363281 76.777344 36.402344 76.671875 36.441406 76.570312 C 36.675781 76 36.675781 76 37.027344 75.835938 C 37.488281 75.59375 37.535156 75.222656 37.710938 74.75 C 37.902344 74.328125 38.171875 74.050781 38.492188 73.722656 C 38.769531 73.402344 38.9375 73.050781 39.109375 72.664062 C 39.214844 72.449219 39.214844 72.449219 39.421875 72.242188 C 39.628906 72.203125 39.835938 72.167969 40.046875 72.140625 C 40.097656 71.625 40.097656 71.625 39.871094 71.179688 C 39.636719 70.988281 39.636719 70.988281 39.371094 70.859375 C 39.003906 70.613281 38.886719 70.351562 38.691406 69.957031 C 38.691406 69.890625 38.691406 69.820312 38.691406 69.75 C 38.597656 69.742188 38.5 69.738281 38.398438 69.734375 C 38.066406 69.644531 38.066406 69.644531 37.886719 69.394531 C 37.84375 69.289062 37.796875 69.1875 37.75 69.082031 C 37.5625 68.636719 37.5625 68.636719 37.179688 68.386719 C 37.09375 68.355469 37.007812 68.324219 36.921875 68.292969 C 36.777344 68.109375 36.777344 68.109375 36.660156 67.898438 C 36.441406 67.519531 36.195312 67.253906 35.878906 66.945312 C 35.398438 66.378906 34.960938 65.789062 34.558594 65.164062 C 34.421875 64.957031 34.421875 64.957031 34.207031 64.769531 C 33.980469 64.527344 33.894531 64.316406 33.765625 64.015625 C 33.644531 63.742188 33.644531 63.742188 33.484375 63.515625 C 33.101562 63.378906 33.101562 63.378906 32.753906 63.410156 C 32.726562 63.484375 32.699219 63.558594 32.671875 63.632812 C 32.3125 64.492188 32.3125 64.492188 31.984375 64.742188 C 31.679688 65 31.539062 65.234375 31.347656 65.585938 C 31.09375 66.039062 30.855469 66.386719 30.464844 66.734375 C 30.25 66.984375 30.058594 67.238281 29.878906 67.515625 C 29.816406 67.609375 29.753906 67.703125 29.6875 67.800781 C 29.632812 67.890625 29.574219 67.980469 29.511719 68.074219 C 29.277344 68.339844 29.140625 68.347656 28.796875 68.398438 C 28.667969 68.628906 28.667969 68.628906 28.589844 68.917969 C 28.390625 69.429688 28.214844 69.589844 27.726562 69.832031 C 27.445312 70.027344 27.34375 70.292969 27.214844 70.601562 C 27.128906 70.789062 27.128906 70.789062 26.921875 70.996094 C 26.785156 70.996094 26.648438 70.996094 26.503906 70.996094 C 26.476562 71.054688 26.445312 71.117188 26.417969 71.175781 C 26.300781 71.40625 26.175781 71.625 26.042969 71.847656 C 25.980469 71.957031 25.980469 71.957031 25.914062 72.066406 C 25.777344 72.242188 25.777344 72.242188 25.464844 72.347656 C 25.355469 72.527344 25.355469 72.527344 25.253906 72.761719 C 24.957031 73.347656 24.578125 73.820312 24.15625 74.324219 C 23.8125 74.742188 23.5 75.175781 23.1875 75.617188 C 22.964844 75.878906 22.964844 75.878906 22.691406 76.042969 C 22.398438 76.21875 22.324219 76.355469 22.183594 76.660156 C 21.976562 77.058594 21.816406 77.242188 21.402344 77.4375 C 21.144531 77.65625 21.027344 77.859375 20.898438 78.167969 C 20.742188 78.496094 20.707031 78.5625 20.367188 78.730469 C 19.949219 78.945312 19.871094 79.1875 19.667969 79.59375 C 19.519531 79.835938 19.386719 79.96875 19.160156 80.140625 C 18.871094 80.367188 18.71875 80.558594 18.554688 80.886719 C 18.285156 81.417969 17.902344 81.808594 17.492188 82.242188 C 17.246094 82.515625 17.050781 82.792969 16.851562 83.101562 C 16.480469 83.652344 16.175781 83.789062 15.53125 83.9375 C 15.007812 84.027344 14.476562 84.007812 13.945312 84.011719 C 13.773438 84.015625 13.773438 84.015625 13.59375 84.015625 C 12.6875 84.023438 11.746094 83.96875 10.972656 83.460938 C 10.457031 82.652344 10.539062 81.617188 10.546875 80.691406 C 10.546875 80.570312 10.546875 80.445312 10.546875 80.320312 C 10.558594 78.695312 10.558594 78.695312 10.777344 78.476562 C 10.945312 78.46875 10.945312 78.46875 11.121094 78.457031 C 11.523438 78.410156 11.523438 78.410156 11.738281 78.089844 C 11.800781 77.976562 11.859375 77.867188 11.921875 77.75 C 12.128906 77.382812 12.351562 77.089844 12.644531 76.78125 C 12.96875 76.425781 13.183594 76.101562 13.378906 75.664062 C 13.617188 75.207031 13.925781 74.796875 14.421875 74.632812 C 14.59375 74.371094 14.59375 74.371094 14.746094 74.0625 C 15.042969 73.496094 15.042969 73.496094 15.152344 73.386719 C 15.324219 73.382812 15.5 73.382812 15.671875 73.386719 C 15.699219 73.316406 15.726562 73.246094 15.757812 73.171875 C 15.796875 73.070312 15.839844 72.96875 15.878906 72.867188 C 15.921875 72.742188 15.964844 72.617188 16.011719 72.488281 C 16.191406 72.140625 16.191406 72.140625 16.484375 72.003906 C 16.925781 71.769531 17.050781 71.480469 17.285156 71.054688 C 17.429688 70.8125 17.574219 70.625 17.761719 70.417969 C 17.996094 70.160156 18.160156 69.910156 18.320312 69.601562 C 18.582031 69.113281 18.898438 68.660156 19.316406 68.292969 C 19.421875 68.292969 19.523438 68.292969 19.628906 68.292969 C 19.65625 68.203125 19.683594 68.113281 19.707031 68.023438 C 19.847656 67.644531 20.003906 67.363281 20.253906 67.046875 C 20.339844 67.019531 20.421875 66.992188 20.511719 66.960938 C 20.867188 66.796875 20.929688 66.613281 21.09375 66.261719 C 21.242188 65.949219 21.242188 65.949219 21.402344 65.695312 C 21.617188 65.625 21.617188 65.625 21.816406 65.59375 C 22.054688 65.28125 22.238281 64.960938 22.421875 64.617188 C 22.589844 64.316406 22.789062 64.074219 23.023438 63.820312 C 23.320312 63.492188 23.5 63.1875 23.691406 62.789062 C 24.207031 62.003906 24.207031 62.003906 24.53125 61.859375 C 24.816406 61.703125 24.859375 61.523438 24.980469 61.230469 C 25.113281 60.941406 25.113281 60.941406 25.253906 60.710938 C 25.355469 60.675781 25.457031 60.644531 25.5625 60.613281 C 26.046875 60.445312 26.128906 60.070312 26.347656 59.628906 C 26.546875 59.285156 26.796875 59.15625 27.128906 58.941406 C 27.300781 58.691406 27.449219 58.429688 27.597656 58.164062 C 27.742188 57.925781 27.890625 57.734375 28.082031 57.527344 C 28.410156 57.167969 28.59375 56.785156 28.796875 56.34375 C 28.867188 56.34375 28.933594 56.34375 29.003906 56.34375 C 29.035156 56.265625 29.0625 56.1875 29.089844 56.105469 C 29.210938 55.835938 29.292969 55.691406 29.527344 55.515625 C 29.628906 55.515625 29.734375 55.515625 29.839844 55.515625 C 29.863281 55.441406 29.890625 55.371094 29.917969 55.300781 C 30.332031 54.324219 30.332031 54.324219 30.828125 54.109375 C 30.898438 54.089844 30.972656 54.070312 31.046875 54.046875 C 31.476562 53.890625 31.847656 53.628906 32.230469 53.386719 C 32.652344 53.175781 33.019531 53.046875 33.488281 53.1875 C 33.714844 53.285156 33.933594 53.394531 34.15625 53.507812 C 34.230469 53.542969 34.304688 53.582031 34.378906 53.617188 C 34.527344 53.691406 34.675781 53.765625 34.824219 53.84375 C 34.972656 53.917969 35.125 53.988281 35.277344 54.058594 C 35.742188 54.269531 35.996094 54.4375 36.246094 54.902344 C 36.296875 54.992188 36.347656 55.082031 36.398438 55.175781 C 36.503906 55.410156 36.503906 55.410156 36.503906 55.617188 C 36.566406 55.644531 36.628906 55.671875 36.695312 55.703125 C 37.246094 56 37.546875 56.527344 37.800781 57.078125 C 38.011719 57.527344 38.234375 57.761719 38.625 58.058594 C 38.921875 58.328125 39.078125 58.675781 39.214844 59.046875 C 39.214844 59.117188 39.214844 59.183594 39.214844 59.253906 C 39.304688 59.25 39.398438 59.246094 39.492188 59.242188 C 39.914062 59.382812 39.945312 59.484375 40.136719 59.871094 C 40.359375 60.355469 40.359375 60.355469 40.359375 60.605469 C 40.453125 60.609375 40.550781 60.613281 40.648438 60.621094 C 40.984375 60.710938 40.984375 60.710938 41.1875 60.972656 C 41.269531 61.140625 41.269531 61.140625 41.355469 61.308594 C 41.605469 61.773438 41.835938 62.121094 42.234375 62.476562 C 42.601562 62.875 42.847656 63.246094 43.070312 63.738281 C 43.164062 63.941406 43.164062 63.941406 43.339844 64.097656 C 43.484375 64.242188 43.484375 64.242188 43.484375 64.449219 C 43.550781 64.46875 43.613281 64.488281 43.679688 64.507812 C 44.011719 64.730469 44.027344 65.007812 44.109375 65.386719 C 44.316406 65.386719 44.523438 65.386719 44.734375 65.386719 C 45.027344 64.921875 45.214844 64.476562 45.390625 63.957031 C 45.625 63.332031 45.625 63.332031 46.035156 63.132812 C 46.21875 63.0625 46.21875 63.0625 46.402344 62.996094 C 46.554688 62.75 46.667969 62.496094 46.785156 62.226562 C 46.925781 61.945312 47.082031 61.761719 47.300781 61.535156 C 47.632812 61.179688 47.757812 60.875 47.886719 60.417969 C 48.011719 60.050781 48.203125 59.730469 48.484375 59.460938 C 48.570312 59.433594 48.65625 59.402344 48.746094 59.375 C 49.097656 59.210938 49.132812 59.039062 49.265625 58.683594 C 49.378906 58.375 49.378906 58.375 49.527344 58.113281 C 49.789062 57.992188 49.789062 57.992188 50.046875 57.902344 C 50.285156 57.550781 50.445312 57.230469 50.59375 56.832031 C 50.777344 56.386719 51.09375 56.050781 51.402344 55.683594 C 51.664062 55.339844 51.839844 54.976562 52.015625 54.582031 C 52.128906 54.371094 52.128906 54.371094 52.441406 54.164062 C 52.582031 54.164062 52.71875 54.164062 52.859375 54.164062 C 52.875 54.105469 52.886719 54.046875 52.902344 53.988281 C 53.070312 53.394531 53.308594 53.035156 53.730469 52.585938 C 54.042969 52.238281 54.1875 51.839844 54.355469 51.410156 C 54.558594 50.972656 54.796875 50.527344 55.261719 50.332031 C 55.542969 50.167969 55.566406 50.007812 55.660156 49.703125 C 55.84375 49.195312 55.84375 49.195312 56.191406 49.007812 C 56.347656 48.9375 56.347656 48.9375 56.503906 48.863281 C 56.734375 48.527344 56.878906 48.15625 57.011719 47.773438 C 57.144531 47.480469 57.296875 47.316406 57.519531 47.089844 C 57.949219 46.632812 58.183594 46.164062 58.421875 45.589844 C 58.640625 45.253906 58.832031 45.226562 59.214844 45.121094 C 59.25 45.054688 59.28125 44.984375 59.316406 44.914062 C 59.386719 44.914062 59.457031 44.914062 59.527344 44.914062 C 59.554688 44.839844 59.582031 44.761719 59.609375 44.679688 C 59.734375 44.394531 59.820312 44.199219 60.046875 43.980469 C 60.617188 43.867188 61.179688 43.855469 61.757812 43.855469 Z M 61.757812 43.855469 "/>
<path style=" stroke:none;fill-rule:nonzero;fill:rgb(1.568628%,0%,0%);fill-opacity:1;" d="M 25.253906 19.976562 C 25.308594 20.132812 25.308594 20.132812 25.359375 20.289062 C 25.585938 20.402344 25.585938 20.402344 25.878906 20.496094 C 26.0625 20.574219 26.0625 20.574219 26.25 20.652344 C 26.617188 20.792969 26.953125 20.835938 27.34375 20.871094 C 27.714844 20.925781 27.902344 20.957031 28.171875 21.222656 C 28.289062 21.386719 28.402344 21.554688 28.515625 21.726562 C 28.722656 21.984375 28.863281 22.046875 29.175781 22.152344 C 29.488281 22.265625 29.601562 22.320312 29.777344 22.609375 C 29.855469 22.796875 29.933594 22.984375 30.015625 23.171875 C 30.175781 23.449219 30.277344 23.503906 30.582031 23.601562 C 30.648438 23.617188 30.71875 23.628906 30.789062 23.644531 C 31.070312 23.75 31.144531 23.878906 31.296875 24.132812 C 31.359375 24.472656 31.359375 24.472656 31.390625 24.871094 C 31.398438 24.941406 31.40625 25.011719 31.410156 25.085938 C 31.429688 25.308594 31.449219 25.53125 31.464844 25.757812 C 31.484375 25.980469 31.503906 26.207031 31.523438 26.429688 C 31.542969 26.632812 31.558594 26.839844 31.574219 27.042969 C 31.589844 27.347656 31.589844 27.347656 31.714844 27.5625 C 31.722656 27.734375 31.726562 27.902344 31.726562 28.074219 C 31.726562 28.175781 31.726562 28.277344 31.726562 28.382812 C 31.726562 28.488281 31.726562 28.59375 31.726562 28.707031 C 31.726562 28.8125 31.726562 28.917969 31.726562 29.027344 C 31.726562 29.179688 31.726562 29.179688 31.726562 29.335938 C 31.726562 29.429688 31.726562 29.523438 31.726562 29.617188 C 31.714844 29.847656 31.714844 29.847656 31.609375 30.054688 C 31.539062 30.054688 31.472656 30.054688 31.402344 30.054688 C 31.402344 30.144531 31.402344 30.144531 31.40625 30.238281 C 31.414062 30.511719 31.417969 30.789062 31.421875 31.0625 C 31.421875 31.15625 31.425781 31.253906 31.429688 31.351562 C 31.4375 32.265625 31.4375 32.265625 31.089844 32.652344 C 30.757812 32.6875 30.757812 32.6875 30.464844 32.652344 C 30.4375 32.726562 30.40625 32.800781 30.378906 32.875 C 30.339844 32.972656 30.296875 33.070312 30.253906 33.171875 C 30.21875 33.269531 30.183594 33.367188 30.144531 33.464844 C 29.894531 33.871094 29.589844 34.125 29.226562 34.429688 C 28.988281 34.625 28.988281 34.625 28.804688 34.921875 C 28.507812 35.230469 28.207031 35.277344 27.796875 35.382812 C 27.339844 35.523438 27.09375 35.789062 26.804688 36.152344 C 26.609375 36.394531 26.609375 36.394531 26.296875 36.5 C 26.121094 36.507812 25.941406 36.515625 25.761719 36.515625 C 25.652344 36.515625 25.546875 36.515625 25.433594 36.519531 C 25.316406 36.519531 25.199219 36.519531 25.078125 36.519531 C 24.957031 36.519531 24.835938 36.519531 24.710938 36.519531 C 24.457031 36.523438 24.199219 36.523438 23.945312 36.523438 C 23.550781 36.523438 23.160156 36.527344 22.769531 36.53125 C 22.519531 36.53125 22.273438 36.53125 22.023438 36.53125 C 21.847656 36.535156 21.847656 36.535156 21.667969 36.535156 C 21.558594 36.535156 21.449219 36.535156 21.335938 36.535156 C 21.242188 36.535156 21.144531 36.535156 21.046875 36.535156 C 20.714844 36.488281 20.523438 36.378906 20.253906 36.1875 C 20.1875 36.089844 20.117188 35.988281 20.046875 35.886719 C 19.777344 35.539062 19.46875 35.449219 19.058594 35.308594 C 18.515625 35.121094 18.253906 34.984375 17.972656 34.492188 C 17.839844 34.285156 17.703125 34.199219 17.496094 34.070312 C 17.042969 33.773438 16.820312 33.351562 16.609375 32.863281 C 16.609375 32.792969 16.609375 32.722656 16.609375 32.652344 C 16.433594 32.632812 16.433594 32.632812 16.25 32.613281 C 16.128906 32.59375 16.007812 32.570312 15.878906 32.550781 C 15.753906 32.292969 15.753906 32.109375 15.742188 31.820312 C 15.738281 31.71875 15.734375 31.617188 15.730469 31.511719 C 15.726562 31.402344 15.722656 31.296875 15.71875 31.1875 C 15.710938 31.023438 15.710938 31.023438 15.703125 30.859375 C 15.691406 30.589844 15.683594 30.324219 15.671875 30.054688 C 15.601562 30.054688 15.535156 30.054688 15.464844 30.054688 C 15.25 28.902344 15.367188 27.808594 15.554688 26.664062 C 15.636719 26.15625 15.695312 25.660156 15.722656 25.144531 C 15.757812 24.609375 15.84375 24.199219 16.089844 23.71875 C 16.386719 23.480469 16.652344 23.488281 17.027344 23.507812 C 17.046875 23.445312 17.066406 23.382812 17.085938 23.316406 C 17.113281 23.230469 17.140625 23.148438 17.167969 23.0625 C 17.210938 22.9375 17.210938 22.9375 17.25 22.808594 C 17.339844 22.574219 17.339844 22.574219 17.546875 22.261719 C 17.746094 22.195312 17.746094 22.195312 17.984375 22.144531 C 18.527344 21.984375 18.753906 21.675781 19.066406 21.21875 C 19.214844 21.015625 19.214844 21.015625 19.421875 20.910156 C 19.632812 20.882812 19.847656 20.855469 20.058594 20.828125 C 20.816406 20.714844 21.363281 20.515625 21.933594 20.007812 C 22.703125 19.394531 24.417969 19.472656 25.253906 19.976562 Z M 25.253906 19.976562 "/>
</g>
</svg>
